<svg width="166" height="62" viewBox="0 0 166 62" fill="none" xmlns="http://www.w3.org/2000/svg">
<g clip-path="url(#clip0_200_1645)">
<path d="M37.2296 30.3511C22.3807 30.3511 9.3181 40.3858 1.85374 55.4816C1.28738 55.3436 0.713759 55.2056 0.140137 55.0967C7.82232 39.0208 21.5747 28.2817 37.2296 28.2744C52.8844 28.2744 66.6368 39.0135 74.3117 55.0895C73.7381 55.1984 73.1645 55.3363 72.5981 55.4743C65.141 40.3858 52.0784 30.3511 37.2296 30.3511Z" fill="white" fill-opacity="0.3"/>
<path d="M37.2296 39.1877C25.5465 39.1877 15.185 46.6085 8.79531 57.9793C8.27252 57.7252 7.74246 57.5001 7.2124 57.275C13.8708 45.091 24.835 37.1111 37.2296 37.1111C49.6242 37.1111 60.5884 45.091 67.2395 57.2677C66.7094 57.4928 66.1794 57.7252 65.6566 57.9721C59.2668 46.6013 48.9126 39.1805 37.2296 39.1805V39.1877Z" fill="white" fill-opacity="0.3"/>
<path d="M37.2296 45.9407C46.7779 45.9407 55.2878 51.764 60.7626 60.7968C60.2834 61.1235 59.8042 61.4575 59.3322 61.8061C54.1478 53.4123 46.1679 48.0246 37.2296 48.0246C28.2912 48.0246 20.3113 53.4195 15.127 61.8133C14.655 61.4648 14.1758 61.1308 13.6965 60.804C19.1714 51.7713 27.6886 45.9479 37.2296 45.9479V45.9407Z" fill="white" fill-opacity="0.3"/>
<path d="M76.1481 6.65969C61.4571 4.49992 47.0739 12.528 37.4932 26.3775C36.953 26.1586 36.4055 25.9387 35.8538 25.7475C45.7936 10.9527 60.9618 2.32812 76.4501 4.60512C91.9385 6.88211 103.983 19.5073 109.238 36.5286C108.654 36.5529 108.067 36.606 107.486 36.6601C102.303 20.6475 90.839 8.81946 76.1481 6.65969Z" fill="white" fill-opacity="0.3"/>
<path d="M74.6337 15.5505C63.0749 13.8512 51.7442 19.686 43.7686 30.0064C43.2883 29.679 42.7966 29.3792 42.3049 29.0794C50.6647 17.9934 62.6729 11.6931 74.9357 13.4959C87.1914 15.2976 96.8854 24.7885 101.695 37.8031C101.138 37.9487 100.579 38.1015 100.026 38.2697C95.3583 26.0905 86.1935 17.2426 74.6347 15.5433L74.6337 15.5505Z" fill="white" fill-opacity="0.3"/>
<path d="M73.8806 22.0833C83.3273 23.4721 90.8997 30.4713 95.0025 40.2043C94.4809 40.4579 93.9582 40.7186 93.4405 40.9948C89.5321 31.9362 82.4208 25.4451 73.5775 24.145C64.7342 22.845 56.0544 27.0219 49.7043 34.5723C49.2881 34.1588 48.8625 33.7587 48.4359 33.3657C55.1663 25.2253 64.44 20.7027 73.8795 22.0905L73.8806 22.0833Z" fill="white" fill-opacity="0.3"/>
<path d="M1.86628 5.8999C-12.9826 5.8999 -26.0452 15.9347 -33.5095 31.0304C-34.0759 30.8924 -34.6495 30.7545 -35.2231 30.6455C-27.541 14.5696 -13.7885 3.8305 1.86628 3.82324C17.5211 3.82324 31.2735 14.5623 38.9484 30.6383C38.3748 30.7472 37.8012 30.8852 37.2348 31.0231C29.7777 15.9347 16.7151 5.8999 1.86628 5.8999Z" fill="white" fill-opacity="0.3"/>
<path d="M1.86628 14.7292C-9.81674 14.7292 -20.1783 22.15 -26.568 33.5208C-27.0908 33.2667 -27.6208 33.0416 -28.1509 32.8165C-21.4925 20.6325 -10.5283 12.6526 1.86628 12.6526C14.2536 12.6526 25.2251 20.6325 31.8762 32.8092C31.3461 33.0343 30.8161 33.2667 30.2933 33.5136C23.9036 22.1428 13.5493 14.722 1.86628 14.722V14.7292Z" fill="white" fill-opacity="0.3"/>
<path d="M1.86655 21.4819C11.4148 21.4819 19.9248 27.3053 25.3996 36.338C24.9204 36.6648 24.4411 36.9988 23.9692 37.3473C18.7848 28.9536 10.8049 23.5659 1.86655 23.5659C-7.0718 23.5659 -15.0517 28.9608 -20.2361 37.3546C-20.708 37.0061 -21.1873 36.672 -21.6665 36.3453C-16.1917 27.3126 -7.67447 21.4892 1.86655 21.4892V21.4819Z" fill="white" fill-opacity="0.3"/>
<path d="M98.0091 40.4539C83.1603 40.4539 70.0976 50.4886 62.6333 65.5843C62.0669 65.4464 61.4933 65.3084 60.9197 65.1995C68.6019 49.1163 82.3543 38.3772 98.0091 38.3772C113.664 38.3772 127.416 49.1163 135.091 65.1922C134.518 65.3012 133.944 65.4391 133.378 65.5771C125.921 50.4886 112.858 40.4539 98.0091 40.4539Z" fill="white" fill-opacity="0.3"/>
<path d="M98.009 49.2832C86.326 49.2832 75.9645 56.704 69.5747 68.0748C69.0519 67.8207 68.5219 67.5956 67.9918 67.3705C74.6502 55.1864 85.6144 47.2065 98.009 47.2065C110.396 47.2065 121.368 55.1864 128.019 67.3632C127.489 67.5883 126.959 67.8207 126.436 68.0675C120.046 56.6967 109.692 49.2759 98.009 49.2759V49.2832Z" fill="white" fill-opacity="0.3"/>
<path d="M98.009 56.0432C107.557 56.0432 116.067 61.8666 121.542 70.8993C121.063 71.2261 120.584 71.5601 120.112 71.9086C114.927 63.5148 106.947 58.1271 98.009 58.1271C89.0707 58.1271 81.0908 63.5221 75.9064 71.9159C75.4344 71.5673 74.9552 71.2333 74.476 70.9066C79.9508 61.8738 88.468 56.0505 98.009 56.0505V56.0432Z" fill="white" fill-opacity="0.3"/>
<g clip-path="url(#clip1_200_1645)">
<path d="M-7.20475 50.0716C-20.4793 50.0716 -32.1569 59.0424 -38.8299 72.5376C-39.3362 72.4143 -39.849 72.291 -40.3618 72.1936C-33.4941 57.8221 -21.1998 48.2216 -7.20475 48.2151C6.79029 48.2151 19.0846 57.8156 25.9458 72.1871C25.433 72.2845 24.9202 72.4078 24.4139 72.5311C17.7474 59.0424 6.06977 50.0716 -7.20475 50.0716Z" fill="white" fill-opacity="0.3"/>
<path d="M-7.20491 57.9649C-17.6493 57.9649 -26.9122 64.5989 -32.6245 74.7641C-33.0918 74.5369 -33.5657 74.3357 -34.0396 74.1345C-28.0871 63.2422 -18.2854 56.1084 -7.20491 56.1084C3.86908 56.1084 13.6773 63.2422 19.6232 74.128C19.1494 74.3292 18.6755 74.5369 18.2082 74.7576C12.4959 64.5924 3.23943 57.9584 -7.20491 57.9584V57.9649Z" fill="white" fill-opacity="0.3"/>
</g>
</g>
<defs>
<clipPath id="clip0_200_1645">
<rect width="165" height="61.806" fill="white" transform="translate(0.140137)"/>
</clipPath>
<clipPath id="clip1_200_1645">
<rect width="147.506" height="55.2531" fill="white" transform="translate(-121.561 22.9385)"/>
</clipPath>
</defs>
</svg>
