<svg width="166" height="30" viewBox="0 0 166 30" fill="none" xmlns="http://www.w3.org/2000/svg">
<g opacity="0.9" clip-path="url(#clip0_200_1634)">
<path d="M0.984848 28.8451H145.261C147.795 28.8451 149.868 26.8495 149.868 24.4185V24.0266C149.868 21.5884 147.795 19.6001 145.261 19.6001H129.15" stroke="white" stroke-opacity="0.3" stroke-width="2.19027" stroke-linecap="round" stroke-linejoin="round"/>
<path d="M141.742 28.8451C144.276 28.8451 146.348 26.8495 146.348 24.4185V24.0266C146.348 21.5884 144.276 19.6001 141.742 19.6001" stroke="white" stroke-opacity="0.3" stroke-width="2.19027" stroke-linecap="round" stroke-linejoin="round"/>
<path d="M134.781 10.3406C132.247 10.3406 130.175 12.3362 130.175 14.7671V15.159C130.175 17.5972 132.247 19.5855 134.781 19.5855" stroke="white" stroke-opacity="0.3" stroke-width="2.19027" stroke-linecap="round" stroke-linejoin="round"/>
<path d="M131.301 10.3406C128.767 10.3406 126.695 12.3362 126.695 14.7671V15.159C126.695 17.5972 128.767 19.5855 131.301 19.5855" stroke="white" stroke-opacity="0.3" stroke-width="2.19027" stroke-linecap="round" stroke-linejoin="round"/>
<path d="M127.855 10.3406C125.32 10.3406 123.248 12.3362 123.248 14.7671V15.159C123.248 17.5972 125.32 19.5855 127.855 19.5855H131.233" stroke="white" stroke-opacity="0.3" stroke-width="2.19027" stroke-linecap="round" stroke-linejoin="round"/>
<path d="M138.261 28.8451C140.796 28.8451 142.868 26.8495 142.868 24.4185V24.0266C142.868 21.5884 140.796 19.6001 138.261 19.6001" stroke="white" stroke-opacity="0.3" stroke-width="2.19027" stroke-linecap="round" stroke-linejoin="round"/>
<path d="M156.209 10.3407C158.743 10.3407 160.815 8.34508 160.815 5.91411V5.52225C160.815 3.08402 158.743 1.0957 156.209 1.0957" stroke="white" stroke-opacity="0.3" stroke-width="2.19027" stroke-linecap="round" stroke-linejoin="round"/>
<path d="M152.768 10.3407C155.302 10.3407 157.374 8.34508 157.374 5.91411V5.52225C157.374 3.08402 155.302 1.0957 152.768 1.0957" stroke="white" stroke-opacity="0.3" stroke-width="2.19027" stroke-linecap="round" stroke-linejoin="round"/>
<path d="M149.305 1.08838H159.689C162.223 1.08838 164.295 3.08395 164.295 5.51493V5.90679C164.295 8.34502 162.223 10.3333 159.689 10.3333H127.691" stroke="white" stroke-opacity="0.3" stroke-width="2.19027" stroke-linecap="round" stroke-linejoin="round"/>
</g>
<defs>
<clipPath id="clip0_200_1634">
<rect width="165" height="29.9336" fill="white" transform="matrix(-1 0 0 1 165.14 0)"/>
</clipPath>
</defs>
</svg>
