<svg width="150" height="56" viewBox="0 0 150 56" fill="none" xmlns="http://www.w3.org/2000/svg">
<g clip-path="url(#clip0_200_1679)">
<path d="M116.535 27.5C129.989 27.5 141.824 36.5921 148.588 50.2697C149.101 50.1447 149.62 50.0197 150.14 49.921C143.18 35.3552 130.719 25.625 116.535 25.6184C102.351 25.6184 89.8901 35.3487 82.9362 49.9145C83.4559 50.0131 83.9757 50.1381 84.4888 50.2631C91.2454 36.5921 103.081 27.5 116.535 27.5Z" fill="white" fill-opacity="0.3"/>
<path d="M116.535 35.5066C127.12 35.5066 136.509 42.2303 142.298 52.5329C142.772 52.3026 143.252 52.0987 143.732 51.8947C137.699 40.8553 127.765 33.625 116.535 33.625C105.305 33.625 95.3704 40.8553 89.3441 51.8882C89.8243 52.0921 90.3046 52.3026 90.7783 52.5263C96.5677 42.2237 105.949 35.5 116.535 35.5V35.5066Z" fill="white" fill-opacity="0.3"/>
<path d="M116.535 41.625C107.884 41.625 100.173 46.9013 95.2126 55.0855C95.6468 55.3816 96.081 55.6842 96.5086 56C101.206 48.3947 108.436 43.5132 116.535 43.5132C124.634 43.5132 131.864 48.4013 136.561 56.0066C136.989 55.6908 137.423 55.3882 137.857 55.0921C132.897 46.9079 125.18 41.6316 116.535 41.6316V41.625Z" fill="white" fill-opacity="0.3"/>
<path d="M81.2723 6.03413C94.5832 4.07725 107.615 11.3512 116.296 23.8997C116.785 23.7013 117.281 23.5021 117.781 23.3288C108.775 9.92386 95.032 2.10947 80.9986 4.17256C66.9652 6.23566 56.0525 17.6748 51.2911 33.0972C51.8197 33.1192 52.3521 33.1673 52.8779 33.2163C57.5742 18.7079 67.9614 7.99101 81.2723 6.03413Z" fill="white" fill-opacity="0.3"/>
<path d="M82.6444 14.0899C93.1174 12.5502 103.384 17.8369 110.61 27.1879C111.045 26.8912 111.491 26.6195 111.936 26.3479C104.362 16.3033 93.4816 10.5949 82.3707 12.2283C71.2664 13.8608 62.483 22.4601 58.1255 34.2522C58.6303 34.3841 59.1361 34.5225 59.6373 34.6749C63.8667 23.6398 72.1705 15.6231 82.6435 14.0834L82.6444 14.0899Z" fill="white" fill-opacity="0.3"/>
<path d="M83.3268 20.0088C74.7675 21.2672 67.9064 27.6089 64.189 36.4275C64.6617 36.6573 65.1353 36.8935 65.6043 37.1438C69.1455 28.9362 75.5889 23.0549 83.6014 21.8769C91.614 20.6989 99.4783 24.4835 105.232 31.3246C105.609 30.95 105.995 30.5874 106.381 30.2314C100.283 22.8557 91.8805 18.7579 83.3277 20.0153L83.3268 20.0088Z" fill="white" fill-opacity="0.3"/>
<path d="M148.576 5.34569C162.03 5.34569 173.866 14.4378 180.629 28.1154C181.142 27.9904 181.662 27.8654 182.181 27.7667C175.221 13.201 162.76 3.47069 148.576 3.46411C134.392 3.46411 121.931 13.1944 114.977 27.7602C115.497 27.8588 116.017 27.9838 116.53 28.1088C123.287 14.4378 135.122 5.34569 148.576 5.34569Z" fill="white" fill-opacity="0.3"/>
<path d="M148.576 13.3457C159.162 13.3457 168.55 20.0694 174.339 30.372C174.813 30.1417 175.293 29.9378 175.773 29.7338C169.741 18.6944 159.806 11.4641 148.576 11.4641C137.352 11.4641 127.412 18.6944 121.385 29.7273C121.866 29.9312 122.346 30.1417 122.819 30.3654C128.609 20.0628 137.991 13.3391 148.576 13.3391V13.3457Z" fill="white" fill-opacity="0.3"/>
<path d="M148.576 19.4639C139.925 19.4639 132.214 24.7402 127.254 32.9244C127.688 33.2204 128.122 33.5231 128.55 33.8389C133.247 26.2336 140.477 21.352 148.576 21.352C156.675 21.352 163.905 26.2402 168.602 33.8454C169.03 33.5297 169.464 33.227 169.898 32.931C164.938 24.7468 157.221 19.4704 148.576 19.4704V19.4639Z" fill="white" fill-opacity="0.3"/>
<path d="M61.465 36.6538C74.9189 36.6538 86.7544 45.7459 93.5176 59.4235C94.0307 59.2985 94.5505 59.1735 95.0702 59.0748C88.1097 44.5025 75.6492 34.7722 61.465 34.7722C47.2808 34.7722 34.8202 44.5025 27.8663 59.0683C28.386 59.167 28.9058 59.292 29.4189 59.417C36.1755 45.7459 48.011 36.6538 61.465 36.6538Z" fill="white" fill-opacity="0.3"/>
<path d="M61.4651 44.6538C72.0506 44.6538 81.4387 51.3775 87.2282 61.6801C87.7019 61.4498 88.1822 61.2459 88.6624 61.042C82.6295 50.0025 72.6953 42.7722 61.4651 42.7722C50.2414 42.7722 40.3006 50.0025 34.2743 61.0354C34.7545 61.2393 35.2348 61.4498 35.7085 61.6735C41.498 51.3709 50.8795 44.6472 61.4651 44.6472V44.6538Z" fill="white" fill-opacity="0.3"/>
<path d="M61.4651 50.7788C52.8138 50.7788 45.1032 56.0551 40.1427 64.2393C40.5769 64.5354 41.0111 64.838 41.4388 65.1538C46.1361 57.5485 53.3664 52.667 61.4651 52.667C69.5638 52.667 76.794 57.5551 81.4914 65.1604C81.919 64.8446 82.3532 64.542 82.7874 64.2459C77.8269 56.0617 70.1098 50.7854 61.4651 50.7854V50.7788Z" fill="white" fill-opacity="0.3"/>
<g clip-path="url(#clip1_200_1679)">
<path d="M156.795 45.3679C168.823 45.3679 179.403 53.496 185.449 65.7235C185.908 65.6117 186.373 65.5 186.837 65.4118C180.615 52.3903 169.475 43.6917 156.795 43.6858C144.115 43.6858 132.975 52.3844 126.759 65.4059C127.223 65.4941 127.688 65.6059 128.147 65.7176C134.187 53.496 144.768 45.3679 156.795 45.3679Z" fill="white" fill-opacity="0.3"/>
<path d="M156.795 52.5197C166.258 52.5197 174.651 58.5305 179.827 67.7409C180.25 67.535 180.68 67.3527 181.109 67.1704C175.716 57.3013 166.835 50.8376 156.795 50.8376C146.761 50.8376 137.875 57.3013 132.487 67.1645C132.917 67.3468 133.346 67.535 133.769 67.735C138.945 58.5247 147.332 52.5139 156.795 52.5139V52.5197Z" fill="white" fill-opacity="0.3"/>
</g>
</g>
<defs>
<clipPath id="clip0_200_1679">
<rect width="149.5" height="56" fill="white" transform="matrix(-1 0 0 1 150.14 0)"/>
</clipPath>
<clipPath id="clip1_200_1679">
<rect width="133.649" height="50.0627" fill="white" transform="matrix(-1 0 0 1 260.408 20.7837)"/>
</clipPath>
</defs>
</svg>
