<svg width="100" height="134" viewBox="0 0 100 134" fill="none" xmlns="http://www.w3.org/2000/svg">
<g opacity="0.9" clip-path="url(#clip0_143_159)">
<path d="M50.31 65.15C50.31 65.15 51.78 49.49 38.38 46.47C25.37 43.54 17.07 27.05 15.11 17.62C12.07 3.04998 15.79 0.149978 14.61 0.0199776C8.54996 -0.660022 8.83996 19.19 12.56 26.03C9.32997 21.83 7.60996 5.20998 6.58996 6.27998C2.47996 10.58 6.29996 23.39 9.61996 29.55C4.63996 24.47 3.76996 11.49 2.67996 13.12C-0.0600355 17.23 4.53996 31.31 9.03996 38.55C4.43996 34.54 1.92996 23.42 1.30996 24.27C-1.92004 28.77 2.96996 39.04 9.81996 46.08C4.43996 42.66 0.129965 34.48 0.0399645 35.32C-0.450035 39.82 3.26997 45.88 12.46 52.63C7.95996 51.55 2.57996 46.37 2.28996 47.25C1.99996 48.13 2.67997 54.88 15.1 56.15C12.66 57.23 7.27996 54.98 7.46996 56.15C7.76996 57.92 11.19 60.65 18.42 60.65C16.07 61.82 10.96 60 11.77 61.14C14.21 64.56 20.57 64.56 24.68 63.78C20.96 65.34 16.17 64.27 16.86 65.83C17.54 67.39 26.83 67.69 31.14 66.71C27.82 68.08 20.67 68.47 21.07 68.76C24.1 71.01 28.6 70.13 33.1 69.25C31.93 70.42 28.21 71.01 28.6 71.69C28.99 72.37 32.71 73.65 39.55 72.77C46.4 71.89 50.31 67.88 50.31 65.14V65.15Z" fill="#B99E58"/>
<path d="M29.38 83.2101C29.38 78.7801 33.17 69.1701 42.29 65.7401C53.37 61.5701 64.06 72.5201 69.41 68.4801C74.76 64.4401 76.32 59.4801 73.84 55.7001C71.36 51.9201 69.67 48.1401 70.58 44.4901C71.49 40.8401 75.15 39.9201 76.58 40.4501C78.01 40.9701 74.49 48.0201 76.19 52.5801C77.89 57.1401 81.14 65.6201 72.54 72.7901C63.93 79.9601 52.46 83.0901 46.59 87.2601C42.37 90.2601 29.38 87.6501 29.38 83.2201V83.2101Z" fill="#B99E58"/>
<path d="M73.98 41.6101C74.63 40.4401 81.02 32.22 84.28 31.05C81.28 34.31 76.46 42.66 76.2 43.44C75.94 44.22 73.33 42.7901 73.98 41.6101Z" fill="#B99E58"/>
<path d="M54.29 68.5999C54.94 51.5199 66.0099 49.6799 67.4599 42.5199C69.8099 30.9099 87.8 16.9599 95.76 13.8299C99.6 12.3199 100.97 10.3699 97.8899 10.1799C93.2399 9.88991 88.08 12.1399 79.16 21.2299C82.44 16.8799 87.34 12.6899 90.41 11.2599C95.74 8.76991 88.01 4.31991 76.72 18.6899C77.21 17.3199 81.7099 11.4499 82.5899 10.5699C83.4699 9.68991 78.68 6.45991 68.9 23.1899C69.58 20.3499 75.5499 12.2399 73.9899 11.9399C72.4299 11.6499 67.4399 14.4799 61.6699 27.7799C61.7299 24.3299 67.0799 14.2799 65.4499 14.4799C63.8199 14.6799 58.0199 18.4599 55.7999 32.0199C55.2099 26.5399 56.7099 20.9399 55.41 21.3899C54.1 21.8499 51.37 26.2799 49.74 36.7799C48.43 33.0599 50.8499 25.6299 49.6699 26.0899C48.4999 26.5499 44 31.3099 45.83 43.2999C44.52 42.1299 44.68 34.5199 44.07 34.7599C41.59 35.7399 40.9999 45.1899 45.0499 51.8399C41.6599 48.8399 42.05 42.4499 40.75 43.3699C39.44 44.2799 40.23 53.8699 43.88 56.8699C41.66 55.3099 39.58 52.4399 39.58 52.4399C39.58 52.4399 40.0999 59.6099 43.6199 61.0499C41.7899 61.8299 39.45 58.4399 39.45 58.4399C39.45 58.4399 40.76 63.7899 44.02 64.5699C42.06 65.4799 40.8899 65.0899 40.8899 65.0899C40.8899 65.0899 46.36 69.9099 54.32 68.6099L54.29 68.5999Z" fill="#B99E58"/>
<path d="M33.91 76.2001C29.9 77.2801 14.55 78.1601 12.2 77.2801C9.84997 76.4001 12.49 80.6101 16.99 81.0901C21.49 81.5801 11.12 82.1701 9.84997 81.9701C8.57997 81.7701 11.41 85.3901 16.3 85.0001C12 86.7601 11.8 87.4401 13.37 88.0301C14.93 88.6201 17.97 88.5201 19.82 87.6401C15.71 89.6901 20.6 91.9401 25.39 88.2301C23.92 90.9701 25.23 92.0601 28.91 89.5001C36.93 83.9301 37.91 75.1201 33.9 76.2001H33.91Z" fill="#B99E58"/>
<path d="M42.29 84.64C41.12 89.59 40.2 97.42 38.51 102.11C36.82 106.8 36.16 109.54 36.95 111.89C37.73 114.24 41.12 137.58 40.6 140.45C40.08 143.32 48.72 142.37 51.2 143.87C50.35 141.78 44.84 141.56 44.84 141.56C44.84 141.56 50.45 140.91 52.86 142.21C53.12 140.39 47.12 139.86 45.04 140.38C48.17 139.08 50.09 139.99 51.4 140.25C49.05 138.39 45.76 138.36 43.02 139.27C41.91 136.6 39.82 116.06 39.82 111.11C39.82 106.16 40.73 97.94 43.73 91.68C46.01 86.92 49.99 85.29 49.6 83.07C49.21 80.85 43.47 79.68 42.3 84.64H42.29Z" fill="#B99E58"/>
<path d="M38.19 79.8201C36.49 82.3001 32.52 85.9501 28.74 88.6901C24.96 91.4301 17.4 93.5201 15.96 95.7301C14.53 97.9501 15.96 100.98 17.65 104.37C19.35 107.76 22.02 117.54 22.54 121.19C23.06 124.84 25.28 127.84 27.82 131.07C28.8 125.59 25.25 124.06 24.59 120.8C23.94 117.54 19.41 105.38 19.28 103.03C19.15 100.68 18.11 98.0101 19.02 96.4501C19.93 94.8901 36.1 87.9101 40.27 85.9501C44.44 83.9901 47.31 80.2101 45.62 77.8701C43.92 75.5201 39.88 77.3501 38.19 79.8301V79.8201Z" fill="#B99E58"/>
<path d="M22.21 119.55C22.21 119.55 21.95 124.9 23.51 128.29C23.89 125.98 23.41 124.51 23.8 123.24C24.19 121.97 22.21 119.56 22.21 119.56V119.55Z" fill="#B99E58"/>
</g>
<defs>
<clipPath id="clip0_143_159">
<rect width="99.57" height="143.87" fill="white"/>
</clipPath>
</defs>
</svg>
