<svg width="266" height="38" viewBox="0 0 266 38" fill="none" xmlns="http://www.w3.org/2000/svg">
<g opacity="0.9" clip-path="url(#clip0_143_127)">
<path d="M1.36177 36.087H233.953C238.038 36.087 241.379 33.5904 241.379 30.5491V30.0589C241.379 27.0085 238.038 24.521 233.953 24.521H207.979" stroke="#B99E58" stroke-width="2.72355" stroke-linecap="round" stroke-linejoin="round"/>
<path d="M228.279 36.087C232.364 36.087 235.705 33.5904 235.705 30.5491V30.0589C235.705 27.0085 232.364 24.521 228.279 24.521" stroke="#B99E58" stroke-width="2.72355" stroke-linecap="round" stroke-linejoin="round"/>
<path d="M217.058 12.9368C212.972 12.9368 209.632 15.4334 209.632 18.4747V18.9649C209.632 22.0153 212.972 24.5028 217.058 24.5028" stroke="#B99E58" stroke-width="2.72355" stroke-linecap="round" stroke-linejoin="round"/>
<path d="M211.447 12.9368C207.362 12.9368 204.021 15.4334 204.021 18.4747V18.9649C204.021 22.0153 207.362 24.5028 211.447 24.5028" stroke="#B99E58" stroke-width="2.72355" stroke-linecap="round" stroke-linejoin="round"/>
<path d="M205.891 12.9368C201.806 12.9368 198.465 15.4334 198.465 18.4747V18.9649C198.465 22.0153 201.806 24.5028 205.891 24.5028H211.338" stroke="#B99E58" stroke-width="2.72355" stroke-linecap="round" stroke-linejoin="round"/>
<path d="M222.668 36.087C226.754 36.087 230.095 33.5904 230.095 30.5491V30.0589C230.095 27.0085 226.754 24.521 222.668 24.521" stroke="#B99E58" stroke-width="2.72355" stroke-linecap="round" stroke-linejoin="round"/>
<path d="M251.601 12.9369C255.687 12.9369 259.028 10.4403 259.028 7.39897V6.90873C259.028 3.85836 255.687 1.37085 251.601 1.37085" stroke="#B99E58" stroke-width="2.72355" stroke-linecap="round" stroke-linejoin="round"/>
<path d="M246.055 12.9369C250.14 12.9369 253.481 10.4403 253.481 7.39897V6.90873C253.481 3.85836 250.14 1.37085 246.055 1.37085" stroke="#B99E58" stroke-width="2.72355" stroke-linecap="round" stroke-linejoin="round"/>
<path d="M240.471 1.36182H257.212C261.297 1.36182 264.638 3.8584 264.638 6.8997V7.38994C264.638 10.4403 261.297 12.9278 257.212 12.9278H205.628" stroke="#B99E58" stroke-width="2.72355" stroke-linecap="round" stroke-linejoin="round"/>
</g>
<defs>
<clipPath id="clip0_143_127">
<rect width="266" height="37.4488" fill="white" transform="matrix(-1 0 0 1 266 0)"/>
</clipPath>
</defs>
</svg>
