<svg width="254" height="46" viewBox="0 0 254 46" fill="none" xmlns="http://www.w3.org/2000/svg">
<mask id="path-2-outside-1_273_761" maskUnits="userSpaceOnUse" x="0" y="0" width="254" height="46" fill="black">
<rect fill="white" width="254" height="46"/>
<path d="M253 27.3333C253 28.4152 252.649 29.4679 252 30.3333L242.5 43C241.556 44.259 240.074 45 238.5 45H6C3.23857 45 1 42.7614 1 40V18.6667C1 17.5848 1.35089 16.5321 2 15.6667L11.5 3C12.4443 1.74097 13.9262 1 15.5 1H248C250.761 1 253 3.23858 253 6V27.3333Z"/>
</mask>
<path d="M253 27.3333C253 28.4152 252.649 29.4679 252 30.3333L242.5 43C241.556 44.259 240.074 45 238.5 45H6C3.23857 45 1 42.7614 1 40V18.6667C1 17.5848 1.35089 16.5321 2 15.6667L11.5 3C12.4443 1.74097 13.9262 1 15.5 1H248C250.761 1 253 3.23858 253 6V27.3333Z" fill="#B99E58"/>
<path d="M11.5 3L12.3 3.6L11.5 3ZM242.5 43L241.7 42.4L242.5 43ZM252 30.3333L251.2 29.7333L252 30.3333ZM252 30.3333L251.2 29.7333L241.7 42.4L242.5 43L243.3 43.6L252.8 30.9333L252 30.3333ZM238.5 45V44H6V45V46H238.5V45ZM1 40H2V18.6667H1H0V40H1ZM2 15.6667L2.8 16.2667L12.3 3.6L11.5 3L10.7 2.4L1.2 15.0667L2 15.6667ZM15.5 1V2H248V1V0H15.5V1ZM253 6H252V27.3333H253H254V6H253ZM248 1V2C250.209 2 252 3.79086 252 6H253H254C254 2.68629 251.314 0 248 0V1ZM11.5 3L12.3 3.6C13.0554 2.59278 14.241 2 15.5 2V1V0C13.6115 0 11.8331 0.889165 10.7 2.4L11.5 3ZM1 18.6667H2C2 17.8012 2.28071 16.9591 2.8 16.2667L2 15.6667L1.2 15.0667C0.421067 16.1052 0 17.3684 0 18.6667H1ZM6 45V44C3.79086 44 2 42.2091 2 40H1H0C0 43.3137 2.68629 46 6 46V45ZM242.5 43L241.7 42.4C240.945 43.4072 239.759 44 238.5 44V45V46C240.389 46 242.167 45.1108 243.3 43.6L242.5 43ZM252 30.3333L252.8 30.9333C253.579 29.8948 254 28.6316 254 27.3333H253H252C252 28.1988 251.719 29.0409 251.2 29.7333L252 30.3333Z" fill="#B99E58" mask="url(#path-2-outside-1_273_761)"/>
</svg>
