<svg width="32" height="134" viewBox="0 0 32 134" fill="none" xmlns="http://www.w3.org/2000/svg">
<line x1="16.5" y1="16" x2="16.5" y2="102" stroke="#6B6A6A"/>
<path d="M32 118C32 126.837 24.8366 134 16 134C7.16344 134 0 126.837 0 118C0 109.163 7.16344 102 16 102C24.8366 102 32 109.163 32 118ZM1.09174 118C1.09174 126.234 7.76639 132.908 16 132.908C24.2336 132.908 30.9083 126.234 30.9083 118C30.9083 109.766 24.2336 103.092 16 103.092C7.76639 103.092 1.09174 109.766 1.09174 118Z" fill="#860002"/>
<circle cx="16" cy="118" r="7.2" fill="#860002"/>
</svg>
