<svg width="29" height="20" viewBox="0 0 29 20" fill="none" xmlns="http://www.w3.org/2000/svg">
<circle cx="2.5" cy="10" r="2" fill="black"/>
<g clip-path="url(#clip0_174_4252)">
<path d="M26.9251 7.6861L27.424 6.05723L27.3051 6.0094C27.2226 5.97608 25.2542 5.1971 23.5512 6.04185C23.4804 6.07687 23.4088 6.11787 23.3372 6.164C23.3945 5.92398 23.4231 5.70446 23.4214 5.5063C23.4071 3.58445 21.8415 2.14691 21.7749 2.08712L21.6789 2L20.4638 3.17873L19.2301 2.01879L19.1358 2.10677C19.07 2.16827 17.5246 3.62887 17.539 5.55072C17.5407 5.74802 17.5718 5.9684 17.6325 6.20756C17.5592 6.16143 17.4867 6.12129 17.4159 6.08798C15.7012 5.26884 13.7446 6.07687 13.662 6.11189L13.544 6.16144L14.0656 7.78262L12.5 8.40615L12.5371 8.53C12.5632 8.61713 13.1926 10.6611 14.9083 11.4802C15.2529 11.6451 15.7155 11.7399 16.2877 11.7647C15.809 12.0944 15.4619 12.4249 15.2537 12.7512C14.2232 14.3647 14.7524 16.4386 14.7751 16.5257L14.808 16.6513L16.4629 16.3429L16.8632 17.9991L16.9896 17.9786C17.078 17.9641 19.161 17.6045 20.1908 15.991C20.3357 15.7638 20.4562 15.4726 20.5489 15.1206C20.6475 15.4709 20.7713 15.7604 20.9196 15.9859C21.9738 17.584 24.061 17.912 24.1495 17.9248L24.2767 17.9436L24.6534 16.2814L26.3125 16.565L26.3437 16.4386C26.3656 16.3506 26.8644 14.2699 25.8103 12.6718C25.5971 12.3481 25.2449 12.0226 24.7621 11.7006C25.3334 11.6673 25.7943 11.5648 26.1364 11.3957C27.8394 10.5501 28.4393 8.49669 28.4638 8.41042L28.4992 8.28571L26.9243 7.68524L26.9251 7.6861ZM26.0151 11.1437C25.6216 11.3393 25.0443 11.4384 24.2902 11.4324L23.7627 11.4299L24.2202 11.6955C24.8775 12.0773 25.3351 12.4583 25.5794 12.8298C26.4212 14.1068 26.1886 15.7758 26.1002 16.2447L24.441 15.962L24.0644 17.6242C23.6034 17.5277 21.9923 17.1074 21.1505 15.8305C20.9407 15.5119 20.7823 15.0387 20.6803 14.4262L20.5371 13.5601L20.4065 14.4279C20.3138 15.0421 20.1629 15.517 19.9573 15.839C19.1341 17.1288 17.5297 17.5721 17.0696 17.6763L16.6694 16.0201L15.0144 16.3284C14.9192 15.8621 14.6614 14.1973 15.4855 12.9058C15.7248 12.5309 16.1764 12.1422 16.8286 11.751L17.282 11.4785L16.7553 11.4888C16.0037 11.505 15.4223 11.4153 15.0262 11.2257C13.6561 10.5706 13.0073 9.01858 12.8446 8.571L14.4111 7.94747L13.8887 6.32543C14.3327 6.16741 15.9245 5.68567 17.298 6.34166C17.4556 6.41683 17.6249 6.52957 17.801 6.67734L18.1937 7.00534L18.0201 6.52103C17.887 6.14948 17.8187 5.82234 17.8162 5.54815C17.8052 4.01239 18.9049 2.74738 19.2318 2.40487L20.4646 3.56566L21.6805 2.38693C22.0134 2.72432 23.1316 3.97309 23.1425 5.50886C23.1442 5.78305 23.081 6.11104 22.9529 6.48431L22.7861 6.97203L23.1737 6.63805C23.3481 6.48772 23.5158 6.37241 23.6717 6.29468C25.0325 5.61905 26.6336 6.07687 27.0802 6.2272L26.5813 7.85608L28.1562 8.45654C28.0003 8.90668 27.3742 10.4689 26.0134 11.1437H26.0151Z" fill="#860002"/>
<path d="M22.5838 9.4834C22.8012 9.4834 22.9782 9.30403 22.9782 9.08366C22.9782 8.86329 22.8012 8.68391 22.5838 8.68391C22.3664 8.68391 22.1895 8.86329 22.1895 9.08366C22.1895 9.1127 22.1928 9.14003 22.1987 9.16737L20.9474 9.77296C20.8724 9.65252 20.746 9.56967 20.6003 9.55173V8.13384C20.7915 8.10565 20.9382 7.9408 20.9382 7.74008C20.9382 7.5197 20.7612 7.34033 20.5438 7.34033C20.3264 7.34033 20.1494 7.5197 20.1494 7.74008C20.1494 7.94166 20.2969 8.10651 20.4882 8.13384V9.55173C20.3416 9.56967 20.216 9.65252 20.141 9.77296L18.7835 9.11612C18.8021 9.06999 18.8122 9.02045 18.8122 8.96749C18.8122 8.74712 18.6352 8.56775 18.4178 8.56775C18.2004 8.56775 18.0235 8.74712 18.0235 8.96749C18.0235 9.18787 18.2004 9.36724 18.4178 9.36724C18.5434 9.36724 18.6538 9.30659 18.7262 9.21434L20.0938 9.87546C20.0778 9.92415 20.0669 9.97625 20.0669 10.0309C20.0669 10.0856 20.0778 10.1368 20.0938 10.1864L18.7877 10.8184C18.7195 10.6989 18.5939 10.6169 18.4473 10.6169C18.2299 10.6169 18.053 10.7962 18.053 11.0166C18.053 11.237 18.2299 11.4164 18.4473 11.4164C18.6647 11.4164 18.8417 11.237 18.8417 11.0166C18.8417 10.9841 18.8366 10.9534 18.8299 10.9235L20.1419 10.2889C20.2169 10.4093 20.3432 10.4922 20.489 10.5101V11.8972C20.2935 11.9212 20.141 12.0877 20.141 12.2919C20.141 12.5122 20.318 12.6916 20.5354 12.6916C20.7528 12.6916 20.9297 12.5131 20.9297 12.2919C20.9297 12.0937 20.7873 11.9306 20.6011 11.8989V10.5092C20.7477 10.4922 20.8733 10.4085 20.9483 10.288L22.1608 10.8748C22.1507 10.9107 22.1431 10.9474 22.1431 10.9867C22.1431 11.2071 22.3201 11.3865 22.5375 11.3865C22.7549 11.3865 22.9318 11.2071 22.9318 10.9867C22.9318 10.7663 22.7557 10.587 22.5375 10.587C22.3984 10.587 22.2763 10.6604 22.2063 10.7706L20.9954 10.1847C21.0115 10.136 21.0224 10.0839 21.0224 10.0292C21.0224 9.97454 21.0115 9.92329 20.9954 9.87375L22.24 9.27157C22.3066 9.39628 22.4355 9.48169 22.5847 9.48169L22.5838 9.4834Z" fill="#860002"/>
</g>
<defs>
<clipPath id="clip0_174_4252">
<rect width="16" height="16" fill="white" transform="translate(12.5 2)"/>
</clipPath>
</defs>
</svg>
