<svg width="29" height="20" viewBox="0 0 29 20" fill="none" xmlns="http://www.w3.org/2000/svg">
<g clip-path="url(#clip0_174_4279)">
<path d="M14.9251 7.6861L15.424 6.05723L15.3051 6.0094C15.2226 5.97608 13.2542 5.1971 11.5512 6.04185C11.4804 6.07687 11.4088 6.11787 11.3372 6.164C11.3945 5.92398 11.4231 5.70446 11.4214 5.5063C11.4071 3.58445 9.84148 2.14691 9.77491 2.08712L9.67885 2L8.46377 3.17873L7.23015 2.01879L7.13577 2.10677C7.07004 2.16827 5.52465 3.62887 5.53897 5.55072C5.54066 5.74802 5.57184 5.9684 5.6325 6.20756C5.5592 6.16143 5.48673 6.12129 5.41595 6.08798C3.70118 5.26884 1.74458 6.07687 1.662 6.11189L1.54403 6.16144L2.06562 7.78262L0.5 8.40615L0.537076 8.53C0.563198 8.61713 1.19265 10.6611 2.90826 11.4802C3.2529 11.6451 3.7155 11.7399 4.28766 11.7647C3.80904 12.0944 3.46187 12.4249 3.25374 12.7512C2.22319 14.3647 2.75237 16.4386 2.77512 16.5257L2.80798 16.6513L4.46292 16.3429L4.86318 17.9991L4.98957 17.9786C5.07805 17.9641 7.16105 17.6045 8.19075 15.991C8.33569 15.7638 8.45618 15.4726 8.54887 15.1206C8.64746 15.4709 8.77133 15.7604 8.91963 15.9859C9.97377 17.584 12.061 17.912 12.1495 17.9248L12.2767 17.9436L12.6534 16.2814L14.3125 16.565L14.3437 16.4386C14.3656 16.3506 14.8644 14.2699 13.8103 12.6718C13.5971 12.3481 13.2449 12.0226 12.7621 11.7006C13.3334 11.6673 13.7943 11.5648 14.1364 11.3957C15.8394 10.5501 16.4393 8.49669 16.4638 8.41042L16.4992 8.28571L14.9243 7.68524L14.9251 7.6861ZM14.0151 11.1437C13.6216 11.3393 13.0443 11.4384 12.2902 11.4324L11.7627 11.4299L12.2202 11.6955C12.8775 12.0773 13.3351 12.4583 13.5794 12.8298C14.4212 14.1068 14.1886 15.7758 14.1002 16.2447L12.441 15.962L12.0644 17.6242C11.6034 17.5277 9.99231 17.1074 9.15052 15.8305C8.9407 15.5119 8.78228 15.0387 8.68032 14.4262L8.53708 13.5601L8.40647 14.4279C8.31378 15.0421 8.16295 15.517 7.95734 15.839C7.13408 17.1288 5.5297 17.5721 5.06962 17.6763L4.66937 16.0201L3.01443 16.3284C2.91921 15.8621 2.66137 14.1973 3.48546 12.9058C3.72477 12.5309 4.17643 12.1422 4.82863 11.751L5.28197 11.4785L4.75532 11.4888C4.00369 11.505 3.42227 11.4153 3.02623 11.2257C1.6561 10.5706 1.00727 9.01858 0.844639 8.571L2.4111 7.94747L1.88867 6.32543C2.33274 6.16741 3.92448 5.68567 5.29798 6.34166C5.45555 6.41683 5.62492 6.52957 5.80103 6.67734L6.1937 7.00534L6.02012 6.52103C5.88698 6.14948 5.81873 5.82234 5.8162 5.54815C5.80525 4.01239 6.90489 2.74738 7.23183 2.40487L8.46461 3.56566L9.68054 2.38693C10.0134 2.72432 11.1316 3.97309 11.1425 5.50886C11.1442 5.78305 11.081 6.11104 10.9529 6.48431L10.7861 6.97203L11.1737 6.63805C11.3481 6.48772 11.5158 6.37241 11.6717 6.29468C13.0325 5.61905 14.6336 6.07687 15.0802 6.2272L14.5813 7.85608L16.1562 8.45654C16.0003 8.90668 15.3742 10.4689 14.0134 11.1437H14.0151Z" fill="#860002"/>
<path d="M10.5838 9.4834C10.8012 9.4834 10.9782 9.30403 10.9782 9.08366C10.9782 8.86329 10.8012 8.68391 10.5838 8.68391C10.3664 8.68391 10.1895 8.86329 10.1895 9.08366C10.1895 9.1127 10.1928 9.14003 10.1987 9.16737L8.94742 9.77296C8.87242 9.65252 8.74603 9.56967 8.60025 9.55173V8.13384C8.79153 8.10565 8.93815 7.9408 8.93815 7.74008C8.93815 7.5197 8.7612 7.34033 8.5438 7.34033C8.3264 7.34033 8.14944 7.5197 8.14944 7.74008C8.14944 7.94166 8.2969 8.10651 8.48818 8.13384V9.55173C8.34156 9.56967 8.21601 9.65252 8.14102 9.77296L6.78353 9.11612C6.80206 9.06999 6.81218 9.02045 6.81218 8.96749C6.81218 8.74712 6.63522 8.56775 6.41782 8.56775C6.20042 8.56775 6.02347 8.74712 6.02347 8.96749C6.02347 9.18787 6.20042 9.36724 6.41782 9.36724C6.54338 9.36724 6.65376 9.30659 6.72623 9.21434L8.09383 9.87546C8.07782 9.92415 8.06686 9.97625 8.06686 10.0309C8.06686 10.0856 8.07782 10.1368 8.09383 10.1864L6.78774 10.8184C6.71949 10.6989 6.59393 10.6169 6.44731 10.6169C6.22991 10.6169 6.05296 10.7962 6.05296 11.0166C6.05296 11.237 6.22991 11.4164 6.44731 11.4164C6.66471 11.4164 6.84167 11.237 6.84167 11.0166C6.84167 10.9841 6.83661 10.9534 6.82987 10.9235L8.14186 10.2889C8.21685 10.4093 8.34325 10.4922 8.48902 10.5101V11.8972C8.29353 11.9212 8.14102 12.0877 8.14102 12.2919C8.14102 12.5122 8.31797 12.6916 8.53537 12.6916C8.75277 12.6916 8.92972 12.5131 8.92972 12.2919C8.92972 12.0937 8.78732 11.9306 8.6011 11.8989V10.5092C8.74771 10.4922 8.87327 10.4085 8.94826 10.288L10.1608 10.8748C10.1507 10.9107 10.1431 10.9474 10.1431 10.9867C10.1431 11.2071 10.3201 11.3865 10.5375 11.3865C10.7549 11.3865 10.9318 11.2071 10.9318 10.9867C10.9318 10.7663 10.7557 10.587 10.5375 10.587C10.3984 10.587 10.2763 10.6604 10.2063 10.7706L8.99545 10.1847C9.01146 10.136 9.02241 10.0839 9.02241 10.0292C9.02241 9.97454 9.01146 9.92329 8.99545 9.87375L10.24 9.27157C10.3066 9.39628 10.4355 9.48169 10.5847 9.48169L10.5838 9.4834Z" fill="#860002"/>
</g>
<circle cx="26.5" cy="10" r="2" fill="black"/>
<defs>
<clipPath id="clip0_174_4279">
<rect width="16" height="16" fill="white" transform="translate(0.5 2)"/>
</clipPath>
</defs>
</svg>
