<svg width="80" height="76" viewBox="0 0 80 76" fill="none" xmlns="http://www.w3.org/2000/svg">
<mask id="path-1-inside-1_156_8612" fill="white">
<path d="M76.4433 33.0076C77.1673 32.2245 77.6031 31.2124 77.4997 29.8826C77.0638 24.2976 76.133 23.1304 77.3889 20.6113C74.7294 21.5125 73.6951 20.4413 68.2135 19.2667C66.9133 18.986 65.8421 19.2889 64.9778 19.8947C64.4311 17.0431 62.4217 15.4695 58.7279 16.3117C58.4472 16.5112 58.1812 16.7328 57.9079 16.947C56.6151 17.9961 55.4257 19.1928 54.325 20.4635L53.5197 21.4461C53.2464 21.7711 53.0099 22.1257 52.7588 22.4655C52.2416 23.1378 51.791 23.8618 51.3256 24.5784C51.0818 24.933 50.8823 25.3024 50.6681 25.6791L50.0328 26.7946C49.6339 27.5482 49.2645 28.3239 48.8729 29.0922C49.1758 28.2943 49.4713 27.4817 49.789 26.6838L50.3135 25.5018C50.4908 25.1103 50.6533 24.7114 50.8602 24.3272C51.2517 23.5589 51.6359 22.7758 52.0865 22.0371C52.3082 21.6677 52.515 21.2762 52.7588 20.9215L53.4828 19.8282C54.4431 18.4541 55.507 17.1391 56.7037 15.9202C56.6151 14.5461 56.3048 13.1794 55.6843 11.8422C53.8743 7.93423 51.2148 7.31367 48.5553 8.86506C48.4445 7.80864 47.9643 6.81131 46.8931 6.01345C42.4014 2.65951 40.9165 2.59303 39.838 0C38.7668 2.60042 37.2745 2.66689 32.7829 6.01345C31.7117 6.81131 31.2389 7.80864 31.1207 8.86506C28.4611 7.31367 25.8016 7.93423 23.9917 11.8422C23.312 13.3198 22.9943 14.8342 22.9574 16.356C23.9843 17.4494 24.9077 18.6092 25.7573 19.8208L26.4813 20.9142C26.7251 21.2761 26.9245 21.6603 27.1535 22.0297C27.6116 22.7684 27.9883 23.5515 28.3799 24.3198C28.5867 24.6966 28.7492 25.1029 28.9265 25.4944L29.4511 26.6764C29.7687 27.4743 30.0642 28.2869 30.3671 29.0848C29.9756 28.3165 29.6062 27.5482 29.2073 26.7873L28.5719 25.6717C28.3577 25.3024 28.1582 24.9256 27.9145 24.571C27.449 23.8544 26.9984 23.1304 26.4813 22.4581C26.2227 22.1183 25.9937 21.7637 25.7204 21.4387L24.9151 20.4561C23.77 19.1411 22.5363 17.9074 21.1992 16.8288C17.3503 15.8537 15.267 17.4346 14.7055 20.3453C13.8338 19.7322 12.77 19.4366 11.4698 19.7174C5.9882 20.892 4.96133 21.9632 2.30181 21.0619C3.55031 23.5811 2.61948 24.7409 2.191 30.3333C2.08758 31.663 2.52344 32.6751 3.24742 33.4582C0.329337 34.4408 -0.956102 36.8491 0.794747 40.7867C2.34613 44.281 5.41198 46.416 8.86936 47.7088C9.03927 47.7383 9.20919 47.7679 9.3791 47.7901L9.99226 47.8713L10.6054 47.923C11.0191 47.9674 11.4328 47.9747 11.8465 47.9895C13.5087 48.0338 15.1857 47.9083 16.8627 47.6571L18.1112 47.4355C18.5323 47.369 18.9386 47.2508 19.3523 47.1621C20.1871 46.9922 20.9997 46.7336 21.8123 46.4972C22.226 46.3864 22.625 46.2387 23.0239 46.0909L24.2355 45.6624C25.0333 45.3448 25.8164 45.005 26.6142 44.6725C25.8607 45.0788 25.1072 45.5073 24.3463 45.9062L23.179 46.4603C22.7875 46.645 22.4033 46.8371 21.997 46.9922C21.1992 47.3172 20.4013 47.6645 19.5739 47.9304C19.1602 48.0634 18.7539 48.2259 18.3328 48.3441L17.0769 48.6987C15.3852 49.1272 13.6565 49.4523 11.8835 49.5852C11.551 49.6074 11.2186 49.6296 10.8861 49.637C9.65242 50.9519 8.68466 52.4959 8.14537 54.3428C6.93381 58.4798 8.52951 60.6961 11.551 61.2797C10.9379 62.1514 10.6424 63.2153 10.9231 64.5155C12.0977 69.997 13.1689 71.0239 12.2676 73.6908C14.7868 72.4423 15.9466 73.3732 21.539 73.809C22.8688 73.9124 23.8808 73.4766 24.6639 72.7526C25.6465 75.6707 28.0548 76.9561 31.9924 75.2053C35.5089 73.6391 37.6512 70.5511 38.9441 67.0716C38.8554 65.8822 38.8406 64.7001 38.885 63.5181L38.9662 62.2106C38.9884 61.7747 39.0623 61.3462 39.1066 60.9103C39.1879 60.046 39.3578 59.1964 39.5055 58.3395C39.572 57.911 39.6754 57.4899 39.7789 57.0762L40.0744 55.8203C40.3034 54.9929 40.5619 54.1655 40.7984 53.3455C40.6432 54.1877 40.4733 55.0299 40.3329 55.872L40.1704 57.1427C40.1187 57.5638 40.0522 57.9849 40.03 58.4134C39.9709 59.2629 39.8897 60.1125 39.8971 60.9621C39.8971 61.3831 39.8675 61.8116 39.8971 62.2327L39.9488 63.5034C39.9709 63.8358 40.03 64.1535 40.1113 64.4711C41.2711 68.7855 43.517 72.856 47.7352 74.7325C51.6728 76.4833 54.0812 75.1979 55.0637 72.2798C55.8468 73.0038 56.8589 73.4396 58.1886 73.3362C63.7736 72.9003 64.9409 71.9695 67.46 73.218C66.5587 70.5585 67.6299 69.5242 68.8045 64.05C69.0853 62.7498 68.7824 61.6787 68.1766 60.8143C71.1981 60.2307 72.7938 58.0144 71.5823 53.8774C71.1095 52.2595 70.2968 50.8633 69.27 49.6591H68.6864C68.2431 49.6591 67.7998 49.6148 67.3566 49.5852C65.591 49.4523 63.8549 49.1346 62.1631 48.6987L60.9073 48.3441C60.4862 48.2333 60.0798 48.0708 59.6661 47.9304C58.8387 47.6645 58.0409 47.3246 57.243 46.9922C56.8367 46.8371 56.4525 46.645 56.061 46.4603L54.8938 45.9062C54.1329 45.5073 53.3793 45.0862 52.6258 44.6725C53.4237 45.005 54.2067 45.3448 55.0046 45.6624L56.2162 46.0909C56.6151 46.2313 57.0214 46.3864 57.4277 46.4972C58.2477 46.7336 59.0604 46.9922 59.8878 47.1621C60.3015 47.2508 60.7078 47.369 61.1289 47.4355L62.3774 47.6571C64.047 47.9009 65.7239 48.0338 67.3935 47.9895C67.8072 47.9674 68.2209 47.9674 68.6346 47.923L68.7972 47.9083C73.0598 46.7337 77.0712 44.4952 78.9255 40.3212C80.6763 36.3837 79.3909 33.9753 76.4728 32.9928L76.4433 33.0076ZM50.9045 31.301C51.466 31.301 51.924 31.7591 51.924 32.3205C51.924 32.882 51.466 33.34 50.9045 33.34C50.3431 33.34 49.885 32.882 49.885 32.3205C49.885 31.7591 50.3431 31.301 50.9045 31.301ZM51.4512 47.4946C51.4512 48.056 50.9932 48.514 50.4317 48.514C49.8702 48.514 49.4122 48.056 49.4122 47.4946C49.4122 46.9331 49.8702 46.4751 50.4317 46.4751C50.9932 46.4751 51.4512 46.9331 51.4512 47.4946ZM44.8615 25.5831C45.423 25.5831 45.881 26.0411 45.881 26.6026C45.881 27.164 45.423 27.622 44.8615 27.622C44.3 27.622 43.842 27.164 43.842 26.6026C43.842 26.0411 44.3 25.5831 44.8615 25.5831ZM39.5499 11.4285C39.6016 9.95842 39.6754 8.4809 39.8232 7.01078C39.9709 8.4809 40.0448 9.95842 40.0965 11.4285C40.1556 12.8987 40.1704 14.3762 40.1778 15.8463C40.1778 17.3164 40.1556 18.7939 40.1039 20.264C40.0522 21.7342 39.9709 23.2117 39.8232 24.6818C39.6754 23.2117 39.6016 21.7342 39.5425 20.264C39.4834 18.7939 39.4686 17.3164 39.4612 15.8463C39.4612 14.3762 39.4834 12.8987 39.5425 11.4285H39.5499ZM35.1543 25.1989C35.7157 25.1989 36.1737 25.657 36.1737 26.2184C36.1737 26.7799 35.7157 27.2379 35.1543 27.2379C34.5928 27.2379 34.1348 26.7799 34.1348 26.2184C34.1348 25.657 34.5928 25.1989 35.1543 25.1989ZM27.4786 31.4783C28.0401 31.4783 28.4981 31.9364 28.4981 32.4978C28.4981 33.0593 28.0401 33.5173 27.4786 33.5173C26.9171 33.5173 26.4591 33.0593 26.4591 32.4978C26.4591 31.9364 26.9171 31.4783 27.4786 31.4783ZM22.2186 34.6993C20.4826 33.6946 18.776 32.653 17.0695 31.5965C15.3704 30.5327 13.6713 29.4689 12.0017 28.3608C10.3247 27.2674 8.66988 26.1298 7.03724 24.9625C8.81025 25.9008 10.5685 26.8759 12.2972 27.8954C14.0332 28.9001 15.7398 29.9417 17.4537 30.9982C19.1528 32.062 20.8519 33.1258 22.5215 34.2339C24.1985 35.3273 25.8533 36.4649 27.486 37.6396C25.713 36.7013 23.9547 35.7262 22.226 34.7067L22.2186 34.6993ZM25.6539 40.9344C25.6539 40.373 26.1119 39.9149 26.6733 39.9149C27.2348 39.9149 27.6928 40.373 27.6928 40.9344C27.6928 41.4959 27.2348 41.9539 26.6733 41.9539C26.1119 41.9539 25.6539 41.4959 25.6539 40.9344ZM27.257 54.5866C26.1414 56.2562 24.9964 57.8962 23.8365 59.5363C22.6693 61.1689 21.4947 62.7942 20.2905 64.3899C19.0937 65.993 17.8526 67.5739 16.582 69.1327C17.631 67.4188 18.7169 65.7344 19.8399 64.0722C20.9554 62.4026 22.1004 60.7626 23.2603 59.1226C24.4275 57.4899 25.6022 55.8647 26.8063 54.2689C28.0031 52.6585 29.2442 51.0849 30.5149 49.5261C29.4658 51.2401 28.3799 52.9244 27.257 54.5866ZM29.8278 47.4946C29.2664 47.4946 28.8083 47.0365 28.8083 46.4751C28.8083 45.9136 29.2664 45.4556 29.8278 45.4556C30.3893 45.4556 30.8473 45.9136 30.8473 46.4751C30.8473 47.0365 30.3893 47.4946 29.8278 47.4946ZM36.713 53.1312C36.1516 53.1312 35.6936 52.6732 35.6936 52.1118C35.6936 51.5503 36.1516 51.0923 36.713 51.0923C37.2745 51.0923 37.7325 51.5503 37.7325 52.1118C37.7325 52.6732 37.2745 53.1312 36.713 53.1312ZM45.4156 52.1118C44.8541 52.1118 44.3961 51.6538 44.3961 51.0923C44.3961 50.5308 44.8541 50.0728 45.4156 50.0728C45.977 50.0728 46.435 50.5308 46.435 51.0923C46.435 51.6538 45.977 52.1118 45.4156 52.1118ZM40.0226 49.1937C34.2013 49.1937 29.4806 44.4731 29.4806 38.6517C29.4806 32.8303 34.2013 28.1096 40.0226 28.1096C45.844 28.1096 50.5647 32.8303 50.5647 38.6517C50.5647 44.4731 45.844 49.1937 40.0226 49.1937ZM56.3122 59.3146C57.605 60.8513 58.8831 62.3879 60.139 63.954C61.3948 65.5128 62.6212 67.1011 63.8106 68.719C62.4143 67.2784 61.0476 65.8083 59.7179 64.3086C58.3807 62.8163 57.0731 61.2945 55.7729 59.7727C54.4801 58.2361 53.202 56.6995 51.9462 55.1333C50.6903 53.5745 49.4639 51.9862 48.2745 50.3609C49.6782 51.8015 51.0375 53.2716 52.3672 54.7713C53.7044 56.2636 55.012 57.7854 56.3122 59.3073V59.3146ZM52.9509 41.4368C52.3894 41.4368 51.9314 40.9787 51.9314 40.4173C51.9314 39.8558 52.3894 39.3978 52.9509 39.3978C53.5123 39.3978 53.9703 39.8558 53.9703 40.4173C53.9703 40.9787 53.5123 41.4368 52.9509 41.4368ZM68.9966 27.8289C67.2679 28.8484 65.5245 29.8309 63.7736 30.8061C62.0154 31.7738 60.2572 32.7268 58.4768 33.6503C56.7037 34.5811 54.9012 35.4676 53.0838 36.3172C54.7682 35.2238 56.4821 34.1748 58.2108 33.1627C59.9395 32.1432 61.6829 31.1607 63.4338 30.1855C65.192 29.2251 66.9503 28.2648 68.7307 27.3487C70.5111 26.4179 72.3062 25.5314 74.1236 24.6818C72.4392 25.7752 70.7253 26.8242 68.9966 27.8289Z"/>
</mask>
<path d="M76.4433 33.0076C77.1673 32.2245 77.6031 31.2124 77.4997 29.8826C77.0638 24.2976 76.133 23.1304 77.3889 20.6113C74.7294 21.5125 73.6951 20.4413 68.2135 19.2667C66.9133 18.986 65.8421 19.2889 64.9778 19.8947C64.4311 17.0431 62.4217 15.4695 58.7279 16.3117C58.4472 16.5112 58.1812 16.7328 57.9079 16.947C56.6151 17.9961 55.4257 19.1928 54.325 20.4635L53.5197 21.4461C53.2464 21.7711 53.0099 22.1257 52.7588 22.4655C52.2416 23.1378 51.791 23.8618 51.3256 24.5784C51.0818 24.933 50.8823 25.3024 50.6681 25.6791L50.0328 26.7946C49.6339 27.5482 49.2645 28.3239 48.8729 29.0922C49.1758 28.2943 49.4713 27.4817 49.789 26.6838L50.3135 25.5018C50.4908 25.1103 50.6533 24.7114 50.8602 24.3272C51.2517 23.5589 51.6359 22.7758 52.0865 22.0371C52.3082 21.6677 52.515 21.2762 52.7588 20.9215L53.4828 19.8282C54.4431 18.4541 55.507 17.1391 56.7037 15.9202C56.6151 14.5461 56.3048 13.1794 55.6843 11.8422C53.8743 7.93423 51.2148 7.31367 48.5553 8.86506C48.4445 7.80864 47.9643 6.81131 46.8931 6.01345C42.4014 2.65951 40.9165 2.59303 39.838 0C38.7668 2.60042 37.2745 2.66689 32.7829 6.01345C31.7117 6.81131 31.2389 7.80864 31.1207 8.86506C28.4611 7.31367 25.8016 7.93423 23.9917 11.8422C23.312 13.3198 22.9943 14.8342 22.9574 16.356C23.9843 17.4494 24.9077 18.6092 25.7573 19.8208L26.4813 20.9142C26.7251 21.2761 26.9245 21.6603 27.1535 22.0297C27.6116 22.7684 27.9883 23.5515 28.3799 24.3198C28.5867 24.6966 28.7492 25.1029 28.9265 25.4944L29.4511 26.6764C29.7687 27.4743 30.0642 28.2869 30.3671 29.0848C29.9756 28.3165 29.6062 27.5482 29.2073 26.7873L28.5719 25.6717C28.3577 25.3024 28.1582 24.9256 27.9145 24.571C27.449 23.8544 26.9984 23.1304 26.4813 22.4581C26.2227 22.1183 25.9937 21.7637 25.7204 21.4387L24.9151 20.4561C23.77 19.1411 22.5363 17.9074 21.1992 16.8288C17.3503 15.8537 15.267 17.4346 14.7055 20.3453C13.8338 19.7322 12.77 19.4366 11.4698 19.7174C5.9882 20.892 4.96133 21.9632 2.30181 21.0619C3.55031 23.5811 2.61948 24.7409 2.191 30.3333C2.08758 31.663 2.52344 32.6751 3.24742 33.4582C0.329337 34.4408 -0.956102 36.8491 0.794747 40.7867C2.34613 44.281 5.41198 46.416 8.86936 47.7088C9.03927 47.7383 9.20919 47.7679 9.3791 47.7901L9.99226 47.8713L10.6054 47.923C11.0191 47.9674 11.4328 47.9747 11.8465 47.9895C13.5087 48.0338 15.1857 47.9083 16.8627 47.6571L18.1112 47.4355C18.5323 47.369 18.9386 47.2508 19.3523 47.1621C20.1871 46.9922 20.9997 46.7336 21.8123 46.4972C22.226 46.3864 22.625 46.2387 23.0239 46.0909L24.2355 45.6624C25.0333 45.3448 25.8164 45.005 26.6142 44.6725C25.8607 45.0788 25.1072 45.5073 24.3463 45.9062L23.179 46.4603C22.7875 46.645 22.4033 46.8371 21.997 46.9922C21.1992 47.3172 20.4013 47.6645 19.5739 47.9304C19.1602 48.0634 18.7539 48.2259 18.3328 48.3441L17.0769 48.6987C15.3852 49.1272 13.6565 49.4523 11.8835 49.5852C11.551 49.6074 11.2186 49.6296 10.8861 49.637C9.65242 50.9519 8.68466 52.4959 8.14537 54.3428C6.93381 58.4798 8.52951 60.6961 11.551 61.2797C10.9379 62.1514 10.6424 63.2153 10.9231 64.5155C12.0977 69.997 13.1689 71.0239 12.2676 73.6908C14.7868 72.4423 15.9466 73.3732 21.539 73.809C22.8688 73.9124 23.8808 73.4766 24.6639 72.7526C25.6465 75.6707 28.0548 76.9561 31.9924 75.2053C35.5089 73.6391 37.6512 70.5511 38.9441 67.0716C38.8554 65.8822 38.8406 64.7001 38.885 63.5181L38.9662 62.2106C38.9884 61.7747 39.0623 61.3462 39.1066 60.9103C39.1879 60.046 39.3578 59.1964 39.5055 58.3395C39.572 57.911 39.6754 57.4899 39.7789 57.0762L40.0744 55.8203C40.3034 54.9929 40.5619 54.1655 40.7984 53.3455C40.6432 54.1877 40.4733 55.0299 40.3329 55.872L40.1704 57.1427C40.1187 57.5638 40.0522 57.9849 40.03 58.4134C39.9709 59.2629 39.8897 60.1125 39.8971 60.9621C39.8971 61.3831 39.8675 61.8116 39.8971 62.2327L39.9488 63.5034C39.9709 63.8358 40.03 64.1535 40.1113 64.4711C41.2711 68.7855 43.517 72.856 47.7352 74.7325C51.6728 76.4833 54.0812 75.1979 55.0637 72.2798C55.8468 73.0038 56.8589 73.4396 58.1886 73.3362C63.7736 72.9003 64.9409 71.9695 67.46 73.218C66.5587 70.5585 67.6299 69.5242 68.8045 64.05C69.0853 62.7498 68.7824 61.6787 68.1766 60.8143C71.1981 60.2307 72.7938 58.0144 71.5823 53.8774C71.1095 52.2595 70.2968 50.8633 69.27 49.6591H68.6864C68.2431 49.6591 67.7998 49.6148 67.3566 49.5852C65.591 49.4523 63.8549 49.1346 62.1631 48.6987L60.9073 48.3441C60.4862 48.2333 60.0798 48.0708 59.6661 47.9304C58.8387 47.6645 58.0409 47.3246 57.243 46.9922C56.8367 46.8371 56.4525 46.645 56.061 46.4603L54.8938 45.9062C54.1329 45.5073 53.3793 45.0862 52.6258 44.6725C53.4237 45.005 54.2067 45.3448 55.0046 45.6624L56.2162 46.0909C56.6151 46.2313 57.0214 46.3864 57.4277 46.4972C58.2477 46.7336 59.0604 46.9922 59.8878 47.1621C60.3015 47.2508 60.7078 47.369 61.1289 47.4355L62.3774 47.6571C64.047 47.9009 65.7239 48.0338 67.3935 47.9895C67.8072 47.9674 68.2209 47.9674 68.6346 47.923L68.7972 47.9083C73.0598 46.7337 77.0712 44.4952 78.9255 40.3212C80.6763 36.3837 79.3909 33.9753 76.4728 32.9928L76.4433 33.0076ZM50.9045 31.301C51.466 31.301 51.924 31.7591 51.924 32.3205C51.924 32.882 51.466 33.34 50.9045 33.34C50.3431 33.34 49.885 32.882 49.885 32.3205C49.885 31.7591 50.3431 31.301 50.9045 31.301ZM51.4512 47.4946C51.4512 48.056 50.9932 48.514 50.4317 48.514C49.8702 48.514 49.4122 48.056 49.4122 47.4946C49.4122 46.9331 49.8702 46.4751 50.4317 46.4751C50.9932 46.4751 51.4512 46.9331 51.4512 47.4946ZM44.8615 25.5831C45.423 25.5831 45.881 26.0411 45.881 26.6026C45.881 27.164 45.423 27.622 44.8615 27.622C44.3 27.622 43.842 27.164 43.842 26.6026C43.842 26.0411 44.3 25.5831 44.8615 25.5831ZM39.5499 11.4285C39.6016 9.95842 39.6754 8.4809 39.8232 7.01078C39.9709 8.4809 40.0448 9.95842 40.0965 11.4285C40.1556 12.8987 40.1704 14.3762 40.1778 15.8463C40.1778 17.3164 40.1556 18.7939 40.1039 20.264C40.0522 21.7342 39.9709 23.2117 39.8232 24.6818C39.6754 23.2117 39.6016 21.7342 39.5425 20.264C39.4834 18.7939 39.4686 17.3164 39.4612 15.8463C39.4612 14.3762 39.4834 12.8987 39.5425 11.4285H39.5499ZM35.1543 25.1989C35.7157 25.1989 36.1737 25.657 36.1737 26.2184C36.1737 26.7799 35.7157 27.2379 35.1543 27.2379C34.5928 27.2379 34.1348 26.7799 34.1348 26.2184C34.1348 25.657 34.5928 25.1989 35.1543 25.1989ZM27.4786 31.4783C28.0401 31.4783 28.4981 31.9364 28.4981 32.4978C28.4981 33.0593 28.0401 33.5173 27.4786 33.5173C26.9171 33.5173 26.4591 33.0593 26.4591 32.4978C26.4591 31.9364 26.9171 31.4783 27.4786 31.4783ZM22.2186 34.6993C20.4826 33.6946 18.776 32.653 17.0695 31.5965C15.3704 30.5327 13.6713 29.4689 12.0017 28.3608C10.3247 27.2674 8.66988 26.1298 7.03724 24.9625C8.81025 25.9008 10.5685 26.8759 12.2972 27.8954C14.0332 28.9001 15.7398 29.9417 17.4537 30.9982C19.1528 32.062 20.8519 33.1258 22.5215 34.2339C24.1985 35.3273 25.8533 36.4649 27.486 37.6396C25.713 36.7013 23.9547 35.7262 22.226 34.7067L22.2186 34.6993ZM25.6539 40.9344C25.6539 40.373 26.1119 39.9149 26.6733 39.9149C27.2348 39.9149 27.6928 40.373 27.6928 40.9344C27.6928 41.4959 27.2348 41.9539 26.6733 41.9539C26.1119 41.9539 25.6539 41.4959 25.6539 40.9344ZM27.257 54.5866C26.1414 56.2562 24.9964 57.8962 23.8365 59.5363C22.6693 61.1689 21.4947 62.7942 20.2905 64.3899C19.0937 65.993 17.8526 67.5739 16.582 69.1327C17.631 67.4188 18.7169 65.7344 19.8399 64.0722C20.9554 62.4026 22.1004 60.7626 23.2603 59.1226C24.4275 57.4899 25.6022 55.8647 26.8063 54.2689C28.0031 52.6585 29.2442 51.0849 30.5149 49.5261C29.4658 51.2401 28.3799 52.9244 27.257 54.5866ZM29.8278 47.4946C29.2664 47.4946 28.8083 47.0365 28.8083 46.4751C28.8083 45.9136 29.2664 45.4556 29.8278 45.4556C30.3893 45.4556 30.8473 45.9136 30.8473 46.4751C30.8473 47.0365 30.3893 47.4946 29.8278 47.4946ZM36.713 53.1312C36.1516 53.1312 35.6936 52.6732 35.6936 52.1118C35.6936 51.5503 36.1516 51.0923 36.713 51.0923C37.2745 51.0923 37.7325 51.5503 37.7325 52.1118C37.7325 52.6732 37.2745 53.1312 36.713 53.1312ZM45.4156 52.1118C44.8541 52.1118 44.3961 51.6538 44.3961 51.0923C44.3961 50.5308 44.8541 50.0728 45.4156 50.0728C45.977 50.0728 46.435 50.5308 46.435 51.0923C46.435 51.6538 45.977 52.1118 45.4156 52.1118ZM40.0226 49.1937C34.2013 49.1937 29.4806 44.4731 29.4806 38.6517C29.4806 32.8303 34.2013 28.1096 40.0226 28.1096C45.844 28.1096 50.5647 32.8303 50.5647 38.6517C50.5647 44.4731 45.844 49.1937 40.0226 49.1937ZM56.3122 59.3146C57.605 60.8513 58.8831 62.3879 60.139 63.954C61.3948 65.5128 62.6212 67.1011 63.8106 68.719C62.4143 67.2784 61.0476 65.8083 59.7179 64.3086C58.3807 62.8163 57.0731 61.2945 55.7729 59.7727C54.4801 58.2361 53.202 56.6995 51.9462 55.1333C50.6903 53.5745 49.4639 51.9862 48.2745 50.3609C49.6782 51.8015 51.0375 53.2716 52.3672 54.7713C53.7044 56.2636 55.012 57.7854 56.3122 59.3073V59.3146ZM52.9509 41.4368C52.3894 41.4368 51.9314 40.9787 51.9314 40.4173C51.9314 39.8558 52.3894 39.3978 52.9509 39.3978C53.5123 39.3978 53.9703 39.8558 53.9703 40.4173C53.9703 40.9787 53.5123 41.4368 52.9509 41.4368ZM68.9966 27.8289C67.2679 28.8484 65.5245 29.8309 63.7736 30.8061C62.0154 31.7738 60.2572 32.7268 58.4768 33.6503C56.7037 34.5811 54.9012 35.4676 53.0838 36.3172C54.7682 35.2238 56.4821 34.1748 58.2108 33.1627C59.9395 32.1432 61.6829 31.1607 63.4338 30.1855C65.192 29.2251 66.9503 28.2648 68.7307 27.3487C70.5111 26.4179 72.3062 25.5314 74.1236 24.6818C72.4392 25.7752 70.7253 26.8242 68.9966 27.8289Z" stroke="url(#paint0_linear_156_8612)" stroke-width="2" mask="url(#path-1-inside-1_156_8612)"/>
<defs>
<linearGradient id="paint0_linear_156_8612" x1="12.0912" y1="30.21" x2="68.039" y2="30.1547" gradientUnits="userSpaceOnUse">
<stop offset="0.00961536" stop-color="#EFE5B8"/>
<stop offset="0.504808" stop-color="#F2E8C3"/>
<stop offset="1" stop-color="#F4D297"/>
</linearGradient>
</defs>
</svg>
