<svg width="341" height="131" viewBox="0 0 341 131" fill="none" xmlns="http://www.w3.org/2000/svg">
<g clip-path="url(#clip0_118_44968)">
<path d="M70.4497 65.3924C39.0422 65.3924 11.4128 86.6175 -4.37546 118.547C-5.5734 118.255 -6.7867 117.964 -8 117.733C8.24899 83.7302 37.3374 61.0154 70.4497 61C103.562 61 132.65 83.7148 148.884 117.718C147.671 117.948 146.458 118.24 145.26 118.532C129.487 86.6175 101.857 65.3924 70.4497 65.3924Z" fill="#C49E44" fill-opacity="0.3"/>
<path d="M70.4498 82.8882C45.7385 82.8882 23.8223 98.5843 10.3071 122.635C9.20128 122.098 8.08013 121.622 6.95898 121.146C21.0425 95.3745 44.2334 78.4958 70.4498 78.4958C96.6663 78.4958 119.857 95.3745 133.925 121.13C132.804 121.606 131.683 122.098 130.577 122.62C117.062 98.569 95.1612 82.8729 70.4498 82.8729V82.8882Z" fill="#C49E44" fill-opacity="0.3"/>
<path d="M70.4496 97.1714C90.6456 97.1714 108.645 109.489 120.226 128.594C119.212 129.285 118.198 129.992 117.2 130.729C106.234 112.975 89.3555 101.579 70.4496 101.579C51.5436 101.579 34.6649 112.99 23.6992 130.744C22.7009 130.007 21.6872 129.301 20.6736 128.61C32.2537 109.504 50.2689 97.1867 70.4496 97.1867V97.1714Z" fill="#C49E44" fill-opacity="0.3"/>
<path d="M160.484 16.2207C129.153 14.0298 100.11 33.2758 82.1334 64.0264C80.9587 63.6518 79.7687 63.2761 78.5745 62.9616C97.1569 30.1595 127.759 9.52916 160.791 11.839C193.822 14.1488 221.255 38.8373 235.078 73.89C233.851 74.0351 232.62 74.2416 231.405 74.4491C217.897 41.5123 191.815 18.4116 160.484 16.2207Z" fill="#C49E44" fill-opacity="0.3"/>
<path d="M159.182 34.8508C134.53 33.127 111.573 47.2561 96.4127 70.3057C95.3471 69.6923 94.2618 69.1392 93.1766 68.586C109.024 43.8601 133.335 28.6403 159.488 30.4691C185.625 32.2968 207.598 50.7531 219.835 77.4274C218.683 77.8242 217.53 78.2362 216.391 78.68C204.586 53.7448 183.834 36.5593 159.183 34.8355L159.182 34.8508Z" fill="#C49E44" fill-opacity="0.3"/>
<path d="M158.184 49.1145C178.331 50.5233 195.428 64.0662 205.647 83.933C204.587 84.5518 203.527 85.1858 202.48 85.8516C192.779 67.3758 176.736 54.8304 157.876 53.5115C139.017 52.1927 121.383 62.3987 109.205 79.3446C108.261 78.5396 107.299 77.7641 106.336 77.004C119.221 58.7527 138.051 47.7221 158.183 49.1298L158.184 49.1145Z" fill="#C49E44" fill-opacity="0.3"/>
<path d="M-4.34884 12.4788C-35.7564 12.4788 -63.3858 33.7039 -79.174 65.6336C-80.372 65.3418 -81.5853 65.05 -82.7986 64.8196C-66.5496 30.8165 -37.4611 8.10172 -4.34884 8.08636C28.7635 8.08636 57.8519 30.8012 74.0856 64.8042C72.8723 65.0346 71.659 65.3264 70.461 65.6182C54.6881 33.7039 27.0587 12.4788 -4.34884 12.4788Z" fill="#C49E44" fill-opacity="0.3"/>
<path d="M-4.34876 31.1544C-29.0601 31.1544 -50.9763 46.8505 -64.4915 70.9015C-65.5973 70.3639 -66.7185 69.8878 -67.8396 69.4117C-53.7561 43.6406 -30.5652 26.762 -4.34876 26.762C21.8523 26.762 45.0586 43.6406 59.1267 69.3964C58.0056 69.8725 56.8844 70.3639 55.7787 70.8861C42.2634 46.8351 20.3626 31.1391 -4.34876 31.1391V31.1544Z" fill="#C49E44" fill-opacity="0.3"/>
<path d="M-4.34855 45.4376C15.8475 45.4376 33.8473 57.7549 45.4274 76.8605C44.4138 77.5516 43.4001 78.2581 42.4019 78.9953C31.4361 61.2412 14.5574 49.8454 -4.34855 49.8454C-23.2545 49.8454 -40.1332 61.2565 -51.0989 79.0106C-52.0972 78.2734 -53.1109 77.5669 -54.1245 76.8758C-42.5444 57.7702 -24.5292 45.4529 -4.34855 45.4529V45.4376Z" fill="#C49E44" fill-opacity="0.3"/>
<path d="M199.008 85.5662C167.6 85.5662 139.971 106.791 124.182 138.721C122.984 138.429 121.771 138.137 120.558 137.907C136.807 103.888 165.895 81.1737 199.008 81.1737C232.12 81.1737 261.208 103.889 277.442 137.892C276.229 138.122 275.015 138.414 273.817 138.706C258.045 106.791 230.415 85.5662 199.008 85.5662Z" fill="#C49E44" fill-opacity="0.3"/>
<path d="M199.007 104.242C174.296 104.242 152.38 119.938 138.865 143.989C137.759 143.451 136.638 142.975 135.517 142.499C149.6 116.728 172.791 99.8493 199.007 99.8493C225.209 99.8493 248.415 116.728 262.483 142.484C261.362 142.96 260.241 143.451 259.135 143.973C245.62 119.922 223.719 104.226 199.007 104.226V104.242Z" fill="#C49E44" fill-opacity="0.3"/>
<path d="M199.007 118.54C219.203 118.54 237.203 130.858 248.783 149.963C247.77 150.654 246.756 151.361 245.758 152.098C234.792 134.344 217.913 122.948 199.007 122.948C180.101 122.948 163.223 134.359 152.257 152.113C151.259 151.376 150.245 150.67 149.231 149.978C160.812 130.873 178.827 118.556 199.007 118.556V118.54Z" fill="#C49E44" fill-opacity="0.3"/>
<g clip-path="url(#clip1_118_44968)">
<path d="M-23.5357 105.909C-51.6133 105.909 -76.3134 124.884 -90.4277 153.428C-91.4986 153.167 -92.5833 152.906 -93.668 152.7C-79.1418 122.302 -53.1374 101.996 -23.5357 101.982C6.06589 101.982 32.0703 122.289 46.5828 152.687C45.4981 152.893 44.4135 153.153 43.3425 153.414C29.2419 124.884 4.54188 105.909 -23.5357 105.909Z" fill="#C49E44" fill-opacity="0.3"/>
<path d="M-23.5358 122.604C-45.6272 122.604 -65.2198 136.636 -77.3021 158.137C-78.2906 157.657 -79.2929 157.231 -80.2952 156.806C-67.7049 133.767 -46.9727 118.678 -23.5358 118.678C-0.112663 118.678 20.6332 133.767 33.2098 156.792C32.2075 157.218 31.2052 157.657 30.2167 158.124C18.1344 136.623 -1.44447 122.591 -23.5358 122.591V122.604Z" fill="#C49E44" fill-opacity="0.3"/>
</g>
</g>
<defs>
<clipPath id="clip0_118_44968">
<rect width="349" height="130.729" fill="white" transform="translate(-8)"/>
</clipPath>
<clipPath id="clip1_118_44968">
<rect width="311.998" height="116.869" fill="white" transform="translate(-265.415 48.518)"/>
</clipPath>
</defs>
</svg>
