<svg width="801" height="249" viewBox="0 0 801 249" fill="none" xmlns="http://www.w3.org/2000/svg">
<g opacity="0.3" clip-path="url(#clip0_118_44989)">
<path d="M871.526 158.997C800.652 166.167 741.754 106.273 673.699 94.5901C657.305 91.768 640.56 91.7868 624.487 96.2558C607.585 100.953 592.501 110.844 576.832 118.921C548.289 133.622 517.134 139.261 485.728 139.674C421.446 140.526 357.851 122.352 293.511 125.388C264.345 126.761 234.742 132.434 208.738 147.548C196.92 154.414 185.894 163.278 176.951 174.346C172.525 179.822 168.627 185.881 165.441 192.358C163.875 195.539 162.492 198.842 161.312 202.241C159.932 206.204 159.289 211.574 156.013 214.114C152.589 216.796 147.25 215.569 143.302 215.223C138.524 214.797 133.756 214.216 129.003 213.568C119.836 212.339 110.671 210.824 101.502 209.573C84.3116 207.197 66.8342 205.567 49.6441 208.19C37.1979 210.074 22.9078 214.167 15.3286 226.316C9.26658 236.057 10.6712 249.953 19.1519 257.743C22.8814 261.164 27.2901 262.274 31.903 261.015C34.3156 260.356 33.0155 256.232 30.6029 256.89C24.3499 258.605 19.119 253.165 16.8092 247.034C14.1689 240.021 15.388 232.875 19.662 227.166C29.2236 214.386 47.1075 212.182 61.0572 211.414C78.6468 210.461 96.2282 213.12 113.67 215.744C122.291 217.03 130.913 218.337 139.549 219.225C145.516 219.84 153.638 221.928 158.78 217.53C163.437 213.537 164.327 204.914 166.717 199.214C169.567 192.406 173.215 186.099 177.505 180.345C186.086 168.816 196.956 159.675 208.718 152.527C234.379 136.95 264.038 131.251 293.062 129.799C354.791 126.751 415.849 143.301 477.504 144.067C507.035 144.433 536.849 140.883 564.554 129.405C579.842 123.07 593.885 113.796 608.914 106.794C624.555 99.5109 641.019 96.2725 658.039 97.1833C725.843 100.822 781.276 157.146 848.601 163.457C856.342 164.181 864.076 164.157 871.782 163.386C874.26 163.142 874.005 158.775 871.509 159.043L871.526 158.997Z" fill="url(#paint0_linear_118_44989)"/>
<path d="M22.2526 258.033C24.0264 260.013 26.6546 260.596 29.026 260.844C31.4757 261.086 34.0975 260.943 36.3847 259.852C40.8837 257.719 44.1959 253.26 45.6788 248.124C47.0833 243.301 46.4103 237.287 43.3908 233.293C40.328 229.235 35.3847 227.74 30.9737 229.714C28.6251 230.764 26.7269 232.734 25.6523 235.312C24.6295 237.777 23.6455 242.419 26.3945 243.986C26.1433 243.738 25.8711 243.468 25.6199 243.22C26.3692 244.208 26.8979 245.121 27.903 245.807C28.601 246.292 29.7315 245.538 29.5535 244.58C29.4561 243.969 29.1621 243.041 29.2617 242.44C29.1064 242.78 28.9512 243.12 28.8154 243.459C29.5327 242.379 29.5725 241.452 29.452 240.16C29.3731 239.218 29.3429 238.427 29.5224 237.535C29.8182 235.997 30.5749 234.606 31.7794 233.781C34.4486 231.895 38.3923 232.792 40.3904 235.529C42.6452 238.603 42.7244 242.98 41.7342 246.588C40.73 250.285 38.2834 253.522 35.3223 255.448C33.4176 256.691 31.3791 257.678 29.1804 257.993C26.9049 258.334 24.6468 257.706 22.3814 257.584C22.165 257.576 22.1256 257.886 22.2526 258.033Z" fill="url(#paint1_linear_118_44989)"/>
<path d="M42.4317 255.177C43.6903 239.924 57.9003 230.816 70.5938 230.678C86.9357 230.486 101.859 241.439 116.074 249.265C144.318 264.753 174.572 277.538 206.176 278.412C237.014 279.268 264.264 265.55 290.37 248.932C303.395 240.647 316.087 231.744 329.382 224.014C343.719 215.669 358.878 209.165 374.575 204.654C406.431 195.491 439.321 195.58 471.692 202.704C502.769 209.535 532.911 221.49 564.235 226.962C578.945 229.538 593.938 230.686 608.721 228.809C624.146 226.847 638.443 220.992 652.537 214.093C666.459 207.271 680.127 200.156 695.023 196.334C707.119 193.238 719.341 191.544 731.797 191.685C781.933 192.23 832.67 219.163 863.14 264.703C866.824 270.219 870.172 275.999 873.238 281.972C874.626 284.681 878.149 282.015 876.782 279.326C851.556 229.756 804.177 196.6 754.288 189.059C729.254 185.283 703.738 187.88 680.242 197.925C664.471 204.687 649.663 213.966 633.657 220.126C618.4 225.997 602.355 228.108 586.182 227.232C553.402 225.463 521.802 212.807 490.27 203.406C458.558 193.973 426.505 189.405 394.007 194.908C377.864 197.642 362.045 202.403 346.992 209.34C332.759 215.896 319.456 224.441 306.355 233.392C279.117 251.997 251.993 272.401 219.175 275.633C185.245 278.98 151.363 265.939 121.051 249.414C107.247 241.893 93.6293 231.716 78.308 228.783C66.862 226.596 53.9987 229.652 46.4669 240.058C43.3238 244.396 41.6021 249.481 41.4471 255.129C41.4271 255.747 42.374 255.819 42.4149 255.222L42.4317 255.177Z" fill="url(#paint2_linear_118_44989)"/>
<path d="M43.3835 237.235C53.0988 218.786 75.0943 217.027 92.0821 221.485C113.761 227.168 132.335 242.802 152.862 252.015C172.781 260.936 194.492 266.198 215.856 263.774C237.495 261.333 256.179 249.697 273.592 235.96C291.865 221.531 309.584 206.409 329.552 194.89C350.336 182.924 372.654 175.683 396.185 174.621C444.403 172.445 490.535 192.026 536.772 204.862C559.432 211.166 582.476 215.772 605.804 215.845C629.131 215.897 652.447 211.72 674.54 203.723C680.088 201.723 685.539 199.42 690.918 196.923C692.481 196.186 691.617 193.377 690.033 194.094C667.772 204.105 644.144 210.195 620.078 211.798C595.854 213.41 571.801 210.233 548.054 204.438C501.497 193.076 456.094 173.229 408.094 171.691C384.999 170.942 362.398 175.25 341.194 185.217C320.543 194.929 301.803 208.793 283.717 223.387C265.687 237.933 247.293 253.251 225.051 258.571C202.865 263.865 179.713 260.037 158.373 251.624C137.437 243.384 118.992 228.557 97.8327 221.145C82.516 215.789 61.0234 213.684 48.0428 226.107C45.1537 228.865 42.9109 232.222 41.2069 236.029C40.5185 237.569 42.5737 238.717 43.3457 237.259L43.3835 237.235Z" fill="url(#paint3_linear_118_44989)"/>
<path d="M99.1762 213.794C126.09 218.442 149.262 239.424 176.931 239.841C205.189 240.265 228.905 219.679 251.145 203.084C276.065 184.471 303.113 170.348 332.3 162.125C361.641 153.869 392.213 151.747 422.381 155.685C481.588 163.41 537.209 190.278 595.74 201.922C609.876 204.732 624.171 206.651 638.491 207.093C649.958 207.429 661.972 206.474 672.493 201.143C681.93 196.365 689.577 187.472 690.268 175.36C691.01 162.518 683.931 150.169 674.684 142.999C664.159 134.853 649.363 132.15 637.759 138.364C627.598 143.804 620.758 156.479 621.68 169.26C622.602 182.041 631.998 191.58 643.22 192.701C648.791 193.254 654.34 191.583 658.494 187.402C663.147 182.726 665.982 174.73 662.812 168.037C660.161 162.412 654.591 160.009 649.404 162.12C646.838 163.162 648.242 167.676 650.826 166.633C653.488 165.562 656.582 168.253 657.29 171.071C658.1 174.279 656.79 177.797 654.935 180.138C651.882 184.03 646.969 185.198 642.501 184.4C631.879 182.514 625.588 171.458 627.688 159.897C630.182 146.196 641.757 138.266 653.789 138.522C666.624 138.771 678.957 147.245 684.648 160.32C689.697 171.916 687.727 185.21 678.71 193.243C670.605 200.469 659.683 202.853 649.535 203.513C623.295 205.209 596.314 199.816 570.734 193.277C517.997 179.793 466.823 157.16 412.634 152.114C358.564 147.082 303.051 161.565 257.682 194.348C236.406 209.716 216.053 230.09 190.651 236.357C177.678 239.552 164.773 237.567 152.222 232.808C140.337 228.314 129.063 221.999 117.211 217.415C111.397 215.183 105.423 213.533 99.3601 212.659C98.7456 212.565 98.5367 213.614 99.1721 213.728L99.1762 213.794Z" fill="url(#paint4_linear_118_44989)"/>
<path d="M632.342 185.194C621.797 176.102 617.002 160.745 621.872 146.719C627.122 131.568 639.627 124.064 653.178 120.701C660.002 119.016 666.854 118.717 673.621 121.11C679.444 123.166 684.782 126.882 689.184 131.626C698.177 141.322 702.416 155.634 699.182 169.139C697.44 176.406 694.367 183.096 689.828 188.645C685.125 194.402 679.294 197.831 672.989 200.914C671.676 201.569 671.912 204.065 673.531 203.897C686.852 202.508 697.656 188.571 701.721 175.168C706.031 160.978 702.613 145.051 693.926 133.662C684.96 121.916 671.803 115.3 658.09 117.022C643.072 118.914 628.045 125.96 620.926 141.67C614.272 156.359 617.66 178.058 631.863 185.995C632.29 186.232 632.737 185.543 632.344 185.216L632.342 185.194Z" fill="url(#paint5_linear_118_44989)"/>
<path d="M773.973 138.424C758.537 129.618 742.082 120.831 731.27 105.017C721.477 90.7243 718.013 72.1794 725.347 55.8178C732.287 40.3838 748.636 31.2508 763.944 35.2203C778.334 38.9614 789.425 54.2294 785.118 70.9511C782.622 80.5778 775.298 86.1699 766.533 86.9638C762.237 87.3442 757.156 87.0914 753.563 83.9702C750.595 81.4042 749.438 77.0725 750.009 73.0286C750.332 70.6739 747.693 68.9901 746.201 70.8678C743.257 74.6207 743.482 79.4514 745.484 83.796C747.599 88.3976 751.41 91.2409 755.779 92.6616C764.557 95.5006 775.518 92.4764 782.011 85.5272C787.548 79.6071 790.158 70.5459 789.582 62.0155C788.971 52.9367 784.516 44.5403 778.153 38.8847C764.157 26.4421 743.777 27.3503 730.462 40.0803C716.443 53.4712 712.914 76.6404 721.186 95.1471C731.491 118.194 753.572 129.644 773.747 138.901C774.031 139.037 774.257 138.582 773.971 138.402L773.973 138.424Z" fill="url(#paint6_linear_118_44989)"/>
<path d="M744.224 74.692C742.392 86.1487 750.247 96.4673 759.24 100.856C768.435 105.343 779.191 104.974 788.267 100.703C797.514 96.3334 804.808 88.0785 808.201 77.4264C811.544 66.9096 811.196 54.8193 806.841 44.5887C801.931 33.0058 791.96 24.3179 782.328 17.877C772.102 11.055 760.567 7.46456 748.727 8.67224C726.372 10.96 707.603 29.0543 701.395 53.0088C697.528 67.9851 699.815 83.1245 708.68 95.4496C717.241 107.331 729.972 115.89 742.306 121.896C743.48 122.461 744.251 120.673 743.165 119.948C733.421 113.294 723.118 108.063 714.831 98.9825C706.858 90.2129 701.591 78.8946 701.836 66.2604C702.304 42.4911 717.789 20.265 737.716 13.087C748.063 9.35267 759.411 9.36519 769.811 13.3353C780.172 17.308 790.062 24.7236 797.649 33.6056C804.771 41.9442 808.64 52.5797 808.225 64.0794C807.848 74.938 803.622 85.4664 796.082 92.3053C788.058 99.5711 777.027 102.732 766.78 100.558C756.035 98.2832 744.127 88.44 744.985 74.9304C745.028 74.3771 744.288 74.1594 744.207 74.7371L744.224 74.692Z" fill="url(#paint7_linear_118_44989)"/>
<path d="M720.481 60.2421C718.209 91.8329 746.049 111.178 768.462 122.298C793.652 134.807 821.029 141.497 848.441 141.886C863.786 142.087 879.218 140.543 894.021 136.176C894.6 136.008 894.412 134.896 893.81 135C867.559 139.956 841.194 140.91 814.797 135.436C801.787 132.731 788.984 128.626 776.662 123.125C764.683 117.779 752.501 111.389 742.242 102.477C730.51 92.314 721.184 77.3312 721.152 60.288C721.145 59.87 720.513 59.7997 720.48 60.2202L720.481 60.2421Z" fill="url(#paint8_linear_118_44989)"/>
<path d="M440.38 195.249C420.107 191.922 397.805 191.938 380.976 206.541C366.791 218.841 359.883 242.289 370.731 260.237C380.637 276.637 402.18 283.606 417.244 272.77C424.494 267.557 428.834 258.541 427.805 248.739C426.779 238.982 420.305 231.88 411.674 230.441C402.191 228.88 389.677 232.794 387.271 244.486C386.158 249.885 387.996 256.002 392.42 258.916C396.762 261.77 401.883 260.787 406.384 259.315C407.751 258.877 407.666 256.283 406.18 256.068C400.277 255.229 390.815 253.688 393.33 244.368C395.528 236.236 406.142 233.938 412.669 235.333C420.252 236.97 424.9 244.386 423.886 252.906C422.87 261.404 417.245 267.176 410.244 269.797C396.914 274.798 379.552 270.319 372.048 255.904C363.564 239.635 370.529 219.289 382.693 208.547C398.799 194.32 420.566 193.919 440.257 196.093C440.751 196.15 440.933 195.302 440.418 195.224L440.38 195.249Z" fill="url(#paint9_linear_118_44989)"/>
<path d="M362.289 205.03C350.484 210.552 341.442 222.22 338.153 236.103C334.679 250.768 338.305 266.903 347.033 278.62C356.598 291.473 371.089 297.124 385.633 296.759C399.414 296.421 414.534 291.175 423.315 278.774C431.339 267.456 433.183 246.837 421.336 237.343C420.405 236.586 419.387 237.884 420.172 238.825C428.473 248.741 429.083 264.053 422.207 274.902C414.708 286.759 401.265 292.142 388.686 293.176C375.406 294.276 361.364 290.469 351.574 279.655C342.649 269.801 337.761 255.133 339.341 241.248C341.083 225.877 350.035 212.144 362.458 205.526C362.743 205.376 362.592 204.857 362.288 205.008L362.289 205.03Z" fill="url(#paint10_linear_118_44989)"/>
<path d="M427.817 255.786C422.456 275.106 403.732 285.798 386.386 280.636C367.958 275.145 356.096 254.794 357.84 233.851C358.301 228.383 359.484 222.847 361.587 217.891C362.681 215.312 363.958 212.831 365.566 210.616C367.104 208.537 368.938 206.792 370.519 204.777C371.136 203.967 370.395 202.803 369.509 203.078C365.198 204.451 362.011 209.034 359.736 213.119C357.18 217.75 355.583 223.246 354.961 228.659C353.65 239.951 355.661 251.936 360.803 261.897C370.551 280.773 392.792 290.407 410.45 280.553C419.27 275.637 426.012 266.734 428.375 255.927C428.466 255.503 427.911 255.405 427.797 255.787L427.817 255.786Z" fill="url(#paint11_linear_118_44989)"/>
<path d="M360.802 289.645C349.112 283.576 339.045 273.044 334.264 259.471C331.801 252.469 330.674 244.854 331.285 237.394C331.917 229.669 334.521 223.625 338.472 217.452C339.097 216.466 338.14 214.985 337.147 215.752C331.848 219.829 329.536 228.013 328.672 234.872C327.65 242.975 328.732 251.429 331.507 259.028C336.8 273.56 347.766 284.344 360.475 290.371C360.9 290.586 361.228 289.861 360.802 289.645Z" fill="url(#paint12_linear_118_44989)"/>
<path d="M380.505 268.299C373.867 260.15 372.057 247.932 375.664 237.861C379.121 228.218 386.607 221.14 394.258 215.747C411.647 203.488 432.751 199.429 453.183 200.587C465.636 201.301 478.027 203.847 490.213 206.868C490.971 207.062 491.167 205.816 490.444 205.554C468.161 197.751 444.139 194.77 421.306 200.369C410.808 202.946 400.643 207.395 391.631 213.931C383.802 219.621 376.371 227.268 373.078 237.319C369.42 248.45 372.462 260.613 380.123 268.786C380.397 269.077 380.76 268.613 380.505 268.299Z" fill="url(#paint13_linear_118_44989)"/>
</g>
<defs>
<linearGradient id="paint0_linear_118_44989" x1="-836.298" y1="-390.532" x2="743.325" y2="180.531" gradientUnits="userSpaceOnUse">
<stop stop-color="#F0CA62"/>
<stop offset="0.21" stop-color="#C59142"/>
<stop offset="0.43" stop-color="#A76D0C"/>
<stop offset="0.45" stop-color="#B27C1F"/>
<stop offset="0.54" stop-color="#DBB566"/>
<stop offset="0.6" stop-color="#F5D992"/>
<stop offset="0.63" stop-color="#FFE7A4"/>
<stop offset="0.8" stop-color="#B77C2A"/>
<stop offset="0.86" stop-color="#9E5700"/>
<stop offset="0.89" stop-color="#A15B03"/>
<stop offset="0.92" stop-color="#AA680F"/>
<stop offset="0.96" stop-color="#B97E22"/>
<stop offset="0.99" stop-color="#CE9D3D"/>
<stop offset="1" stop-color="#D4A645"/>
</linearGradient>
<linearGradient id="paint1_linear_118_44989" x1="-907.246" y1="-194.253" x2="672.378" y2="376.81" gradientUnits="userSpaceOnUse">
<stop stop-color="#F0CA62"/>
<stop offset="0.21" stop-color="#C59142"/>
<stop offset="0.43" stop-color="#A76D0C"/>
<stop offset="0.45" stop-color="#B27C1F"/>
<stop offset="0.54" stop-color="#DBB566"/>
<stop offset="0.6" stop-color="#F5D992"/>
<stop offset="0.63" stop-color="#FFE7A4"/>
<stop offset="0.8" stop-color="#B77C2A"/>
<stop offset="0.86" stop-color="#9E5700"/>
<stop offset="0.89" stop-color="#A15B03"/>
<stop offset="0.92" stop-color="#AA680F"/>
<stop offset="0.96" stop-color="#B97E22"/>
<stop offset="0.99" stop-color="#CE9D3D"/>
<stop offset="1" stop-color="#D4A645"/>
</linearGradient>
<linearGradient id="paint2_linear_118_44989" x1="-846.28" y1="-362.904" x2="733.343" y2="208.159" gradientUnits="userSpaceOnUse">
<stop stop-color="#F0CA62"/>
<stop offset="0.21" stop-color="#C59142"/>
<stop offset="0.43" stop-color="#A76D0C"/>
<stop offset="0.45" stop-color="#B27C1F"/>
<stop offset="0.54" stop-color="#DBB566"/>
<stop offset="0.6" stop-color="#F5D992"/>
<stop offset="0.63" stop-color="#FFE7A4"/>
<stop offset="0.8" stop-color="#B77C2A"/>
<stop offset="0.86" stop-color="#9E5700"/>
<stop offset="0.89" stop-color="#A15B03"/>
<stop offset="0.92" stop-color="#AA680F"/>
<stop offset="0.96" stop-color="#B97E22"/>
<stop offset="0.99" stop-color="#CE9D3D"/>
<stop offset="1" stop-color="#D4A645"/>
</linearGradient>
<linearGradient id="paint3_linear_118_44989" x1="-849.958" y1="-352.719" x2="729.665" y2="218.344" gradientUnits="userSpaceOnUse">
<stop stop-color="#F0CA62"/>
<stop offset="0.21" stop-color="#C59142"/>
<stop offset="0.43" stop-color="#A76D0C"/>
<stop offset="0.45" stop-color="#B27C1F"/>
<stop offset="0.54" stop-color="#DBB566"/>
<stop offset="0.6" stop-color="#F5D992"/>
<stop offset="0.63" stop-color="#FFE7A4"/>
<stop offset="0.8" stop-color="#B77C2A"/>
<stop offset="0.86" stop-color="#9E5700"/>
<stop offset="0.89" stop-color="#A15B03"/>
<stop offset="0.92" stop-color="#AA680F"/>
<stop offset="0.96" stop-color="#B97E22"/>
<stop offset="0.99" stop-color="#CE9D3D"/>
<stop offset="1" stop-color="#D4A645"/>
</linearGradient>
<linearGradient id="paint4_linear_118_44989" x1="-835.226" y1="-393.462" x2="744.397" y2="177.601" gradientUnits="userSpaceOnUse">
<stop stop-color="#F0CA62"/>
<stop offset="0.21" stop-color="#C59142"/>
<stop offset="0.43" stop-color="#A76D0C"/>
<stop offset="0.45" stop-color="#B27C1F"/>
<stop offset="0.54" stop-color="#DBB566"/>
<stop offset="0.6" stop-color="#F5D992"/>
<stop offset="0.63" stop-color="#FFE7A4"/>
<stop offset="0.8" stop-color="#B77C2A"/>
<stop offset="0.86" stop-color="#9E5700"/>
<stop offset="0.89" stop-color="#A15B03"/>
<stop offset="0.92" stop-color="#AA680F"/>
<stop offset="0.96" stop-color="#B97E22"/>
<stop offset="0.99" stop-color="#CE9D3D"/>
<stop offset="1" stop-color="#D4A645"/>
</linearGradient>
<linearGradient id="paint5_linear_118_44989" x1="-788.86" y1="-521.775" x2="790.782" y2="49.2866" gradientUnits="userSpaceOnUse">
<stop stop-color="#F0CA62"/>
<stop offset="0.21" stop-color="#C59142"/>
<stop offset="0.43" stop-color="#A76D0C"/>
<stop offset="0.45" stop-color="#B27C1F"/>
<stop offset="0.54" stop-color="#DBB566"/>
<stop offset="0.6" stop-color="#F5D992"/>
<stop offset="0.63" stop-color="#FFE7A4"/>
<stop offset="0.8" stop-color="#B77C2A"/>
<stop offset="0.86" stop-color="#9E5700"/>
<stop offset="0.89" stop-color="#A15B03"/>
<stop offset="0.92" stop-color="#AA680F"/>
<stop offset="0.96" stop-color="#B97E22"/>
<stop offset="0.99" stop-color="#CE9D3D"/>
<stop offset="1" stop-color="#D4A645"/>
</linearGradient>
<linearGradient id="paint6_linear_118_44989" x1="-751.218" y1="-625.842" x2="828.406" y2="-54.7789" gradientUnits="userSpaceOnUse">
<stop stop-color="#F0CA62"/>
<stop offset="0.21" stop-color="#C59142"/>
<stop offset="0.43" stop-color="#A76D0C"/>
<stop offset="0.45" stop-color="#B27C1F"/>
<stop offset="0.54" stop-color="#DBB566"/>
<stop offset="0.6" stop-color="#F5D992"/>
<stop offset="0.63" stop-color="#FFE7A4"/>
<stop offset="0.8" stop-color="#B77C2A"/>
<stop offset="0.86" stop-color="#9E5700"/>
<stop offset="0.89" stop-color="#A15B03"/>
<stop offset="0.92" stop-color="#AA680F"/>
<stop offset="0.96" stop-color="#B97E22"/>
<stop offset="0.99" stop-color="#CE9D3D"/>
<stop offset="1" stop-color="#D4A645"/>
</linearGradient>
<linearGradient id="paint7_linear_118_44989" x1="-747.438" y1="-636.299" x2="832.185" y2="-65.2359" gradientUnits="userSpaceOnUse">
<stop stop-color="#F0CA62"/>
<stop offset="0.21" stop-color="#C59142"/>
<stop offset="0.43" stop-color="#A76D0C"/>
<stop offset="0.45" stop-color="#B27C1F"/>
<stop offset="0.54" stop-color="#DBB566"/>
<stop offset="0.6" stop-color="#F5D992"/>
<stop offset="0.63" stop-color="#FFE7A4"/>
<stop offset="0.8" stop-color="#B77C2A"/>
<stop offset="0.86" stop-color="#9E5700"/>
<stop offset="0.89" stop-color="#A15B03"/>
<stop offset="0.92" stop-color="#AA680F"/>
<stop offset="0.96" stop-color="#B97E22"/>
<stop offset="0.99" stop-color="#CE9D3D"/>
<stop offset="1" stop-color="#D4A645"/>
</linearGradient>
<linearGradient id="paint8_linear_118_44989" x1="-755.784" y1="-613.244" x2="823.839" y2="-42.1814" gradientUnits="userSpaceOnUse">
<stop stop-color="#F0CA62"/>
<stop offset="0.21" stop-color="#C59142"/>
<stop offset="0.43" stop-color="#A76D0C"/>
<stop offset="0.45" stop-color="#B27C1F"/>
<stop offset="0.54" stop-color="#DBB566"/>
<stop offset="0.6" stop-color="#F5D992"/>
<stop offset="0.63" stop-color="#FFE7A4"/>
<stop offset="0.8" stop-color="#B77C2A"/>
<stop offset="0.86" stop-color="#9E5700"/>
<stop offset="0.89" stop-color="#A15B03"/>
<stop offset="0.92" stop-color="#AA680F"/>
<stop offset="0.96" stop-color="#B97E22"/>
<stop offset="0.99" stop-color="#CE9D3D"/>
<stop offset="1" stop-color="#D4A645"/>
</linearGradient>
<linearGradient id="paint9_linear_118_44989" x1="-849.04" y1="-355.287" x2="730.603" y2="215.774" gradientUnits="userSpaceOnUse">
<stop stop-color="#F0CA62"/>
<stop offset="0.21" stop-color="#C59142"/>
<stop offset="0.43" stop-color="#A76D0C"/>
<stop offset="0.45" stop-color="#B27C1F"/>
<stop offset="0.54" stop-color="#DBB566"/>
<stop offset="0.6" stop-color="#F5D992"/>
<stop offset="0.63" stop-color="#FFE7A4"/>
<stop offset="0.8" stop-color="#B77C2A"/>
<stop offset="0.86" stop-color="#9E5700"/>
<stop offset="0.89" stop-color="#A15B03"/>
<stop offset="0.92" stop-color="#AA680F"/>
<stop offset="0.96" stop-color="#B97E22"/>
<stop offset="0.99" stop-color="#CE9D3D"/>
<stop offset="1" stop-color="#D4A645"/>
</linearGradient>
<linearGradient id="paint10_linear_118_44989" x1="-860.558" y1="-323.379" x2="719.065" y2="247.684" gradientUnits="userSpaceOnUse">
<stop stop-color="#F0CA62"/>
<stop offset="0.21" stop-color="#C59142"/>
<stop offset="0.43" stop-color="#A76D0C"/>
<stop offset="0.45" stop-color="#B27C1F"/>
<stop offset="0.54" stop-color="#DBB566"/>
<stop offset="0.6" stop-color="#F5D992"/>
<stop offset="0.63" stop-color="#FFE7A4"/>
<stop offset="0.8" stop-color="#B77C2A"/>
<stop offset="0.86" stop-color="#9E5700"/>
<stop offset="0.89" stop-color="#A15B03"/>
<stop offset="0.92" stop-color="#AA680F"/>
<stop offset="0.96" stop-color="#B97E22"/>
<stop offset="0.99" stop-color="#CE9D3D"/>
<stop offset="1" stop-color="#D4A645"/>
</linearGradient>
<linearGradient id="paint11_linear_118_44989" x1="-856.782" y1="-333.879" x2="722.86" y2="237.183" gradientUnits="userSpaceOnUse">
<stop stop-color="#F0CA62"/>
<stop offset="0.21" stop-color="#C59142"/>
<stop offset="0.43" stop-color="#A76D0C"/>
<stop offset="0.45" stop-color="#B27C1F"/>
<stop offset="0.54" stop-color="#DBB566"/>
<stop offset="0.6" stop-color="#F5D992"/>
<stop offset="0.63" stop-color="#FFE7A4"/>
<stop offset="0.8" stop-color="#B77C2A"/>
<stop offset="0.86" stop-color="#9E5700"/>
<stop offset="0.89" stop-color="#A15B03"/>
<stop offset="0.92" stop-color="#AA680F"/>
<stop offset="0.96" stop-color="#B97E22"/>
<stop offset="0.99" stop-color="#CE9D3D"/>
<stop offset="1" stop-color="#D4A645"/>
</linearGradient>
<linearGradient id="paint12_linear_118_44989" x1="-863.905" y1="-314.161" x2="715.718" y2="256.902" gradientUnits="userSpaceOnUse">
<stop stop-color="#F0CA62"/>
<stop offset="0.21" stop-color="#C59142"/>
<stop offset="0.43" stop-color="#A76D0C"/>
<stop offset="0.45" stop-color="#B27C1F"/>
<stop offset="0.54" stop-color="#DBB566"/>
<stop offset="0.6" stop-color="#F5D992"/>
<stop offset="0.63" stop-color="#FFE7A4"/>
<stop offset="0.8" stop-color="#B77C2A"/>
<stop offset="0.86" stop-color="#9E5700"/>
<stop offset="0.89" stop-color="#A15B03"/>
<stop offset="0.92" stop-color="#AA680F"/>
<stop offset="0.96" stop-color="#B97E22"/>
<stop offset="0.99" stop-color="#CE9D3D"/>
<stop offset="1" stop-color="#D4A645"/>
</linearGradient>
<linearGradient id="paint13_linear_118_44989" x1="-846.582" y1="-362.092" x2="733.041" y2="208.97" gradientUnits="userSpaceOnUse">
<stop stop-color="#F0CA62"/>
<stop offset="0.21" stop-color="#C59142"/>
<stop offset="0.43" stop-color="#A76D0C"/>
<stop offset="0.45" stop-color="#B27C1F"/>
<stop offset="0.54" stop-color="#DBB566"/>
<stop offset="0.6" stop-color="#F5D992"/>
<stop offset="0.63" stop-color="#FFE7A4"/>
<stop offset="0.8" stop-color="#B77C2A"/>
<stop offset="0.86" stop-color="#9E5700"/>
<stop offset="0.89" stop-color="#A15B03"/>
<stop offset="0.92" stop-color="#AA680F"/>
<stop offset="0.96" stop-color="#B97E22"/>
<stop offset="0.99" stop-color="#CE9D3D"/>
<stop offset="1" stop-color="#D4A645"/>
</linearGradient>
<clipPath id="clip0_118_44989">
<rect width="887.577" height="281.811" fill="white" transform="translate(0 55.7495) rotate(-3.60117)"/>
</clipPath>
</defs>
</svg>
