<svg width="343" height="111" viewBox="0 0 343 111" fill="none" xmlns="http://www.w3.org/2000/svg">
<g clip-path="url(#clip0_248_919)">
<path d="M337.203 101.398V9.104L7.14441 9.104V101.398L337.203 101.398Z" fill="url(#paint0_linear_248_919)"/>
<path style="mix-blend-mode:multiply" d="M337.203 101.398V9.104L7.14441 9.104V101.398L337.203 101.398Z" fill="url(#paint1_linear_248_919)"/>
<path d="M324.469 15.4601H320.252V17.6597H317.503V15.4601H26.641V17.6597H23.8922V15.4601H15.4636V20.4338H19.1911V22.0558H15.4636V88.4491H19.1911V90.0711H15.4636V95.0448H23.8922V92.8452H26.641V95.0448H317.508V92.8452H320.257V95.0448H328.685V90.0711H324.958V88.4491H328.685V22.0527H324.958V20.4307H328.685V15.457H324.469V15.4601ZM321.236 18.2372H323.979V19.8562H321.236V18.2372ZM321.236 20.4368H323.979V22.0589H321.236V20.4368ZM321.236 22.6364H323.979V24.2585H321.236V22.6364ZM317.508 18.2403H320.257V19.8593H317.508V18.2403ZM317.508 20.4399H320.257V22.062H317.508V20.4399ZM27.6197 18.2342H30.3685V19.8531H27.6197V18.2342ZM23.8922 18.2342H26.641V19.8531H23.8922V18.2342ZM23.8922 20.4338H26.641V22.0558H23.8922V20.4338ZM16.4424 19.8562V16.0376H22.9135V17.6597H19.1859V19.8593H16.4371L16.4424 19.8562ZM20.1699 22.0558V20.4338H22.9135V22.0558H20.1699ZM22.9135 22.6334V24.2554H20.1699V22.6334H22.9135ZM20.1699 19.8562V18.2372H22.9135V19.8562H20.1699ZM22.9135 94.4642H16.4424V90.6456H19.1911V92.8452H22.9187V94.4673L22.9135 94.4642ZM22.9135 92.2646H20.1699V90.6456H22.9135V92.2646ZM22.9135 90.065H20.1699V88.4429H22.9135V90.065ZM22.9135 87.8654H20.1699V86.2434H22.9135V87.8654ZM26.641 92.2615H23.8922V90.6425H26.641V92.2615ZM26.641 90.0619H23.8922V88.4399H26.641V90.0619ZM316.529 92.2615H313.781V90.6425H316.529V92.2615ZM320.257 92.2615H317.508V90.6425H320.257V92.2615ZM320.257 90.0619H317.508V88.4399H320.257V90.0619ZM327.707 90.6395V94.458H321.236V92.836H324.963V90.6364H327.712L327.707 90.6395ZM323.979 88.4399V90.0619H321.236V88.4399H323.979ZM321.236 87.8623V86.2403H323.979V87.8623H321.236ZM323.979 90.6395V92.2584H321.236V90.6395H323.979ZM327.707 22.6241V87.8623H324.958V85.6627H320.252V87.8623H316.524V90.0619H312.797V92.8391H316.524V94.4611H27.6197V92.8391H31.3473V90.0619H27.6197V87.8623H23.8922V85.6627H19.1859V87.8623H16.4371V22.6334H19.1859V24.8329H23.8922V22.6334H27.6197V20.4338H31.3473V17.6566H27.6197V16.0346H316.529V17.6566H312.802V20.4338H316.529V22.6334H320.257V24.8329H324.963V22.6334H327.712L327.707 22.6241ZM27.6197 92.2677V90.6487H30.3685V92.2677H27.6197ZM316.529 18.2342V19.8531H313.781V18.2342H316.529ZM327.707 17.9454V19.8531H324.958V17.6536H321.23V16.0315H327.702V17.9423L327.707 17.9454ZM317.841 24.0557H314.114V21.8561H310.386V17.4784H33.7577V21.8561H30.0301V24.0557H26.3026V26.2553H19.1859V84.2496H26.3026V86.4492H30.0301V88.6488H33.7577V92.8821H310.391V88.6488H314.119V86.4492H317.847V84.2496H324.963V26.2522H317.847V24.0526L317.841 24.0557ZM31.0141 24.6333H33.7577V26.2522H31.0141V24.6333ZM313.14 85.8686H310.391V84.2465H313.14V85.8686ZM323.984 26.8329V83.672H316.868V85.8716H314.119V83.672H309.413V86.4492H313.14V88.0712H309.413V92.3045H34.7364V88.0712H31.0089V86.4492H34.7364V83.672H30.0301V85.8716H27.2813V83.672H20.1647V26.8329H27.2813V24.6333H30.0301V26.8329H34.7364V24.0557H31.0089V22.4337H34.7364V18.056H309.413V22.4337H313.14V24.0557H309.413V26.8329H314.119V24.6333H316.868V26.8329H323.984ZM31.0089 85.8686V84.2465H33.7525V85.8686H31.0089ZM313.135 24.6333V26.2522H310.386V24.6333H313.135Z" fill="url(#paint2_linear_248_919)"/>
<path style="mix-blend-mode:multiply" d="M337.203 101.398V9.104L7.14441 9.104V101.398L337.203 101.398Z" fill="url(#paint3_linear_248_919)"/>
<path d="M335.556 2.90138V7.53711H342.543V2.90138H335.556Z" fill="url(#paint4_linear_248_919)"/>
<path style="mix-blend-mode:overlay" opacity="0.4" d="M335.556 2.90138V7.53711H342.543V2.90138H335.556Z" fill="url(#paint5_linear_248_919)"/>
<path style="mix-blend-mode:multiply" d="M335.556 2.90138V7.53711H342.543V2.90138H335.556Z" fill="url(#paint6_linear_248_919)"/>
<path d="M333.607 0.634375V2.61585C333.607 2.87035 333.776 3.07666 333.984 3.07666L344.117 3.07666C344.325 3.07666 344.494 2.87035 344.494 2.61585V0.634375C344.494 0.379878 344.325 0.173567 344.117 0.173567L333.984 0.173567C333.776 0.173567 333.607 0.379878 333.607 0.634375Z" fill="url(#paint7_linear_248_919)"/>
<path style="mix-blend-mode:overlay" opacity="0.4" d="M333.607 0.634375V2.61585C333.607 2.87035 333.776 3.07666 333.984 3.07666L344.117 3.07666C344.325 3.07666 344.494 2.87035 344.494 2.61585V0.634375C344.494 0.379878 344.325 0.173567 344.117 0.173567L333.984 0.173567C333.776 0.173567 333.607 0.379878 333.607 0.634375Z" fill="url(#paint8_linear_248_919)"/>
<path style="mix-blend-mode:multiply" d="M333.607 0.634375V2.61585C333.607 2.87035 333.776 3.07666 333.984 3.07666L344.117 3.07666C344.325 3.07666 344.494 2.87035 344.494 2.61585V0.634375C344.494 0.379878 344.325 0.173567 344.117 0.173567L333.984 0.173567C333.776 0.173567 333.607 0.379878 333.607 0.634375Z" fill="url(#paint9_linear_248_919)"/>
<g style="mix-blend-mode:screen">
<path d="M333.607 0.634619V2.6161C333.607 2.87059 333.776 3.0769 333.984 3.0769L344.117 3.0769C344.326 3.0769 344.494 2.87059 344.494 2.6161V0.634619C344.494 0.380122 344.326 0.173811 344.117 0.173811L333.984 0.173811C333.776 0.173811 333.607 0.380122 333.607 0.634619Z" fill="#DAA355"/>
</g>
<path d="M342.546 107.6V102.965H335.558V107.6H342.546Z" fill="url(#paint10_linear_248_919)"/>
<path style="mix-blend-mode:overlay" opacity="0.4" d="M342.546 107.6V102.965H335.558V107.6H342.546Z" fill="url(#paint11_linear_248_919)"/>
<path style="mix-blend-mode:multiply" d="M342.546 107.6V102.965H335.558V107.6H342.546Z" fill="url(#paint12_linear_248_919)"/>
<path d="M344.492 109.868V107.886C344.492 107.632 344.323 107.425 344.115 107.425H333.982C333.773 107.425 333.604 107.632 333.604 107.886V109.868C333.604 110.122 333.773 110.328 333.982 110.328H344.115C344.323 110.328 344.492 110.122 344.492 109.868Z" fill="url(#paint13_linear_248_919)"/>
<path style="mix-blend-mode:overlay" opacity="0.4" d="M344.492 109.868V107.886C344.492 107.632 344.323 107.425 344.115 107.425H333.982C333.773 107.425 333.604 107.632 333.604 107.886V109.868C333.604 110.122 333.773 110.328 333.982 110.328H344.115C344.323 110.328 344.492 110.122 344.492 109.868Z" fill="url(#paint14_linear_248_919)"/>
<path style="mix-blend-mode:multiply" d="M344.492 109.868V107.886C344.492 107.632 344.323 107.425 344.115 107.425H333.982C333.773 107.425 333.604 107.632 333.604 107.886V109.868C333.604 110.122 333.773 110.328 333.982 110.328H344.115C344.323 110.328 344.492 110.122 344.492 109.868Z" fill="url(#paint15_linear_248_919)"/>
<path d="M344.487 102.965V7.54053L333.609 7.54053V102.965H344.487Z" fill="url(#paint16_linear_248_919)"/>
<path style="mix-blend-mode:screen" d="M344.487 102.965V7.54053L333.609 7.54053V102.965H344.487Z" fill="url(#paint17_linear_248_919)"/>
<path d="M0.456959 2.90138L0.456959 7.53711H7.44446L7.44446 2.90138H0.456959Z" fill="url(#paint18_linear_248_919)"/>
<path style="mix-blend-mode:overlay" opacity="0.4" d="M0.456959 2.90138L0.456959 7.53711H7.44446L7.44446 2.90138H0.456959Z" fill="url(#paint19_linear_248_919)"/>
<path style="mix-blend-mode:multiply" d="M0.456959 2.90138L0.456959 7.53711H7.44446L7.44446 2.90138H0.456959Z" fill="url(#paint20_linear_248_919)"/>
<path d="M-1.49169 0.634131L-1.49169 2.61561C-1.49169 2.87011 -1.32283 3.07642 -1.11453 3.07642L9.01848 3.07642C9.22678 3.07642 9.39564 2.87011 9.39564 2.61561V0.634131C9.39564 0.379633 9.22678 0.173322 9.01848 0.173322L-1.11453 0.173322C-1.32283 0.173322 -1.49169 0.379633 -1.49169 0.634131Z" fill="url(#paint21_linear_248_919)"/>
<path style="mix-blend-mode:overlay" opacity="0.4" d="M-1.49169 0.634131L-1.49169 2.61561C-1.49169 2.87011 -1.32283 3.07642 -1.11453 3.07642L9.01848 3.07642C9.22678 3.07642 9.39564 2.87011 9.39564 2.61561V0.634131C9.39564 0.379633 9.22678 0.173322 9.01848 0.173322L-1.11453 0.173322C-1.32283 0.173322 -1.49169 0.379633 -1.49169 0.634131Z" fill="url(#paint22_linear_248_919)"/>
<path style="mix-blend-mode:multiply" d="M-1.49169 0.634131L-1.49169 2.61561C-1.49169 2.87011 -1.32283 3.07642 -1.11453 3.07642L9.01848 3.07642C9.22678 3.07642 9.39564 2.87011 9.39564 2.61561V0.634131C9.39564 0.379633 9.22678 0.173322 9.01848 0.173322L-1.11453 0.173322C-1.32283 0.173322 -1.49169 0.379633 -1.49169 0.634131Z" fill="url(#paint23_linear_248_919)"/>
<g style="mix-blend-mode:screen">
<path d="M-1.49139 0.634619L-1.49139 2.6161C-1.49139 2.87059 -1.32253 3.0769 -1.11424 3.0769L9.01877 3.0769C9.22707 3.0769 9.39593 2.87059 9.39593 2.6161V0.634619C9.39593 0.380122 9.22707 0.173811 9.01877 0.173811L-1.11424 0.173811C-1.32253 0.173811 -1.49139 0.380122 -1.49139 0.634619Z" fill="#DAA355"/>
</g>
<path d="M7.44695 107.6V102.965H0.459445V107.6H7.44695Z" fill="url(#paint24_linear_248_919)"/>
<path style="mix-blend-mode:overlay" opacity="0.4" d="M7.44695 107.6V102.965H0.459445V107.6H7.44695Z" fill="url(#paint25_linear_248_919)"/>
<path style="mix-blend-mode:multiply" d="M7.44695 107.6V102.965H0.459445V107.6H7.44695Z" fill="url(#paint26_linear_248_919)"/>
<path d="M9.39315 109.868V107.886C9.39315 107.632 9.22429 107.425 9.01599 107.425H-1.11701C-1.32531 107.425 -1.49417 107.632 -1.49417 107.886V109.868C-1.49417 110.122 -1.32531 110.328 -1.11701 110.328H9.01599C9.22429 110.328 9.39315 110.122 9.39315 109.868Z" fill="url(#paint27_linear_248_919)"/>
<path style="mix-blend-mode:overlay" opacity="0.4" d="M9.39315 109.868V107.886C9.39315 107.632 9.22429 107.425 9.01599 107.425H-1.11701C-1.32531 107.425 -1.49417 107.632 -1.49417 107.886V109.868C-1.49417 110.122 -1.32531 110.328 -1.11701 110.328H9.01599C9.22429 110.328 9.39315 110.122 9.39315 109.868Z" fill="url(#paint28_linear_248_919)"/>
<path style="mix-blend-mode:multiply" d="M9.39315 109.868V107.886C9.39315 107.632 9.22429 107.425 9.01599 107.425H-1.11701C-1.32531 107.425 -1.49417 107.632 -1.49417 107.886V109.868C-1.49417 110.122 -1.32531 110.328 -1.11701 110.328H9.01599C9.22429 110.328 9.39315 110.122 9.39315 109.868Z" fill="url(#paint29_linear_248_919)"/>
<path d="M9.38807 102.965L9.38807 7.54053L-1.48919 7.54053L-1.48919 102.965H9.38807Z" fill="url(#paint30_linear_248_919)"/>
<path style="mix-blend-mode:screen" d="M9.38807 102.965L9.38807 7.54053L-1.48919 7.54053L-1.48919 102.965H9.38807Z" fill="url(#paint31_linear_248_919)"/>
</g>
<defs>
<linearGradient id="paint0_linear_248_919" x1="7.23377" y1="9.10519" x2="55.1026" y2="180.292" gradientUnits="userSpaceOnUse">
<stop offset="0.11" stop-color="#A1000D"/>
<stop offset="0.43" stop-color="#89000A"/>
<stop offset="0.75" stop-color="#780009"/>
<stop offset="1" stop-color="#730009"/>
</linearGradient>
<linearGradient id="paint1_linear_248_919" x1="7.14441" y1="55.2524" x2="337.203" y2="55.2524" gradientUnits="userSpaceOnUse">
<stop stop-color="#D13840"/>
<stop offset="0.02" stop-color="#DD6C72"/>
<stop offset="0.03" stop-color="#E7999D"/>
<stop offset="0.04" stop-color="#F0BEC0"/>
<stop offset="0.05" stop-color="#F6DADB"/>
<stop offset="0.06" stop-color="#FBEEEF"/>
<stop offset="0.07" stop-color="#FEFAFB"/>
<stop offset="0.08" stop-color="white"/>
<stop offset="0.91" stop-color="white"/>
<stop offset="0.92" stop-color="#FEFBFB"/>
<stop offset="0.93" stop-color="#FCF0F1"/>
<stop offset="0.94" stop-color="#F9DDDF"/>
<stop offset="0.96" stop-color="#F5C2C7"/>
<stop offset="0.97" stop-color="#EFA0A7"/>
<stop offset="0.98" stop-color="#E97681"/>
<stop offset="0.99" stop-color="#E14553"/>
<stop offset="1" stop-color="#D60014"/>
</linearGradient>
<linearGradient id="paint2_linear_248_919" x1="15.4636" y1="55.2524" x2="328.68" y2="55.2524" gradientUnits="userSpaceOnUse">
<stop stop-color="#E5BA45"/>
<stop offset="0.03" stop-color="#C8972C"/>
<stop offset="0.07" stop-color="#B17C19"/>
<stop offset="0.1" stop-color="#A1690B"/>
<stop offset="0.14" stop-color="#975D02"/>
<stop offset="0.17" stop-color="#945A00"/>
<stop offset="0.22" stop-color="#A77316"/>
<stop offset="0.33" stop-color="#D6AF4B"/>
<stop offset="0.41" stop-color="#F3D46D"/>
<stop offset="0.46" stop-color="#FFE37A"/>
<stop offset="0.61" stop-color="#FFE37A"/>
<stop offset="0.75" stop-color="#C09216"/>
<stop offset="0.78" stop-color="#B38100"/>
<stop offset="0.84" stop-color="#C19113"/>
<stop offset="0.97" stop-color="#E5BA45"/>
</linearGradient>
<linearGradient id="paint3_linear_248_919" x1="7.14441" y1="55.2524" x2="337.203" y2="55.2524" gradientUnits="userSpaceOnUse">
<stop stop-color="#D36C46"/>
<stop offset="0.02" stop-color="#DE9276"/>
<stop offset="0.03" stop-color="#E8B3A0"/>
<stop offset="0.04" stop-color="#F0CFC2"/>
<stop offset="0.05" stop-color="#F7E4DD"/>
<stop offset="0.07" stop-color="#FBF3F0"/>
<stop offset="0.08" stop-color="#FEFCFB"/>
<stop offset="0.09" stop-color="white"/>
<stop offset="0.9" stop-color="white"/>
<stop offset="0.92" stop-color="#FEFBFA"/>
<stop offset="0.93" stop-color="#FBF2EE"/>
<stop offset="0.94" stop-color="#F6E2DA"/>
<stop offset="0.96" stop-color="#EFCBBE"/>
<stop offset="0.97" stop-color="#E7AE99"/>
<stop offset="0.98" stop-color="#DC8A6C"/>
<stop offset="0.99" stop-color="#D06138"/>
<stop offset="1" stop-color="#C9491A"/>
</linearGradient>
<linearGradient id="paint4_linear_248_919" x1="342.546" y1="-1550.48" x2="335.553" y2="-1550.68" gradientUnits="userSpaceOnUse">
<stop offset="0.02" stop-color="#E5BA45"/>
<stop offset="0.04" stop-color="#C19113"/>
<stop offset="0.05" stop-color="#B38100"/>
<stop offset="0.08" stop-color="#C09216"/>
<stop offset="0.19" stop-color="#FFE37A"/>
<stop offset="0.33" stop-color="#FFE37A"/>
<stop offset="0.35" stop-color="#EDCC65"/>
<stop offset="0.4" stop-color="#CDA341"/>
<stop offset="0.45" stop-color="#B48324"/>
<stop offset="0.49" stop-color="#A26C10"/>
<stop offset="0.54" stop-color="#975E04"/>
<stop offset="0.58" stop-color="#965D04"/>
<stop offset="0.59" stop-color="#B1873C"/>
<stop offset="0.61" stop-color="#C9AA6C"/>
<stop offset="0.63" stop-color="#DCC893"/>
<stop offset="0.65" stop-color="#EBDEB1"/>
<stop offset="0.66" stop-color="#F6EEC7"/>
<stop offset="0.68" stop-color="#FCF8D4"/>
<stop offset="0.69" stop-color="#FFFCD9"/>
<stop offset="0.75" stop-color="#FFF9C9"/>
<stop offset="0.83" stop-color="#FFF5AC"/>
<stop offset="0.84" stop-color="#F0DA83"/>
<stop offset="0.86" stop-color="#E0BC54"/>
<stop offset="0.88" stop-color="#D3A42F"/>
<stop offset="0.9" stop-color="#CA9315"/>
<stop offset="0.91" stop-color="#C48905"/>
<stop offset="0.92" stop-color="#C38600"/>
<stop offset="0.98" stop-color="#FFE37A"/>
</linearGradient>
<linearGradient id="paint5_linear_248_919" x1="342.546" y1="-1550.48" x2="335.553" y2="-1550.68" gradientUnits="userSpaceOnUse">
<stop offset="0.02" stop-color="#E5BA45"/>
<stop offset="0.04" stop-color="#C19113"/>
<stop offset="0.05" stop-color="#B38100"/>
<stop offset="0.08" stop-color="#C09216"/>
<stop offset="0.19" stop-color="#FFE37A"/>
<stop offset="0.33" stop-color="#FFE37A"/>
<stop offset="0.35" stop-color="#EDCC65"/>
<stop offset="0.4" stop-color="#CDA341"/>
<stop offset="0.45" stop-color="#B48324"/>
<stop offset="0.49" stop-color="#A26C10"/>
<stop offset="0.54" stop-color="#975E04"/>
<stop offset="0.58" stop-color="#965D04"/>
<stop offset="0.59" stop-color="#B1873C"/>
<stop offset="0.61" stop-color="#C9AA6C"/>
<stop offset="0.63" stop-color="#DCC893"/>
<stop offset="0.65" stop-color="#EBDEB1"/>
<stop offset="0.66" stop-color="#F6EEC7"/>
<stop offset="0.68" stop-color="#FCF8D4"/>
<stop offset="0.69" stop-color="#FFFCD9"/>
<stop offset="0.75" stop-color="#FFF9C9"/>
<stop offset="0.83" stop-color="#FFF5AC"/>
<stop offset="0.84" stop-color="#F0DA83"/>
<stop offset="0.86" stop-color="#E0BC54"/>
<stop offset="0.88" stop-color="#D3A42F"/>
<stop offset="0.9" stop-color="#CA9315"/>
<stop offset="0.91" stop-color="#C48905"/>
<stop offset="0.92" stop-color="#C38600"/>
<stop offset="0.98" stop-color="#FFE37A"/>
</linearGradient>
<linearGradient id="paint6_linear_248_919" x1="339.051" y1="-1550.48" x2="339.051" y2="-1550.79" gradientUnits="userSpaceOnUse">
<stop stop-color="#945A00"/>
<stop offset="0.04" stop-color="#A5752A"/>
<stop offset="0.09" stop-color="#BD9962"/>
<stop offset="0.14" stop-color="#D1B892"/>
<stop offset="0.19" stop-color="#E1D1B9"/>
<stop offset="0.24" stop-color="#EEE5D7"/>
<stop offset="0.29" stop-color="#F7F3ED"/>
<stop offset="0.34" stop-color="#FDFCFA"/>
<stop offset="0.38" stop-color="white"/>
<stop offset="0.74" stop-color="white"/>
<stop offset="0.76" stop-color="#FCFAF8"/>
<stop offset="0.79" stop-color="#F5EFE7"/>
<stop offset="0.83" stop-color="#E8DDCA"/>
<stop offset="0.87" stop-color="#D8C3A2"/>
<stop offset="0.92" stop-color="#C2A16E"/>
<stop offset="0.97" stop-color="#A87931"/>
<stop offset="1" stop-color="#945A00"/>
</linearGradient>
<linearGradient id="paint7_linear_248_919" x1="344.494" y1="1.62358" x2="333.607" y2="1.62358" gradientUnits="userSpaceOnUse">
<stop offset="0.02" stop-color="#E5BA45"/>
<stop offset="0.04" stop-color="#C19113"/>
<stop offset="0.05" stop-color="#B38100"/>
<stop offset="0.08" stop-color="#C09216"/>
<stop offset="0.19" stop-color="#FFE37A"/>
<stop offset="0.33" stop-color="#FFE37A"/>
<stop offset="0.35" stop-color="#EDCC65"/>
<stop offset="0.4" stop-color="#CDA341"/>
<stop offset="0.45" stop-color="#B48324"/>
<stop offset="0.49" stop-color="#A26C10"/>
<stop offset="0.54" stop-color="#975E04"/>
<stop offset="0.58" stop-color="#965D04"/>
<stop offset="0.59" stop-color="#B1873C"/>
<stop offset="0.61" stop-color="#C9AA6C"/>
<stop offset="0.63" stop-color="#DCC893"/>
<stop offset="0.65" stop-color="#EBDEB1"/>
<stop offset="0.66" stop-color="#F6EEC7"/>
<stop offset="0.68" stop-color="#FCF8D4"/>
<stop offset="0.69" stop-color="#FFFCD9"/>
<stop offset="0.75" stop-color="#FFF9C9"/>
<stop offset="0.83" stop-color="#FFF5AC"/>
<stop offset="0.84" stop-color="#F0DA83"/>
<stop offset="0.86" stop-color="#E0BC54"/>
<stop offset="0.88" stop-color="#D3A42F"/>
<stop offset="0.9" stop-color="#CA9315"/>
<stop offset="0.91" stop-color="#C48905"/>
<stop offset="0.92" stop-color="#C38600"/>
<stop offset="0.98" stop-color="#FFE37A"/>
</linearGradient>
<linearGradient id="paint8_linear_248_919" x1="344.494" y1="1.62358" x2="333.607" y2="1.62358" gradientUnits="userSpaceOnUse">
<stop offset="0.02" stop-color="#E5BA45"/>
<stop offset="0.04" stop-color="#C19113"/>
<stop offset="0.05" stop-color="#B38100"/>
<stop offset="0.08" stop-color="#C09216"/>
<stop offset="0.19" stop-color="#FFE37A"/>
<stop offset="0.33" stop-color="#FFE37A"/>
<stop offset="0.35" stop-color="#EDCC65"/>
<stop offset="0.4" stop-color="#CDA341"/>
<stop offset="0.45" stop-color="#B48324"/>
<stop offset="0.49" stop-color="#A26C10"/>
<stop offset="0.54" stop-color="#975E04"/>
<stop offset="0.58" stop-color="#965D04"/>
<stop offset="0.59" stop-color="#B1873C"/>
<stop offset="0.61" stop-color="#C9AA6C"/>
<stop offset="0.63" stop-color="#DCC893"/>
<stop offset="0.65" stop-color="#EBDEB1"/>
<stop offset="0.66" stop-color="#F6EEC7"/>
<stop offset="0.68" stop-color="#FCF8D4"/>
<stop offset="0.69" stop-color="#FFFCD9"/>
<stop offset="0.75" stop-color="#FFF9C9"/>
<stop offset="0.83" stop-color="#FFF5AC"/>
<stop offset="0.84" stop-color="#F0DA83"/>
<stop offset="0.86" stop-color="#E0BC54"/>
<stop offset="0.88" stop-color="#D3A42F"/>
<stop offset="0.9" stop-color="#CA9315"/>
<stop offset="0.91" stop-color="#C48905"/>
<stop offset="0.92" stop-color="#C38600"/>
<stop offset="0.98" stop-color="#FFE37A"/>
</linearGradient>
<linearGradient id="paint9_linear_248_919" x1="339.051" y1="-1550.48" x2="339.051" y2="-1550.78" gradientUnits="userSpaceOnUse">
<stop stop-color="#E0B64A"/>
<stop offset="0.17" stop-color="white"/>
</linearGradient>
<linearGradient id="paint10_linear_248_919" x1="342.546" y1="105.281" x2="335.556" y2="105.281" gradientUnits="userSpaceOnUse">
<stop offset="0.02" stop-color="#E5BA45"/>
<stop offset="0.04" stop-color="#C19113"/>
<stop offset="0.05" stop-color="#B38100"/>
<stop offset="0.08" stop-color="#C09216"/>
<stop offset="0.19" stop-color="#FFE37A"/>
<stop offset="0.33" stop-color="#FFE37A"/>
<stop offset="0.35" stop-color="#EDCC65"/>
<stop offset="0.4" stop-color="#CDA341"/>
<stop offset="0.45" stop-color="#B48324"/>
<stop offset="0.49" stop-color="#A26C10"/>
<stop offset="0.54" stop-color="#975E04"/>
<stop offset="0.58" stop-color="#965D04"/>
<stop offset="0.59" stop-color="#B1873C"/>
<stop offset="0.61" stop-color="#C9AA6C"/>
<stop offset="0.63" stop-color="#DCC893"/>
<stop offset="0.65" stop-color="#EBDEB1"/>
<stop offset="0.66" stop-color="#F6EEC7"/>
<stop offset="0.68" stop-color="#FCF8D4"/>
<stop offset="0.69" stop-color="#FFFCD9"/>
<stop offset="0.75" stop-color="#FFF9C9"/>
<stop offset="0.83" stop-color="#FFF5AC"/>
<stop offset="0.84" stop-color="#F0DA83"/>
<stop offset="0.86" stop-color="#E0BC54"/>
<stop offset="0.88" stop-color="#D3A42F"/>
<stop offset="0.9" stop-color="#CA9315"/>
<stop offset="0.91" stop-color="#C48905"/>
<stop offset="0.92" stop-color="#C38600"/>
<stop offset="0.98" stop-color="#FFE37A"/>
</linearGradient>
<linearGradient id="paint11_linear_248_919" x1="342.546" y1="105.281" x2="335.556" y2="105.281" gradientUnits="userSpaceOnUse">
<stop offset="0.02" stop-color="#E5BA45"/>
<stop offset="0.04" stop-color="#C19113"/>
<stop offset="0.05" stop-color="#B38100"/>
<stop offset="0.08" stop-color="#C09216"/>
<stop offset="0.19" stop-color="#FFE37A"/>
<stop offset="0.33" stop-color="#FFE37A"/>
<stop offset="0.35" stop-color="#EDCC65"/>
<stop offset="0.4" stop-color="#CDA341"/>
<stop offset="0.45" stop-color="#B48324"/>
<stop offset="0.49" stop-color="#A26C10"/>
<stop offset="0.54" stop-color="#975E04"/>
<stop offset="0.58" stop-color="#965D04"/>
<stop offset="0.59" stop-color="#B1873C"/>
<stop offset="0.61" stop-color="#C9AA6C"/>
<stop offset="0.63" stop-color="#DCC893"/>
<stop offset="0.65" stop-color="#EBDEB1"/>
<stop offset="0.66" stop-color="#F6EEC7"/>
<stop offset="0.68" stop-color="#FCF8D4"/>
<stop offset="0.69" stop-color="#FFFCD9"/>
<stop offset="0.75" stop-color="#FFF9C9"/>
<stop offset="0.83" stop-color="#FFF5AC"/>
<stop offset="0.84" stop-color="#F0DA83"/>
<stop offset="0.86" stop-color="#E0BC54"/>
<stop offset="0.88" stop-color="#D3A42F"/>
<stop offset="0.9" stop-color="#CA9315"/>
<stop offset="0.91" stop-color="#C48905"/>
<stop offset="0.92" stop-color="#C38600"/>
<stop offset="0.98" stop-color="#FFE37A"/>
</linearGradient>
<linearGradient id="paint12_linear_248_919" x1="339.051" y1="102.962" x2="339.051" y2="107.597" gradientUnits="userSpaceOnUse">
<stop stop-color="#945A00"/>
<stop offset="0.04" stop-color="#A5752A"/>
<stop offset="0.09" stop-color="#BD9962"/>
<stop offset="0.14" stop-color="#D1B892"/>
<stop offset="0.19" stop-color="#E1D1B9"/>
<stop offset="0.24" stop-color="#EEE5D7"/>
<stop offset="0.29" stop-color="#F7F3ED"/>
<stop offset="0.34" stop-color="#FDFCFA"/>
<stop offset="0.38" stop-color="white"/>
<stop offset="0.74" stop-color="white"/>
<stop offset="0.76" stop-color="#FCFAF8"/>
<stop offset="0.79" stop-color="#F5EFE7"/>
<stop offset="0.83" stop-color="#E8DDCA"/>
<stop offset="0.87" stop-color="#D8C3A2"/>
<stop offset="0.92" stop-color="#C2A16E"/>
<stop offset="0.97" stop-color="#A87931"/>
<stop offset="1" stop-color="#945A00"/>
</linearGradient>
<linearGradient id="paint13_linear_248_919" x1="344.494" y1="108.878" x2="333.607" y2="108.878" gradientUnits="userSpaceOnUse">
<stop offset="0.02" stop-color="#E5BA45"/>
<stop offset="0.04" stop-color="#C19113"/>
<stop offset="0.05" stop-color="#B38100"/>
<stop offset="0.08" stop-color="#C09216"/>
<stop offset="0.19" stop-color="#FFE37A"/>
<stop offset="0.33" stop-color="#FFE37A"/>
<stop offset="0.35" stop-color="#EDCC65"/>
<stop offset="0.4" stop-color="#CDA341"/>
<stop offset="0.45" stop-color="#B48324"/>
<stop offset="0.49" stop-color="#A26C10"/>
<stop offset="0.54" stop-color="#975E04"/>
<stop offset="0.58" stop-color="#965D04"/>
<stop offset="0.59" stop-color="#B1873C"/>
<stop offset="0.61" stop-color="#C9AA6C"/>
<stop offset="0.63" stop-color="#DCC893"/>
<stop offset="0.65" stop-color="#EBDEB1"/>
<stop offset="0.66" stop-color="#F6EEC7"/>
<stop offset="0.68" stop-color="#FCF8D4"/>
<stop offset="0.69" stop-color="#FFFCD9"/>
<stop offset="0.75" stop-color="#FFF9C9"/>
<stop offset="0.83" stop-color="#FFF5AC"/>
<stop offset="0.84" stop-color="#F0DA83"/>
<stop offset="0.86" stop-color="#E0BC54"/>
<stop offset="0.88" stop-color="#D3A42F"/>
<stop offset="0.9" stop-color="#CA9315"/>
<stop offset="0.91" stop-color="#C48905"/>
<stop offset="0.92" stop-color="#C38600"/>
<stop offset="0.98" stop-color="#FFE37A"/>
</linearGradient>
<linearGradient id="paint14_linear_248_919" x1="344.494" y1="108.878" x2="333.607" y2="108.878" gradientUnits="userSpaceOnUse">
<stop offset="0.02" stop-color="#E5BA45"/>
<stop offset="0.04" stop-color="#C19113"/>
<stop offset="0.05" stop-color="#B38100"/>
<stop offset="0.08" stop-color="#C09216"/>
<stop offset="0.19" stop-color="#FFE37A"/>
<stop offset="0.33" stop-color="#FFE37A"/>
<stop offset="0.35" stop-color="#EDCC65"/>
<stop offset="0.4" stop-color="#CDA341"/>
<stop offset="0.45" stop-color="#B48324"/>
<stop offset="0.49" stop-color="#A26C10"/>
<stop offset="0.54" stop-color="#975E04"/>
<stop offset="0.58" stop-color="#965D04"/>
<stop offset="0.59" stop-color="#B1873C"/>
<stop offset="0.61" stop-color="#C9AA6C"/>
<stop offset="0.63" stop-color="#DCC893"/>
<stop offset="0.65" stop-color="#EBDEB1"/>
<stop offset="0.66" stop-color="#F6EEC7"/>
<stop offset="0.68" stop-color="#FCF8D4"/>
<stop offset="0.69" stop-color="#FFFCD9"/>
<stop offset="0.75" stop-color="#FFF9C9"/>
<stop offset="0.83" stop-color="#FFF5AC"/>
<stop offset="0.84" stop-color="#F0DA83"/>
<stop offset="0.86" stop-color="#E0BC54"/>
<stop offset="0.88" stop-color="#D3A42F"/>
<stop offset="0.9" stop-color="#CA9315"/>
<stop offset="0.91" stop-color="#C48905"/>
<stop offset="0.92" stop-color="#C38600"/>
<stop offset="0.98" stop-color="#FFE37A"/>
</linearGradient>
<linearGradient id="paint15_linear_248_919" x1="339.051" y1="293.948" x2="339.051" y2="294.255" gradientUnits="userSpaceOnUse">
<stop stop-color="#E0B64A"/>
<stop offset="0.17" stop-color="white"/>
<stop offset="0.83" stop-color="white"/>
<stop offset="1" stop-color="#E0B64A"/>
</linearGradient>
<linearGradient id="paint16_linear_248_919" x1="333.612" y1="0.173736" x2="344.489" y2="0.173736" gradientUnits="userSpaceOnUse">
<stop stop-color="#FF363A"/>
<stop offset="0.09" stop-color="#D60014"/>
<stop offset="0.15" stop-color="#D60014"/>
<stop offset="0.19" stop-color="#EA151F"/>
<stop offset="0.25" stop-color="#FF2B2B"/>
<stop offset="0.41" stop-color="#FF2121"/>
<stop offset="0.48" stop-color="#DE161B"/>
<stop offset="0.57" stop-color="#BE0C16"/>
<stop offset="0.65" stop-color="#A80512"/>
<stop offset="0.73" stop-color="#9A010F"/>
<stop offset="0.8" stop-color="#96000F"/>
<stop offset="0.84" stop-color="#9A000F"/>
<stop offset="0.88" stop-color="#A70111"/>
<stop offset="0.93" stop-color="#BE0214"/>
<stop offset="0.96" stop-color="#D30418"/>
</linearGradient>
<linearGradient id="paint17_linear_248_919" x1="333.612" y1="0.173736" x2="339.272" y2="1.29187" gradientUnits="userSpaceOnUse">
<stop offset="0.12"/>
<stop offset="0.17" stop-color="#2D0A06"/>
<stop offset="0.22" stop-color="#4D0F06"/>
<stop offset="0.26" stop-color="#6B1307"/>
<stop offset="0.27" stop-color="#601309"/>
<stop offset="0.32" stop-color="#510F07"/>
<stop offset="0.33" stop-color="#580B01"/>
<stop offset="0.36" stop-color="#591006"/>
<stop offset="0.4" stop-color="#691D13"/>
<stop offset="0.43" stop-color="#3C100B"/>
<stop offset="0.46" stop-color="#1B0705"/>
<stop offset="0.48" stop-color="#070201"/>
<stop offset="0.5"/>
</linearGradient>
<linearGradient id="paint18_linear_248_919" x1="7.44697" y1="-1550.48" x2="0.453976" y2="-1550.68" gradientUnits="userSpaceOnUse">
<stop offset="0.02" stop-color="#E5BA45"/>
<stop offset="0.04" stop-color="#C19113"/>
<stop offset="0.05" stop-color="#B38100"/>
<stop offset="0.08" stop-color="#C09216"/>
<stop offset="0.19" stop-color="#FFE37A"/>
<stop offset="0.33" stop-color="#FFE37A"/>
<stop offset="0.35" stop-color="#EDCC65"/>
<stop offset="0.4" stop-color="#CDA341"/>
<stop offset="0.45" stop-color="#B48324"/>
<stop offset="0.49" stop-color="#A26C10"/>
<stop offset="0.54" stop-color="#975E04"/>
<stop offset="0.58" stop-color="#965D04"/>
<stop offset="0.59" stop-color="#B1873C"/>
<stop offset="0.61" stop-color="#C9AA6C"/>
<stop offset="0.63" stop-color="#DCC893"/>
<stop offset="0.65" stop-color="#EBDEB1"/>
<stop offset="0.66" stop-color="#F6EEC7"/>
<stop offset="0.68" stop-color="#FCF8D4"/>
<stop offset="0.69" stop-color="#FFFCD9"/>
<stop offset="0.75" stop-color="#FFF9C9"/>
<stop offset="0.83" stop-color="#FFF5AC"/>
<stop offset="0.84" stop-color="#F0DA83"/>
<stop offset="0.86" stop-color="#E0BC54"/>
<stop offset="0.88" stop-color="#D3A42F"/>
<stop offset="0.9" stop-color="#CA9315"/>
<stop offset="0.91" stop-color="#C48905"/>
<stop offset="0.92" stop-color="#C38600"/>
<stop offset="0.98" stop-color="#FFE37A"/>
</linearGradient>
<linearGradient id="paint19_linear_248_919" x1="7.44697" y1="-1550.48" x2="0.453976" y2="-1550.68" gradientUnits="userSpaceOnUse">
<stop offset="0.02" stop-color="#E5BA45"/>
<stop offset="0.04" stop-color="#C19113"/>
<stop offset="0.05" stop-color="#B38100"/>
<stop offset="0.08" stop-color="#C09216"/>
<stop offset="0.19" stop-color="#FFE37A"/>
<stop offset="0.33" stop-color="#FFE37A"/>
<stop offset="0.35" stop-color="#EDCC65"/>
<stop offset="0.4" stop-color="#CDA341"/>
<stop offset="0.45" stop-color="#B48324"/>
<stop offset="0.49" stop-color="#A26C10"/>
<stop offset="0.54" stop-color="#975E04"/>
<stop offset="0.58" stop-color="#965D04"/>
<stop offset="0.59" stop-color="#B1873C"/>
<stop offset="0.61" stop-color="#C9AA6C"/>
<stop offset="0.63" stop-color="#DCC893"/>
<stop offset="0.65" stop-color="#EBDEB1"/>
<stop offset="0.66" stop-color="#F6EEC7"/>
<stop offset="0.68" stop-color="#FCF8D4"/>
<stop offset="0.69" stop-color="#FFFCD9"/>
<stop offset="0.75" stop-color="#FFF9C9"/>
<stop offset="0.83" stop-color="#FFF5AC"/>
<stop offset="0.84" stop-color="#F0DA83"/>
<stop offset="0.86" stop-color="#E0BC54"/>
<stop offset="0.88" stop-color="#D3A42F"/>
<stop offset="0.9" stop-color="#CA9315"/>
<stop offset="0.91" stop-color="#C48905"/>
<stop offset="0.92" stop-color="#C38600"/>
<stop offset="0.98" stop-color="#FFE37A"/>
</linearGradient>
<linearGradient id="paint20_linear_248_919" x1="3.95196" y1="-1550.48" x2="3.95196" y2="-1550.79" gradientUnits="userSpaceOnUse">
<stop stop-color="#945A00"/>
<stop offset="0.04" stop-color="#A5752A"/>
<stop offset="0.09" stop-color="#BD9962"/>
<stop offset="0.14" stop-color="#D1B892"/>
<stop offset="0.19" stop-color="#E1D1B9"/>
<stop offset="0.24" stop-color="#EEE5D7"/>
<stop offset="0.29" stop-color="#F7F3ED"/>
<stop offset="0.34" stop-color="#FDFCFA"/>
<stop offset="0.38" stop-color="white"/>
<stop offset="0.74" stop-color="white"/>
<stop offset="0.76" stop-color="#FCFAF8"/>
<stop offset="0.79" stop-color="#F5EFE7"/>
<stop offset="0.83" stop-color="#E8DDCA"/>
<stop offset="0.87" stop-color="#D8C3A2"/>
<stop offset="0.92" stop-color="#C2A16E"/>
<stop offset="0.97" stop-color="#A87931"/>
<stop offset="1" stop-color="#945A00"/>
</linearGradient>
<linearGradient id="paint21_linear_248_919" x1="9.39563" y1="1.62333" x2="-1.49169" y2="1.62333" gradientUnits="userSpaceOnUse">
<stop offset="0.02" stop-color="#E5BA45"/>
<stop offset="0.04" stop-color="#C19113"/>
<stop offset="0.05" stop-color="#B38100"/>
<stop offset="0.08" stop-color="#C09216"/>
<stop offset="0.19" stop-color="#FFE37A"/>
<stop offset="0.33" stop-color="#FFE37A"/>
<stop offset="0.35" stop-color="#EDCC65"/>
<stop offset="0.4" stop-color="#CDA341"/>
<stop offset="0.45" stop-color="#B48324"/>
<stop offset="0.49" stop-color="#A26C10"/>
<stop offset="0.54" stop-color="#975E04"/>
<stop offset="0.58" stop-color="#965D04"/>
<stop offset="0.59" stop-color="#B1873C"/>
<stop offset="0.61" stop-color="#C9AA6C"/>
<stop offset="0.63" stop-color="#DCC893"/>
<stop offset="0.65" stop-color="#EBDEB1"/>
<stop offset="0.66" stop-color="#F6EEC7"/>
<stop offset="0.68" stop-color="#FCF8D4"/>
<stop offset="0.69" stop-color="#FFFCD9"/>
<stop offset="0.75" stop-color="#FFF9C9"/>
<stop offset="0.83" stop-color="#FFF5AC"/>
<stop offset="0.84" stop-color="#F0DA83"/>
<stop offset="0.86" stop-color="#E0BC54"/>
<stop offset="0.88" stop-color="#D3A42F"/>
<stop offset="0.9" stop-color="#CA9315"/>
<stop offset="0.91" stop-color="#C48905"/>
<stop offset="0.92" stop-color="#C38600"/>
<stop offset="0.98" stop-color="#FFE37A"/>
</linearGradient>
<linearGradient id="paint22_linear_248_919" x1="9.39563" y1="1.62333" x2="-1.49169" y2="1.62333" gradientUnits="userSpaceOnUse">
<stop offset="0.02" stop-color="#E5BA45"/>
<stop offset="0.04" stop-color="#C19113"/>
<stop offset="0.05" stop-color="#B38100"/>
<stop offset="0.08" stop-color="#C09216"/>
<stop offset="0.19" stop-color="#FFE37A"/>
<stop offset="0.33" stop-color="#FFE37A"/>
<stop offset="0.35" stop-color="#EDCC65"/>
<stop offset="0.4" stop-color="#CDA341"/>
<stop offset="0.45" stop-color="#B48324"/>
<stop offset="0.49" stop-color="#A26C10"/>
<stop offset="0.54" stop-color="#975E04"/>
<stop offset="0.58" stop-color="#965D04"/>
<stop offset="0.59" stop-color="#B1873C"/>
<stop offset="0.61" stop-color="#C9AA6C"/>
<stop offset="0.63" stop-color="#DCC893"/>
<stop offset="0.65" stop-color="#EBDEB1"/>
<stop offset="0.66" stop-color="#F6EEC7"/>
<stop offset="0.68" stop-color="#FCF8D4"/>
<stop offset="0.69" stop-color="#FFFCD9"/>
<stop offset="0.75" stop-color="#FFF9C9"/>
<stop offset="0.83" stop-color="#FFF5AC"/>
<stop offset="0.84" stop-color="#F0DA83"/>
<stop offset="0.86" stop-color="#E0BC54"/>
<stop offset="0.88" stop-color="#D3A42F"/>
<stop offset="0.9" stop-color="#CA9315"/>
<stop offset="0.91" stop-color="#C48905"/>
<stop offset="0.92" stop-color="#C38600"/>
<stop offset="0.98" stop-color="#FFE37A"/>
</linearGradient>
<linearGradient id="paint23_linear_248_919" x1="3.95197" y1="-1550.48" x2="3.95197" y2="-1550.79" gradientUnits="userSpaceOnUse">
<stop stop-color="#E0B64A"/>
<stop offset="0.17" stop-color="white"/>
</linearGradient>
<linearGradient id="paint24_linear_248_919" x1="7.44695" y1="105.281" x2="0.456931" y2="105.281" gradientUnits="userSpaceOnUse">
<stop offset="0.02" stop-color="#E5BA45"/>
<stop offset="0.04" stop-color="#C19113"/>
<stop offset="0.05" stop-color="#B38100"/>
<stop offset="0.08" stop-color="#C09216"/>
<stop offset="0.19" stop-color="#FFE37A"/>
<stop offset="0.33" stop-color="#FFE37A"/>
<stop offset="0.35" stop-color="#EDCC65"/>
<stop offset="0.4" stop-color="#CDA341"/>
<stop offset="0.45" stop-color="#B48324"/>
<stop offset="0.49" stop-color="#A26C10"/>
<stop offset="0.54" stop-color="#975E04"/>
<stop offset="0.58" stop-color="#965D04"/>
<stop offset="0.59" stop-color="#B1873C"/>
<stop offset="0.61" stop-color="#C9AA6C"/>
<stop offset="0.63" stop-color="#DCC893"/>
<stop offset="0.65" stop-color="#EBDEB1"/>
<stop offset="0.66" stop-color="#F6EEC7"/>
<stop offset="0.68" stop-color="#FCF8D4"/>
<stop offset="0.69" stop-color="#FFFCD9"/>
<stop offset="0.75" stop-color="#FFF9C9"/>
<stop offset="0.83" stop-color="#FFF5AC"/>
<stop offset="0.84" stop-color="#F0DA83"/>
<stop offset="0.86" stop-color="#E0BC54"/>
<stop offset="0.88" stop-color="#D3A42F"/>
<stop offset="0.9" stop-color="#CA9315"/>
<stop offset="0.91" stop-color="#C48905"/>
<stop offset="0.92" stop-color="#C38600"/>
<stop offset="0.98" stop-color="#FFE37A"/>
</linearGradient>
<linearGradient id="paint25_linear_248_919" x1="7.44695" y1="105.281" x2="0.456931" y2="105.281" gradientUnits="userSpaceOnUse">
<stop offset="0.02" stop-color="#E5BA45"/>
<stop offset="0.04" stop-color="#C19113"/>
<stop offset="0.05" stop-color="#B38100"/>
<stop offset="0.08" stop-color="#C09216"/>
<stop offset="0.19" stop-color="#FFE37A"/>
<stop offset="0.33" stop-color="#FFE37A"/>
<stop offset="0.35" stop-color="#EDCC65"/>
<stop offset="0.4" stop-color="#CDA341"/>
<stop offset="0.45" stop-color="#B48324"/>
<stop offset="0.49" stop-color="#A26C10"/>
<stop offset="0.54" stop-color="#975E04"/>
<stop offset="0.58" stop-color="#965D04"/>
<stop offset="0.59" stop-color="#B1873C"/>
<stop offset="0.61" stop-color="#C9AA6C"/>
<stop offset="0.63" stop-color="#DCC893"/>
<stop offset="0.65" stop-color="#EBDEB1"/>
<stop offset="0.66" stop-color="#F6EEC7"/>
<stop offset="0.68" stop-color="#FCF8D4"/>
<stop offset="0.69" stop-color="#FFFCD9"/>
<stop offset="0.75" stop-color="#FFF9C9"/>
<stop offset="0.83" stop-color="#FFF5AC"/>
<stop offset="0.84" stop-color="#F0DA83"/>
<stop offset="0.86" stop-color="#E0BC54"/>
<stop offset="0.88" stop-color="#D3A42F"/>
<stop offset="0.9" stop-color="#CA9315"/>
<stop offset="0.91" stop-color="#C48905"/>
<stop offset="0.92" stop-color="#C38600"/>
<stop offset="0.98" stop-color="#FFE37A"/>
</linearGradient>
<linearGradient id="paint26_linear_248_919" x1="3.95194" y1="102.962" x2="3.95194" y2="107.597" gradientUnits="userSpaceOnUse">
<stop stop-color="#945A00"/>
<stop offset="0.04" stop-color="#A5752A"/>
<stop offset="0.09" stop-color="#BD9962"/>
<stop offset="0.14" stop-color="#D1B892"/>
<stop offset="0.19" stop-color="#E1D1B9"/>
<stop offset="0.24" stop-color="#EEE5D7"/>
<stop offset="0.29" stop-color="#F7F3ED"/>
<stop offset="0.34" stop-color="#FDFCFA"/>
<stop offset="0.38" stop-color="white"/>
<stop offset="0.74" stop-color="white"/>
<stop offset="0.76" stop-color="#FCFAF8"/>
<stop offset="0.79" stop-color="#F5EFE7"/>
<stop offset="0.83" stop-color="#E8DDCA"/>
<stop offset="0.87" stop-color="#D8C3A2"/>
<stop offset="0.92" stop-color="#C2A16E"/>
<stop offset="0.97" stop-color="#A87931"/>
<stop offset="1" stop-color="#945A00"/>
</linearGradient>
<linearGradient id="paint27_linear_248_919" x1="9.39566" y1="108.878" x2="-1.49165" y2="108.878" gradientUnits="userSpaceOnUse">
<stop offset="0.02" stop-color="#E5BA45"/>
<stop offset="0.04" stop-color="#C19113"/>
<stop offset="0.05" stop-color="#B38100"/>
<stop offset="0.08" stop-color="#C09216"/>
<stop offset="0.19" stop-color="#FFE37A"/>
<stop offset="0.33" stop-color="#FFE37A"/>
<stop offset="0.35" stop-color="#EDCC65"/>
<stop offset="0.4" stop-color="#CDA341"/>
<stop offset="0.45" stop-color="#B48324"/>
<stop offset="0.49" stop-color="#A26C10"/>
<stop offset="0.54" stop-color="#975E04"/>
<stop offset="0.58" stop-color="#965D04"/>
<stop offset="0.59" stop-color="#B1873C"/>
<stop offset="0.61" stop-color="#C9AA6C"/>
<stop offset="0.63" stop-color="#DCC893"/>
<stop offset="0.65" stop-color="#EBDEB1"/>
<stop offset="0.66" stop-color="#F6EEC7"/>
<stop offset="0.68" stop-color="#FCF8D4"/>
<stop offset="0.69" stop-color="#FFFCD9"/>
<stop offset="0.75" stop-color="#FFF9C9"/>
<stop offset="0.83" stop-color="#FFF5AC"/>
<stop offset="0.84" stop-color="#F0DA83"/>
<stop offset="0.86" stop-color="#E0BC54"/>
<stop offset="0.88" stop-color="#D3A42F"/>
<stop offset="0.9" stop-color="#CA9315"/>
<stop offset="0.91" stop-color="#C48905"/>
<stop offset="0.92" stop-color="#C38600"/>
<stop offset="0.98" stop-color="#FFE37A"/>
</linearGradient>
<linearGradient id="paint28_linear_248_919" x1="9.39566" y1="108.878" x2="-1.49165" y2="108.878" gradientUnits="userSpaceOnUse">
<stop offset="0.02" stop-color="#E5BA45"/>
<stop offset="0.04" stop-color="#C19113"/>
<stop offset="0.05" stop-color="#B38100"/>
<stop offset="0.08" stop-color="#C09216"/>
<stop offset="0.19" stop-color="#FFE37A"/>
<stop offset="0.33" stop-color="#FFE37A"/>
<stop offset="0.35" stop-color="#EDCC65"/>
<stop offset="0.4" stop-color="#CDA341"/>
<stop offset="0.45" stop-color="#B48324"/>
<stop offset="0.49" stop-color="#A26C10"/>
<stop offset="0.54" stop-color="#975E04"/>
<stop offset="0.58" stop-color="#965D04"/>
<stop offset="0.59" stop-color="#B1873C"/>
<stop offset="0.61" stop-color="#C9AA6C"/>
<stop offset="0.63" stop-color="#DCC893"/>
<stop offset="0.65" stop-color="#EBDEB1"/>
<stop offset="0.66" stop-color="#F6EEC7"/>
<stop offset="0.68" stop-color="#FCF8D4"/>
<stop offset="0.69" stop-color="#FFFCD9"/>
<stop offset="0.75" stop-color="#FFF9C9"/>
<stop offset="0.83" stop-color="#FFF5AC"/>
<stop offset="0.84" stop-color="#F0DA83"/>
<stop offset="0.86" stop-color="#E0BC54"/>
<stop offset="0.88" stop-color="#D3A42F"/>
<stop offset="0.9" stop-color="#CA9315"/>
<stop offset="0.91" stop-color="#C48905"/>
<stop offset="0.92" stop-color="#C38600"/>
<stop offset="0.98" stop-color="#FFE37A"/>
</linearGradient>
<linearGradient id="paint29_linear_248_919" x1="3.95201" y1="293.948" x2="3.95201" y2="294.255" gradientUnits="userSpaceOnUse">
<stop stop-color="#E0B64A"/>
<stop offset="0.17" stop-color="white"/>
<stop offset="0.83" stop-color="white"/>
<stop offset="1" stop-color="#E0B64A"/>
</linearGradient>
<linearGradient id="paint30_linear_248_919" x1="-1.48668" y1="0.173736" x2="9.39058" y2="0.173736" gradientUnits="userSpaceOnUse">
<stop stop-color="#FF363A"/>
<stop offset="0.09" stop-color="#D60014"/>
<stop offset="0.15" stop-color="#D60014"/>
<stop offset="0.19" stop-color="#EA151F"/>
<stop offset="0.25" stop-color="#FF2B2B"/>
<stop offset="0.41" stop-color="#FF2121"/>
<stop offset="0.48" stop-color="#DE161B"/>
<stop offset="0.57" stop-color="#BE0C16"/>
<stop offset="0.65" stop-color="#A80512"/>
<stop offset="0.73" stop-color="#9A010F"/>
<stop offset="0.8" stop-color="#96000F"/>
<stop offset="0.84" stop-color="#9A000F"/>
<stop offset="0.88" stop-color="#A70111"/>
<stop offset="0.93" stop-color="#BE0214"/>
<stop offset="0.96" stop-color="#D30418"/>
</linearGradient>
<linearGradient id="paint31_linear_248_919" x1="-1.48668" y1="0.173736" x2="9.39058" y2="0.173736" gradientUnits="userSpaceOnUse">
<stop offset="0.12"/>
<stop offset="0.17" stop-color="#581810"/>
<stop offset="0.22" stop-color="#701B10"/>
<stop offset="0.26" stop-color="#76180B"/>
<stop offset="0.27" stop-color="#881B0D"/>
<stop offset="0.32" stop-color="#831A0D"/>
<stop offset="0.33" stop-color="#831809"/>
<stop offset="0.36" stop-color="#831C0E"/>
<stop offset="0.4" stop-color="#691D13"/>
<stop offset="0.43" stop-color="#3C100B"/>
<stop offset="0.46" stop-color="#1B0705"/>
<stop offset="0.48" stop-color="#070201"/>
<stop offset="0.5"/>
</linearGradient>
<clipPath id="clip0_248_919">
<rect width="343" height="110.357" fill="white" transform="translate(0 0.17334)"/>
</clipPath>
</defs>
</svg>
