<svg width="20" height="20" viewBox="0 0 20 20" fill="none" xmlns="http://www.w3.org/2000/svg">
<g clip-path="url(#clip0_107_102)">
<path d="M18.0314 7.10762L18.6549 5.07154L18.5064 5.01174C18.4032 4.9701 15.9427 3.99637 13.814 5.05232C13.7255 5.09609 13.636 5.14734 13.5465 5.205C13.6181 4.90498 13.6539 4.63058 13.6518 4.38287C13.6339 1.98057 11.6768 0.183643 11.5936 0.108905L11.4736 0L9.95471 1.47341L8.41268 0.0234892L8.29471 0.133461C8.21256 0.210335 6.28081 2.03609 6.29872 4.43839C6.30082 4.68503 6.33979 4.9605 6.41563 5.25945C6.32399 5.20179 6.23341 5.15161 6.14493 5.10997C4.00147 4.08606 1.55572 5.09609 1.4525 5.13987L1.30503 5.20179L1.95703 7.22827L0 8.00769L0.0463451 8.1625C0.0789973 8.27141 0.86581 10.8264 3.01032 11.8503C3.44112 12.0564 4.01938 12.1749 4.73457 12.2059C4.1363 12.618 3.70234 13.0312 3.44217 13.439C2.15399 15.4559 2.81546 18.0483 2.8439 18.1572L2.88498 18.3141L4.95365 17.9287L5.45397 19.9989L5.61197 19.9733C5.72256 19.9552 8.32631 19.5057 9.61344 17.4888C9.79461 17.2048 9.94523 16.8407 10.0611 16.4008C10.1843 16.8386 10.3392 17.2005 10.5245 17.4824C11.8422 19.48 14.4512 19.89 14.5618 19.906L14.7209 19.9295L15.1917 17.8518L17.2656 18.2063L17.3046 18.0483C17.332 17.9383 17.9556 15.3374 16.6379 13.3397C16.3714 12.9351 15.9311 12.5283 15.3276 12.1258C16.0417 12.0841 16.6179 11.956 17.0455 11.7446C19.1742 10.6876 19.9242 8.12086 19.9547 8.01303L19.9989 7.85714L18.0303 7.10656L18.0314 7.10762ZM16.8938 11.4296C16.4019 11.6741 15.6804 11.798 14.7377 11.7905L14.0784 11.7873L14.6503 12.1194C15.4719 12.5966 16.0438 13.0728 16.3493 13.5373C17.4015 15.1335 17.1108 17.2197 17.0002 17.8059L14.9263 17.4525L14.4554 19.5302C13.8793 19.4096 11.8654 18.8843 10.8131 17.2881C10.5509 16.8898 10.3529 16.2983 10.2254 15.5328L10.0463 14.4501L9.88308 15.5349C9.76722 16.3026 9.57868 16.8962 9.32168 17.2987C8.29261 18.911 6.28713 19.4651 5.71203 19.5953L5.21171 17.5251L3.14304 17.9105C3.02402 17.3276 2.70171 15.2466 3.73183 13.6323C4.03097 13.1636 4.59553 12.6778 5.41079 12.1888L5.97746 11.8482L5.31915 11.861C4.37961 11.8813 3.65283 11.7692 3.15778 11.5321C1.44512 10.7132 0.634085 8.77322 0.430798 8.21375L2.38888 7.43434L1.73583 5.40679C2.29092 5.20927 4.2806 4.60709 5.99747 5.42708C6.19444 5.52103 6.40615 5.66197 6.62629 5.84668L7.11713 6.25667L6.90015 5.65129C6.73373 5.18685 6.64841 4.77792 6.64525 4.43519C6.63156 2.51548 8.00611 0.93423 8.41479 0.506086L9.95576 1.95708L11.4757 0.483664C11.8917 0.905403 13.2894 2.46637 13.3031 4.38608C13.3052 4.72881 13.2262 5.1388 13.0661 5.60538L12.8576 6.21503L13.3421 5.79757C13.5601 5.60965 13.7697 5.46551 13.9646 5.36835C15.6657 4.52381 17.6669 5.09609 18.2252 5.28401L17.6016 7.32009L19.5703 8.07068C19.3754 8.63335 18.5928 10.5862 16.8917 11.4296H16.8938Z" fill="#860002"/>
<path d="M12.6047 9.35413C12.8765 9.35413 13.0977 9.12992 13.0977 8.85445C13.0977 8.57899 12.8765 8.35477 12.6047 8.35477C12.333 8.35477 12.1118 8.57899 12.1118 8.85445C12.1118 8.89075 12.116 8.92492 12.1234 8.95909L10.5592 9.71608C10.4655 9.56553 10.3075 9.46197 10.1253 9.43955V7.66718C10.3644 7.63194 10.5477 7.42588 10.5477 7.17497C10.5477 6.89951 10.3265 6.67529 10.0547 6.67529C9.78296 6.67529 9.56176 6.89951 9.56176 7.17497C9.56176 7.42695 9.74609 7.63301 9.98519 7.66718V9.43955C9.80192 9.46197 9.64497 9.56553 9.55123 9.71608L7.85437 8.89502C7.87754 8.83737 7.89018 8.77544 7.89018 8.70925C7.89018 8.43378 7.66899 8.20957 7.39724 8.20957C7.12549 8.20957 6.9043 8.43378 6.9043 8.70925C6.9043 8.98471 7.12549 9.20893 7.39724 9.20893C7.55418 9.20893 7.69216 9.13312 7.78275 9.01781L9.49225 9.8442C9.47223 9.90506 9.45854 9.97019 9.45854 10.0385C9.45854 10.1069 9.47223 10.1709 9.49225 10.2328L7.85964 11.0229C7.77432 10.8735 7.61738 10.771 7.43411 10.771C7.16235 10.771 6.94116 10.9952 6.94116 11.2706C6.94116 11.5461 7.16235 11.7703 7.43411 11.7703C7.70586 11.7703 7.92705 11.5461 7.92705 11.2706C7.92705 11.2301 7.92073 11.1916 7.9123 11.1543L9.55228 10.361C9.64603 10.5115 9.80402 10.6151 9.98624 10.6375V12.3714C9.74188 12.4013 9.55123 12.6095 9.55123 12.8647C9.55123 13.1402 9.77242 13.3644 10.0442 13.3644C10.3159 13.3644 10.5371 13.1412 10.5371 12.8647C10.5371 12.617 10.3591 12.4131 10.1263 12.3736V10.6364C10.3096 10.6151 10.4665 10.5104 10.5603 10.3599L12.076 11.0934C12.0633 11.1382 12.0539 11.1842 12.0539 11.2333C12.0539 11.5087 12.2751 11.7329 12.5468 11.7329C12.8186 11.7329 13.0398 11.5087 13.0398 11.2333C13.0398 10.9578 12.8196 10.7336 12.5468 10.7336C12.373 10.7336 12.2203 10.8254 12.1329 10.9631L10.6193 10.2307C10.6393 10.1698 10.653 10.1047 10.653 10.0364C10.653 9.96805 10.6393 9.90399 10.6193 9.84207L12.175 9.08934C12.2582 9.24523 12.4194 9.352 12.6058 9.352L12.6047 9.35413Z" fill="#860002"/>
</g>
<defs>
<clipPath id="clip0_107_102">
<rect width="20" height="20" fill="white"/>
</clipPath>
</defs>
</svg>
