<svg width="105" height="33" viewBox="0 0 105 33" fill="none" xmlns="http://www.w3.org/2000/svg">
<g clip-path="url(#clip0_123_101)">
<path d="M102.753 9.37054H76.9324C75.6987 9.37054 74.6853 8.35711 74.6853 7.12337V6.93244C74.6853 5.6987 75.6987 4.68527 76.9324 4.68527H90.8414C92.0751 4.68527 93.0885 3.67184 93.0885 2.4381V2.24717C93.0885 1.01343 92.0751 0 90.8414 0H38.9729C37.7392 0 36.7258 1.01343 36.7258 2.24717V2.4381C36.7258 3.67184 37.7392 4.68527 38.9729 4.68527H60.1888C61.4226 4.68527 62.436 5.6987 62.436 6.93244V7.12337C62.436 8.35711 61.4226 9.37054 60.1888 9.37054H25.1081C23.8743 9.37054 22.8609 10.384 22.8609 11.6177V11.8086C22.8609 13.0424 23.8743 14.0558 25.1081 14.0558H48.2039C49.4377 14.0558 50.4511 15.0692 50.4511 16.303V16.4939C50.4511 17.7277 49.4377 18.7411 48.2039 18.7411H2.24717C1.01343 18.7411 0 19.7545 0 20.9883V21.1792C0 22.4129 1.01343 23.4264 2.24717 23.4264H39.2446C40.4784 23.4264 41.4918 24.4398 41.4918 25.6735V25.8645C41.4918 27.0982 40.4784 28.1116 39.2446 28.1116H37.2912C36.0575 28.1116 35.0441 29.1251 35.0441 30.3588V30.5497C35.0441 31.7835 36.0575 32.7969 37.2912 32.7969H58.8449C60.0787 32.7969 61.0921 31.7835 61.0921 30.5497V30.3588C61.0921 29.1251 60.0787 28.1116 58.8449 28.1116H53.0508C51.817 28.1116 50.8036 27.0982 50.8036 25.8645V25.6735C50.8036 24.4398 51.817 23.4264 53.0508 23.4264H75.5224C76.7562 23.4264 77.7696 22.4129 77.7696 21.1792V20.9883C77.7696 19.7545 76.7562 18.7411 75.5224 18.7411H64.9475C63.7138 18.7411 62.7004 17.7277 62.7004 16.4939V16.303C62.7004 15.0692 63.7138 14.0558 64.9475 14.0558H102.745C103.979 14.0558 104.993 13.0424 104.993 11.8086V11.6177C104.993 10.384 103.979 9.37054 102.745 9.37054H102.753Z" fill="#B99E58"/>
</g>
<defs>
<clipPath id="clip0_123_101">
<rect width="105" height="32.8042" fill="white"/>
</clipPath>
</defs>
</svg>
