<svg width="293" height="42" viewBox="0 0 293 42" fill="none" xmlns="http://www.w3.org/2000/svg">
<g clip-path="url(#clip0_123_90)">
<path d="M1.5 39.75H257.7C262.2 39.75 265.88 37 265.88 33.65V33.11C265.88 29.75 262.2 27.01 257.7 27.01H229.09" stroke="#B99E58" stroke-width="3" stroke-linecap="round" stroke-linejoin="round"/>
<path d="M251.45 39.75C255.95 39.75 259.63 37 259.63 33.65V33.11C259.63 29.75 255.95 27.01 251.45 27.01" stroke="#B99E58" stroke-width="3" stroke-linecap="round" stroke-linejoin="round"/>
<path d="M239.09 14.25C234.59 14.25 230.91 17 230.91 20.35V20.89C230.91 24.25 234.59 26.99 239.09 26.99" stroke="#B99E58" stroke-width="3" stroke-linecap="round" stroke-linejoin="round"/>
<path d="M232.91 14.25C228.41 14.25 224.73 17 224.73 20.35V20.89C224.73 24.25 228.41 26.99 232.91 26.99" stroke="#B99E58" stroke-width="3" stroke-linecap="round" stroke-linejoin="round"/>
<path d="M226.79 14.25C222.29 14.25 218.61 17 218.61 20.35V20.89C218.61 24.25 222.29 26.99 226.79 26.99H232.79" stroke="#B99E58" stroke-width="3" stroke-linecap="round" stroke-linejoin="round"/>
<path d="M245.27 39.75C249.77 39.75 253.45 37 253.45 33.65V33.11C253.45 29.75 249.77 27.01 245.27 27.01" stroke="#B99E58" stroke-width="3" stroke-linecap="round" stroke-linejoin="round"/>
<path d="M277.14 14.25C281.64 14.25 285.32 11.5 285.32 8.15001V7.61001C285.32 4.25001 281.64 1.51001 277.14 1.51001" stroke="#B99E58" stroke-width="3" stroke-linecap="round" stroke-linejoin="round"/>
<path d="M271.03 14.25C275.53 14.25 279.21 11.5 279.21 8.15001V7.61001C279.21 4.25001 275.53 1.51001 271.03 1.51001" stroke="#B99E58" stroke-width="3" stroke-linecap="round" stroke-linejoin="round"/>
<path d="M264.88 1.5H283.32C287.82 1.5 291.5 4.25 291.5 7.6V8.14C291.5 11.5 287.82 14.24 283.32 14.24H226.5" stroke="#B99E58" stroke-width="3" stroke-linecap="round" stroke-linejoin="round"/>
</g>
<defs>
<clipPath id="clip0_123_90">
<rect width="293" height="41.25" fill="white" transform="matrix(-1 0 0 1 293 0)"/>
</clipPath>
</defs>
</svg>
