<svg width="143" height="45" viewBox="0 0 143 45" fill="none" xmlns="http://www.w3.org/2000/svg">
<g clip-path="url(#clip0_123_104)">
<path d="M139.92 12.76H104.76C103.08 12.76 101.7 11.38 101.7 9.7V9.44C101.7 7.76 103.08 6.38 104.76 6.38H123.7C125.38 6.38 126.76 5 126.76 3.32V3.06C126.76 1.38 125.38 0 123.7 0H53.07C51.39 0 50.01 1.38 50.01 3.06V3.32C50.01 5 51.39 6.38 53.07 6.38H81.96C83.64 6.38 85.02 7.76 85.02 9.44V9.7C85.02 11.38 83.64 12.76 81.96 12.76H34.19C32.51 12.76 31.13 14.14 31.13 15.82V16.08C31.13 17.76 32.51 19.14 34.19 19.14H65.64C67.32 19.14 68.7 20.52 68.7 22.2V22.46C68.7 24.14 67.32 25.52 65.64 25.52H3.06C1.38 25.52 0 26.9 0 28.58V28.84C0 30.52 1.38 31.9 3.06 31.9H53.44C55.12 31.9 56.5 33.28 56.5 34.96V35.22C56.5 36.9 55.12 38.28 53.44 38.28H50.78C49.1 38.28 47.72 39.66 47.72 41.34V41.6C47.72 43.28 49.1 44.66 50.78 44.66H80.13C81.81 44.66 83.19 43.28 83.19 41.6V41.34C83.19 39.66 81.81 38.28 80.13 38.28H72.24C70.56 38.28 69.18 36.9 69.18 35.22V34.96C69.18 33.28 70.56 31.9 72.24 31.9H102.84C104.52 31.9 105.9 30.52 105.9 28.84V28.58C105.9 26.9 104.52 25.52 102.84 25.52H88.44C86.76 25.52 85.38 24.14 85.38 22.46V22.2C85.38 20.52 86.76 19.14 88.44 19.14H139.91C141.59 19.14 142.97 17.76 142.97 16.08V15.82C142.97 14.14 141.59 12.76 139.91 12.76H139.92Z" fill="#B99E58"/>
</g>
<defs>
<clipPath id="clip0_123_104">
<rect width="142.98" height="44.67" fill="white"/>
</clipPath>
</defs>
</svg>
