<svg width="30" height="31" viewBox="0 0 30 31" fill="none" xmlns="http://www.w3.org/2000/svg">
<g filter="url(#filter0_d_374_290)">
<circle cx="12.6875" cy="12.6875" r="12.6875" transform="matrix(-1 0 0 1 27.375 1.3125)" fill="white"/>
<circle cx="12.6875" cy="12.6875" r="12.4688" transform="matrix(-1 0 0 1 27.375 1.3125)" stroke="url(#paint0_linear_374_290)" stroke-width="0.4375"/>
</g>
<path fill-rule="evenodd" clip-rule="evenodd" d="M12.8025 6.96209C12.4305 7.3282 12.4305 7.9218 12.8025 8.28791L17.8433 13.25L12.8025 18.2121C12.4305 18.5782 12.4305 19.1718 12.8025 19.5379C13.1744 19.904 13.7774 19.904 14.1493 19.5379L19.8636 13.9129C20.2356 13.5468 20.2356 12.9532 19.8636 12.5871L14.1493 6.96209C13.7774 6.59597 13.1744 6.59597 12.8025 6.96209Z" fill="url(#paint1_linear_374_290)"/>
<path fill-rule="evenodd" clip-rule="evenodd" d="M11.9289 9.53358C11.7058 9.75674 11.7058 10.1185 11.9289 10.3417L14.9535 13.3662L11.9289 16.3907C11.7058 16.6139 11.7058 16.9757 11.9289 17.1988C12.1521 17.422 12.5139 17.422 12.7371 17.1988L16.1656 13.7703C16.3888 13.5471 16.3888 13.1853 16.1656 12.9622L12.7371 9.53358C12.5139 9.31042 12.1521 9.31042 11.9289 9.53358Z" fill="url(#paint2_linear_374_290)"/>
<defs>
<filter id="filter0_d_374_290" x="0.25" y="1.3125" width="28.875" height="28.875" filterUnits="userSpaceOnUse" color-interpolation-filters="sRGB">
<feFlood flood-opacity="0" result="BackgroundImageFix"/>
<feColorMatrix in="SourceAlpha" type="matrix" values="0 0 0 0 0 0 0 0 0 0 0 0 0 0 0 0 0 0 127 0" result="hardAlpha"/>
<feOffset dy="1.75"/>
<feGaussianBlur stdDeviation="0.875"/>
<feComposite in2="hardAlpha" operator="out"/>
<feColorMatrix type="matrix" values="0 0 0 0 0.752941 0 0 0 0 0.596078 0 0 0 0 0.239216 0 0 0 0.4 0"/>
<feBlend mode="normal" in2="BackgroundImageFix" result="effect1_dropShadow_374_290"/>
<feBlend mode="normal" in="SourceGraphic" in2="effect1_dropShadow_374_290" result="shape"/>
</filter>
<linearGradient id="paint0_linear_374_290" x1="0" y1="12.6866" x2="25.375" y2="12.6866" gradientUnits="userSpaceOnUse">
<stop offset="0.03" stop-color="#FADFB4"/>
<stop offset="0.59" stop-color="#C0983D"/>
<stop offset="0.74" stop-color="#C79E3F"/>
<stop offset="0.97" stop-color="#DAAF47"/>
<stop offset="1" stop-color="#DEB249"/>
</linearGradient>
<linearGradient id="paint1_linear_374_290" x1="20.1426" y1="13.2495" x2="12.5235" y2="13.2495" gradientUnits="userSpaceOnUse">
<stop offset="0.03" stop-color="#FADFB4"/>
<stop offset="0.59" stop-color="#C0983D"/>
<stop offset="0.74" stop-color="#C79E3F"/>
<stop offset="0.97" stop-color="#DAAF47"/>
<stop offset="1" stop-color="#DEB249"/>
</linearGradient>
<linearGradient id="paint2_linear_374_290" x1="16.333" y1="13.3659" x2="11.7616" y2="13.3659" gradientUnits="userSpaceOnUse">
<stop offset="0.03" stop-color="#FADFB4"/>
<stop offset="0.59" stop-color="#C0983D"/>
<stop offset="0.74" stop-color="#C79E3F"/>
<stop offset="0.97" stop-color="#DAAF47"/>
<stop offset="1" stop-color="#DEB249"/>
</linearGradient>
</defs>
</svg>
