<svg width="101" height="19" viewBox="0 0 101 19" fill="none" xmlns="http://www.w3.org/2000/svg">
<g opacity="0.9" clip-path="url(#clip0_270_11480)">
<path d="M99.6836 17.5163H12.0715C10.5327 17.5163 9.27422 16.3045 9.27422 14.8283V14.5903C9.27422 13.1097 10.5327 11.9023 12.0715 11.9023H21.8552" stroke="white" stroke-width="1.33004" stroke-linecap="round" stroke-linejoin="round"/>
<path d="M14.2088 17.5163C12.6699 17.5163 11.4115 16.3045 11.4115 14.8283V14.5903C11.4115 13.1097 12.6699 11.9023 14.2088 11.9023" stroke="white" stroke-width="1.33004" stroke-linecap="round" stroke-linejoin="round"/>
<path d="M18.4355 6.27942C19.9743 6.27942 21.2328 7.49123 21.2328 8.96745V9.2054C21.2328 10.686 19.9743 11.8934 18.4355 11.8934" stroke="white" stroke-width="1.33004" stroke-linecap="round" stroke-linejoin="round"/>
<path d="M20.5488 6.27942C22.0877 6.27942 23.3461 7.49123 23.3461 8.96745V9.2054C23.3461 10.686 22.0877 11.8934 20.5488 11.8934" stroke="white" stroke-width="1.33004" stroke-linecap="round" stroke-linejoin="round"/>
<path d="M22.6417 6.27942C24.1806 6.27942 25.439 7.49123 25.439 8.96745V9.2054C25.439 10.686 24.1806 11.8934 22.6417 11.8934H20.5899" stroke="white" stroke-width="1.33004" stroke-linecap="round" stroke-linejoin="round"/>
<path d="M16.3221 17.5163C14.7833 17.5163 13.5248 16.3045 13.5248 14.8283V14.5903C13.5248 13.1097 14.7833 11.9023 16.3221 11.9023" stroke="white" stroke-width="1.33004" stroke-linecap="round" stroke-linejoin="round"/>
<path d="M5.42363 6.27948C3.88478 6.27948 2.62634 5.06766 2.62634 3.59145V3.35349C2.62634 1.87288 3.88478 0.665466 5.42363 0.665466" stroke="white" stroke-width="1.33004" stroke-linecap="round" stroke-linejoin="round"/>
<path d="M7.51298 6.27948C5.97412 6.27948 4.71568 5.06766 4.71568 3.59145V3.35349C4.71568 1.87288 5.97412 0.665466 7.51298 0.665466" stroke="white" stroke-width="1.33004" stroke-linecap="round" stroke-linejoin="round"/>
<path d="M9.61613 0.661011H3.31026C1.7714 0.661011 0.512962 1.87283 0.512962 3.34904V3.58699C0.512962 5.06761 1.7714 6.27502 3.31026 6.27502H22.7408" stroke="white" stroke-width="1.33004" stroke-linecap="round" stroke-linejoin="round"/>
</g>
<defs>
<clipPath id="clip0_270_11480">
<rect width="100.196" height="18.1772" fill="white"/>
</clipPath>
</defs>
</svg>
