<svg width="101" height="19" viewBox="0 0 101 19" fill="none" xmlns="http://www.w3.org/2000/svg">
<g opacity="0.9" clip-path="url(#clip0_270_11490)">
<path d="M1.31643 17.5659H88.9285C90.4673 17.5659 91.7258 16.354 91.7258 14.8778V14.6399C91.7258 13.1593 90.4673 11.9518 88.9285 11.9518H79.1448" stroke="white" stroke-width="1.33004" stroke-linecap="round" stroke-linejoin="round"/>
<path d="M86.7913 17.5659C88.3301 17.5659 89.5886 16.354 89.5886 14.8778V14.6399C89.5886 13.1593 88.3301 11.9518 86.7913 11.9518" stroke="white" stroke-width="1.33004" stroke-linecap="round" stroke-linejoin="round"/>
<path d="M82.5645 6.32898C81.0257 6.32898 79.7673 7.54079 79.7673 9.01701V9.25496C79.7673 10.7356 81.0257 11.943 82.5645 11.943" stroke="white" stroke-width="1.33004" stroke-linecap="round" stroke-linejoin="round"/>
<path d="M80.4511 6.32898C78.9123 6.32898 77.6538 7.54079 77.6538 9.01701V9.25496C77.6538 10.7356 78.9123 11.943 80.4511 11.943" stroke="white" stroke-width="1.33004" stroke-linecap="round" stroke-linejoin="round"/>
<path d="M78.3583 6.32898C76.8194 6.32898 75.561 7.54079 75.561 9.01701V9.25496C75.561 10.7356 76.8194 11.943 78.3583 11.943H80.4101" stroke="white" stroke-width="1.33004" stroke-linecap="round" stroke-linejoin="round"/>
<path d="M84.6779 17.5659C86.2167 17.5659 87.4752 16.354 87.4752 14.8778V14.6399C87.4752 13.1593 86.2167 11.9518 84.6779 11.9518" stroke="white" stroke-width="1.33004" stroke-linecap="round" stroke-linejoin="round"/>
<path d="M95.5764 6.32904C97.1152 6.32904 98.3737 5.11722 98.3737 3.64101V3.40305C98.3737 1.92244 97.1152 0.715027 95.5764 0.715027" stroke="white" stroke-width="1.33004" stroke-linecap="round" stroke-linejoin="round"/>
<path d="M93.487 6.32904C95.0259 6.32904 96.2843 5.11722 96.2843 3.64101V3.40305C96.2843 1.92244 95.0259 0.715027 93.487 0.715027" stroke="white" stroke-width="1.33004" stroke-linecap="round" stroke-linejoin="round"/>
<path d="M91.3839 0.710571H97.6897C99.2286 0.710571 100.487 1.92239 100.487 3.3986V3.63655C100.487 5.11717 99.2286 6.32458 97.6897 6.32458H78.2592" stroke="white" stroke-width="1.33004" stroke-linecap="round" stroke-linejoin="round"/>
</g>
<defs>
<clipPath id="clip0_270_11490">
<rect width="100.196" height="18.1772" fill="white" transform="matrix(-1 0 0 1 101 0.0498047)"/>
</clipPath>
</defs>
</svg>
