<svg width="165" height="62" viewBox="0 0 165 62" fill="none" xmlns="http://www.w3.org/2000/svg">
<g clip-path="url(#clip0_200_2431)">
<path d="M127.911 30.5449C142.759 30.5449 155.822 40.5797 163.286 55.6754C163.853 55.5374 164.426 55.3995 165 55.2906C157.318 39.2146 143.565 28.4755 127.911 28.4683C112.256 28.4683 98.5033 39.2074 90.8284 55.2833C91.402 55.3922 91.9757 55.5302 92.542 55.6681C99.9991 40.5797 113.062 30.5449 127.911 30.5449Z" fill="white" fill-opacity="0.3"/>
<path d="M127.911 39.3816C139.594 39.3816 149.955 46.8024 156.345 58.1732C156.868 57.919 157.398 57.6939 157.928 57.4689C151.269 45.2848 140.305 37.3049 127.911 37.3049C115.516 37.3049 104.552 45.2848 97.9006 57.4616C98.4307 57.6867 98.9607 57.919 99.4835 58.1659C105.873 46.7951 116.228 39.3743 127.911 39.3743V39.3816Z" fill="white" fill-opacity="0.3"/>
<path d="M127.911 46.1345C118.362 46.1345 109.852 51.9579 104.378 60.9906C104.857 61.3174 105.336 61.6514 105.808 61.9999C110.992 53.6061 118.972 48.2184 127.911 48.2184C136.849 48.2184 144.829 53.6134 150.013 62.0072C150.485 61.6586 150.964 61.3246 151.444 60.9979C145.969 51.9651 137.452 46.1418 127.911 46.1418V46.1345Z" fill="white" fill-opacity="0.3"/>
<path d="M88.992 6.85354C103.683 4.69377 118.066 12.7219 127.647 26.5713C128.187 26.3525 128.735 26.1325 129.286 25.9414C119.346 11.1466 104.178 2.52197 88.6899 4.79896C73.2016 7.07596 61.1574 19.7011 55.9024 36.7225C56.4858 36.7468 57.0733 36.7998 57.6537 36.854C62.8369 20.8413 74.3011 9.01331 88.992 6.85354Z" fill="white" fill-opacity="0.3"/>
<path d="M90.5063 15.7443C102.065 14.045 113.396 19.8798 121.371 30.2003C121.852 29.8728 122.343 29.573 122.835 29.2732C114.475 18.1872 102.467 11.8869 90.2043 13.6897C77.9486 15.4915 68.2546 24.9823 63.4453 37.997C64.0024 38.1426 64.5607 38.2954 65.1138 38.4636C69.7817 26.2843 78.9465 17.4364 90.5053 15.7371L90.5063 15.7443Z" fill="white" fill-opacity="0.3"/>
<path d="M91.2594 22.2771C81.8127 23.6659 74.2403 30.6651 70.1375 40.3981C70.6591 40.6517 71.1818 40.9125 71.6995 41.1886C75.6079 32.1301 82.7192 25.639 91.5625 24.3389C100.406 23.0388 109.086 27.2157 115.436 34.7662C115.852 34.3527 116.277 33.9525 116.704 33.5595C109.974 25.4192 100.7 20.8966 91.2605 22.2843L91.2594 22.2771Z" fill="white" fill-opacity="0.3"/>
<path d="M163.274 6.09375C178.123 6.09375 191.185 16.1285 198.65 31.2242C199.216 31.0863 199.79 30.9483 200.363 30.8394C192.681 14.7634 178.929 4.02435 163.274 4.01709C147.619 4.01709 133.867 14.7562 126.192 30.8321C126.765 30.941 127.339 31.079 127.905 31.217C135.362 16.1285 148.425 6.09375 163.274 6.09375Z" fill="white" fill-opacity="0.3"/>
<path d="M163.274 14.9231C174.957 14.9231 185.318 22.3439 191.708 33.7147C192.231 33.4605 192.761 33.2355 193.291 33.0104C186.633 20.8263 175.668 12.8464 163.274 12.8464C150.886 12.8464 139.915 20.8263 133.264 33.0031C133.794 33.2282 134.324 33.4605 134.847 33.7074C141.236 22.3366 151.591 14.9158 163.274 14.9158V14.9231Z" fill="white" fill-opacity="0.3"/>
<path d="M163.274 21.6758C153.725 21.6758 145.215 27.4991 139.741 36.5319C140.22 36.8586 140.699 37.1926 141.171 37.5412C146.355 29.1474 154.335 23.7597 163.274 23.7597C172.212 23.7597 180.192 29.1547 185.376 37.5484C185.848 37.1999 186.327 36.8659 186.807 36.5391C181.332 27.5064 172.815 21.683 163.274 21.683V21.6758Z" fill="white" fill-opacity="0.3"/>
<path d="M67.131 40.6477C81.9798 40.6477 95.0425 50.6825 102.507 65.7782C103.073 65.6402 103.647 65.5023 104.22 65.3933C96.5382 49.3101 82.7858 38.571 67.131 38.571C51.4762 38.571 37.7238 49.3101 30.0489 65.3861C30.6225 65.495 31.1961 65.633 31.7625 65.7709C39.2196 50.6825 52.2822 40.6477 67.131 40.6477Z" fill="white" fill-opacity="0.3"/>
<path d="M67.1311 49.4771C78.8142 49.4771 89.1757 56.8978 95.5654 68.2686C96.0882 68.0145 96.6183 67.7894 97.1483 67.5643C90.4899 55.3803 79.5258 47.4004 67.1311 47.4004C54.7438 47.4004 43.7724 55.3803 37.1212 67.5571C37.6513 67.7821 38.1814 68.0145 38.7042 68.2614C45.0939 56.8906 55.4481 49.4698 67.1311 49.4698V49.4771Z" fill="white" fill-opacity="0.3"/>
<path d="M67.1311 56.2371C57.5828 56.2371 49.0729 62.0604 43.5981 71.0932C44.0773 71.4199 44.5565 71.7539 45.0285 72.1024C50.2129 63.7087 58.1928 58.321 67.1311 58.321C76.0694 58.321 84.0493 63.7159 89.2337 72.1097C89.7057 71.7612 90.1849 71.4272 90.6642 71.1004C85.1893 62.0677 76.6721 56.2443 67.1311 56.2443V56.2371Z" fill="white" fill-opacity="0.3"/>
<g clip-path="url(#clip1_200_2431)">
<path d="M172.345 50.2654C185.619 50.2654 197.297 59.2363 203.97 72.7315C204.476 72.6081 204.989 72.4848 205.502 72.3874C198.634 58.0159 186.34 48.4154 172.345 48.4089C158.35 48.4089 146.055 58.0094 139.194 72.381C139.707 72.4783 140.22 72.6017 140.726 72.725C147.393 59.2363 159.07 50.2654 172.345 50.2654Z" fill="white" fill-opacity="0.3"/>
<path d="M172.345 58.1587C182.789 58.1587 192.052 64.7927 197.764 74.958C198.232 74.7308 198.706 74.5295 199.18 74.3283C193.227 63.4361 183.425 56.3022 172.345 56.3022C161.271 56.3022 151.463 63.4361 145.517 74.3218C145.991 74.5231 146.464 74.7308 146.932 74.9515C152.644 64.7863 161.901 58.1522 172.345 58.1522V58.1587Z" fill="white" fill-opacity="0.3"/>
</g>
</g>
<defs>
<clipPath id="clip0_200_2431">
<rect width="165" height="61.806" fill="white" transform="matrix(-1 0 0 1 165 0.193848)"/>
</clipPath>
<clipPath id="clip1_200_2431">
<rect width="147.506" height="55.2531" fill="white" transform="matrix(-1 0 0 1 286.701 23.1323)"/>
</clipPath>
</defs>
</svg>
