<svg width="165" height="30" viewBox="0 0 165 30" fill="none" xmlns="http://www.w3.org/2000/svg">
<g opacity="0.9" clip-path="url(#clip0_200_1590)">
<path d="M164.155 28.8451H19.8788C17.3447 28.8451 15.2723 26.8495 15.2723 24.4185V24.0266C15.2723 21.5884 17.3447 19.6001 19.8788 19.6001H35.9903" stroke="black" stroke-opacity="0.3" stroke-width="2.19027" stroke-linecap="round" stroke-linejoin="round"/>
<path d="M23.3984 28.8451C20.8642 28.8451 18.7919 26.8495 18.7919 24.4185V24.0266C18.7919 21.5884 20.8642 19.6001 23.3984 19.6001" stroke="black" stroke-opacity="0.3" stroke-width="2.19027" stroke-linecap="round" stroke-linejoin="round"/>
<path d="M30.3589 10.3406C32.893 10.3406 34.9654 12.3362 34.9654 14.7671V15.159C34.9654 17.5972 32.893 19.5855 30.3589 19.5855" stroke="black" stroke-opacity="0.3" stroke-width="2.19027" stroke-linecap="round" stroke-linejoin="round"/>
<path d="M33.8391 10.3406C36.3732 10.3406 38.4456 12.3362 38.4456 14.7671V15.159C38.4456 17.5972 36.3732 19.5855 33.8391 19.5855" stroke="black" stroke-opacity="0.3" stroke-width="2.19027" stroke-linecap="round" stroke-linejoin="round"/>
<path d="M37.2856 10.3406C39.8197 10.3406 41.8921 12.3362 41.8921 14.7671V15.159C41.8921 17.5972 39.8197 19.5855 37.2856 19.5855H33.9067" stroke="black" stroke-opacity="0.3" stroke-width="2.19027" stroke-linecap="round" stroke-linejoin="round"/>
<path d="M26.8786 28.8451C24.3444 28.8451 22.2721 26.8495 22.2721 24.4185V24.0266C22.2721 21.5884 24.3444 19.6001 26.8786 19.6001" stroke="black" stroke-opacity="0.3" stroke-width="2.19027" stroke-linecap="round" stroke-linejoin="round"/>
<path d="M8.93144 10.3407C6.39731 10.3407 4.32495 8.34508 4.32495 5.91411V5.52225C4.32495 3.08402 6.39731 1.0957 8.93144 1.0957" stroke="black" stroke-opacity="0.3" stroke-width="2.19027" stroke-linecap="round" stroke-linejoin="round"/>
<path d="M12.3722 10.3407C9.8381 10.3407 7.76575 8.34508 7.76575 5.91411V5.52225C7.76575 3.08402 9.8381 1.0957 12.3722 1.0957" stroke="black" stroke-opacity="0.3" stroke-width="2.19027" stroke-linecap="round" stroke-linejoin="round"/>
<path d="M15.8355 1.08838H5.45121C2.91708 1.08838 0.844727 3.08395 0.844727 5.51493V5.90679C0.844727 8.34502 2.91708 10.3333 5.45121 10.3333H37.4488" stroke="black" stroke-opacity="0.3" stroke-width="2.19027" stroke-linecap="round" stroke-linejoin="round"/>
</g>
<defs>
<clipPath id="clip0_200_1590">
<rect width="165" height="29.9336" fill="white"/>
</clipPath>
</defs>
</svg>
