<svg width="370" height="538" viewBox="0 0 370 538" fill="none" xmlns="http://www.w3.org/2000/svg">
<path d="M0 513.173V24.8273H26.4917V0H343.508V24.8273H370V513.173H343.508V538H26.4917V513.173H0ZM3.8606 28.4453V509.555H26.3949V504.383H15.5513V489.877H30.2555V500.765H35.8709V496.171H44.294L44.7418 504.383H39.7315V509.645H51.3496V523.426H35.8709V513.263H30.3523V534.382H339.636V513.263H334.117V523.426H318.638V509.645H330.256V504.383H325.246L325.694 496.171H334.117V500.765H339.732V489.877H354.437V504.383H343.593V509.555H366.127V28.4453H343.593V33.6172H354.437V48.1234H339.732V37.2352H334.117V41.8287H325.694L325.246 33.6172H330.256V28.3546H318.638V14.5743H334.117V24.7365H339.636V3.61805H30.3523V24.7365H35.8709V14.5743H51.3496V28.3546H39.7315V33.6172H44.7418L44.294 41.8287H35.8709V37.2352H30.2555V48.1234H15.5513V33.6172H26.3949V28.4453H3.8606ZM19.4119 493.495V500.765H26.3949V493.495H19.4119ZM19.4119 37.2352V44.5054H26.3949V37.2352H19.4119ZM30.2555 504.383V509.645H35.8709V504.383H30.2555ZM30.2555 28.3546V33.6172H35.8709V28.3546H30.2555ZM39.7315 513.263V519.808H47.489V513.263H39.7315ZM39.7315 499.789V500.765H40.6754L40.627 499.789H39.7436H39.7315ZM39.7315 37.2352V38.2106H40.627L40.6754 37.2352H39.7315ZM39.7315 18.1923V24.7365H47.489V18.1923H39.7315ZM322.499 513.275V519.819H330.256V513.275H322.499ZM322.499 18.1923V24.7365H330.256V18.1923H322.499ZM330.256 37.2352H329.312L329.361 38.2106H330.256V37.2352ZM329.361 499.789L329.312 500.765H330.256V499.789H329.373H329.361ZM334.105 504.383V509.645H339.72V504.383H334.105ZM334.105 28.3546V33.6172H339.72V28.3546H334.105ZM343.581 493.495V500.765H350.564V493.495H343.581ZM343.581 37.2352V44.5054H350.564V37.2352H343.581Z" fill="url(#paint0_linear_118_44903)"/>
<path d="M10.4684 526.681V11.3305H359.532V526.681H10.4684ZM13.0461 13.7463V524.265H356.954V13.7463H13.0461Z" fill="url(#paint1_linear_118_44903)"/>
<defs>
<linearGradient id="paint0_linear_118_44903" x1="185.006" y1="0.0113418" x2="185.006" y2="538.011" gradientUnits="userSpaceOnUse">
<stop stop-color="#C19A3D"/>
<stop offset="0.04" stop-color="#C49E44"/>
<stop offset="0.11" stop-color="#CDA957"/>
<stop offset="0.19" stop-color="#DDBC77"/>
<stop offset="0.28" stop-color="#F2D6A4"/>
<stop offset="0.31" stop-color="#FBE1B6"/>
<stop offset="1" stop-color="#E1B448"/>
</linearGradient>
<linearGradient id="paint1_linear_118_44903" x1="-4195.66" y1="11.3418" x2="-4195.66" y2="526.681" gradientUnits="userSpaceOnUse">
<stop stop-color="#C19A3D"/>
<stop offset="0.04" stop-color="#C49E44"/>
<stop offset="0.11" stop-color="#CDA957"/>
<stop offset="0.19" stop-color="#DDBC77"/>
<stop offset="0.28" stop-color="#F2D6A4"/>
<stop offset="0.31" stop-color="#FBE1B6"/>
<stop offset="1" stop-color="#E1B448"/>
</linearGradient>
</defs>
</svg>
