<svg width="42" height="42" viewBox="0 0 42 42" fill="none" xmlns="http://www.w3.org/2000/svg">
<path d="M40.25 19.2499C39.7859 19.2499 39.3407 19.0655 39.0125 18.7374C38.6844 18.4092 38.5 17.9641 38.5 17.4999C38.4963 13.788 37.0202 10.2292 34.3954 7.60451C31.7707 4.97976 28.2119 3.50363 24.5 3.49993C24.0359 3.49993 23.5907 3.31555 23.2626 2.98736C22.9344 2.65917 22.75 2.21406 22.75 1.74987C22.75 1.28577 22.9344 0.840659 23.2626 0.512471C23.5907 0.184283 24.0359 -9.78233e-05 24.5 -9.78233e-05C29.1398 0.00502618 33.588 1.85042 36.8688 5.13113C40.1496 8.41191 41.9949 12.8602 42 17.4999C42 17.9641 41.8156 18.4092 41.4874 18.7374C41.1593 19.0655 40.7141 19.2499 40.25 19.2499ZM35 17.4999C35 14.7151 33.8938 12.0444 31.9246 10.0753C29.9555 8.10615 27.2848 6.99988 24.5 6.99988C24.0359 6.99988 23.5907 7.18426 23.2626 7.51244C22.9344 7.84063 22.75 8.28575 22.75 8.74993C22.75 9.21403 22.9344 9.65915 23.2626 9.98734C23.5907 10.3155 24.0359 10.4999 24.5 10.4999C26.3565 10.4999 28.137 11.2374 29.4497 12.5502C30.7625 13.8629 31.5 15.6434 31.5 17.4999C31.5 17.9641 31.6844 18.4092 32.0126 18.7374C32.3408 19.0655 32.7859 19.2499 33.25 19.2499C33.7142 19.2499 34.1593 19.0655 34.4875 18.7374C34.8157 18.4092 35 17.9641 35 17.4999ZM38.8203 38.7869L40.4127 36.9512C41.4264 35.9343 41.9956 34.5571 41.9956 33.1213C41.9956 31.6855 41.4264 30.3083 40.4127 29.2914C40.3585 29.2372 36.148 25.9979 36.148 25.9979C35.1375 25.036 33.7952 24.5004 32.4001 24.5023C31.0049 24.5043 29.6641 25.0437 28.6563 26.0084L25.3208 28.8189C22.5981 27.6921 20.1248 26.0385 18.043 23.9531C15.9612 21.8676 14.3119 19.3916 13.1898 16.6669L15.9897 13.3419C16.9552 12.3342 17.4953 10.9932 17.4975 9.59758C17.4998 8.202 16.9642 6.85926 16.002 5.8484C16.002 5.8484 12.7593 1.64319 12.705 1.58893C11.7066 0.583955 10.3528 0.0121664 8.93627 -0.00286958C7.51969 -0.0179056 6.1541 0.524902 5.13451 1.50837L3.12204 3.25843C-8.76749 17.0519 16.835 42.4567 31.0835 41.9999C32.5224 42.0082 33.9483 41.7282 35.2771 41.1764C36.6059 40.6246 37.8107 39.812 38.8203 38.7869Z" fill="url(#paint0_linear_353_705)"/>
<defs>
<linearGradient id="paint0_linear_353_705" x1="0.0615762" y1="41.9946" x2="42.0673" y2="0.0590998" gradientUnits="userSpaceOnUse">
<stop offset="0.11" stop-color="#A1000D"/>
<stop offset="0.43" stop-color="#89000A"/>
<stop offset="0.75" stop-color="#780009"/>
<stop offset="1" stop-color="#730009"/>
</linearGradient>
</defs>
</svg>
