<svg width="82" height="82" viewBox="0 0 82 82" fill="none" xmlns="http://www.w3.org/2000/svg">
<g filter="url(#filter0_i_353_701)">
<rect x="3" y="3" width="76" height="76" rx="38" fill="url(#paint0_linear_353_701)"/>
<rect x="1.5" y="1.5" width="79" height="79" rx="39.5" stroke="url(#paint1_linear_353_701)" stroke-width="3"/>
<mask id="mask0_353_701" style="mask-type:luminance" maskUnits="userSpaceOnUse" x="20" y="20" width="42" height="42">
<path d="M20 20H62V62H20V20Z" fill="white"/>
</mask>
<g mask="url(#mask0_353_701)">
<path d="M60.25 39.2499C59.7858 39.2499 59.3407 39.0655 59.0125 38.7374C58.6843 38.4092 58.5 37.9641 58.5 37.4999C58.4963 33.788 57.0201 30.2292 54.3954 27.6045C51.7707 24.9798 48.2119 23.5036 44.5 23.4999C44.0358 23.4999 43.5907 23.3155 43.2625 22.9874C42.9343 22.6592 42.75 22.2141 42.75 21.7499C42.75 21.2858 42.9343 20.8407 43.2625 20.5125C43.5907 20.1843 44.0358 19.9999 44.5 19.9999C49.1397 20.005 53.588 21.8504 56.8688 25.1311C60.1495 28.4119 61.9949 32.8602 62 37.4999C62 37.9641 61.8156 38.4092 61.4874 38.7374C61.1592 39.0655 60.7141 39.2499 60.25 39.2499ZM55 37.4999C55 34.7151 53.8937 32.0444 51.9246 30.0753C49.9555 28.1062 47.2848 26.9999 44.5 26.9999C44.0358 26.9999 43.5907 27.1843 43.2625 27.5124C42.9343 27.8406 42.75 28.2857 42.75 28.7499C42.75 29.214 42.9343 29.6591 43.2625 29.9873C43.5907 30.3155 44.0358 30.4999 44.5 30.4999C46.3565 30.4999 48.137 31.2374 49.4497 32.5502C50.7625 33.8629 51.5 35.6434 51.5 37.4999C51.5 37.9641 51.6844 38.4092 52.0125 38.7374C52.3407 39.0655 52.7859 39.2499 53.25 39.2499C53.7141 39.2499 54.1593 39.0655 54.4874 38.7374C54.8156 38.4092 55 37.9641 55 37.4999ZM58.8202 58.7869L60.4127 56.9512C61.4263 55.9343 61.9955 54.5571 61.9955 53.1213C61.9955 51.6855 61.4263 50.3083 60.4127 49.2914C60.3584 49.2372 56.148 45.9979 56.148 45.9979C55.1374 45.036 53.7952 44.5004 52.4 44.5023C51.0049 44.5043 49.6641 45.0437 48.6562 46.0084L45.3208 48.8189C42.5981 47.6921 40.1248 46.0385 38.043 43.9531C35.9612 41.8676 34.3119 39.3916 33.1897 36.6669L35.9897 33.3419C36.9552 32.3342 37.4952 30.9932 37.4975 29.5976C37.4998 28.202 36.9642 26.8593 36.002 25.8484C36.002 25.8484 32.7592 21.6432 32.705 21.5889C31.7066 20.584 30.3528 20.0122 28.9362 19.9971C27.5197 19.9821 26.1541 20.5249 25.1345 21.5084L23.122 23.2584C11.2325 37.0519 36.835 62.4567 51.0835 61.9999C52.5223 62.0082 53.9482 61.7282 55.277 61.1764C56.6058 60.6246 57.8106 59.812 58.8202 58.7869Z" fill="url(#paint2_linear_353_701)"/>
</g>
</g>
<defs>
<filter id="filter0_i_353_701" x="0" y="0" width="84" height="86" filterUnits="userSpaceOnUse" color-interpolation-filters="sRGB">
<feFlood flood-opacity="0" result="BackgroundImageFix"/>
<feBlend mode="normal" in="SourceGraphic" in2="BackgroundImageFix" result="shape"/>
<feColorMatrix in="SourceAlpha" type="matrix" values="0 0 0 0 0 0 0 0 0 0 0 0 0 0 0 0 0 0 127 0" result="hardAlpha"/>
<feMorphology radius="2" operator="dilate" in="SourceAlpha" result="effect1_innerShadow_353_701"/>
<feOffset dx="2" dy="4"/>
<feGaussianBlur stdDeviation="3.65"/>
<feComposite in2="hardAlpha" operator="arithmetic" k2="-1" k3="1"/>
<feColorMatrix type="matrix" values="0 0 0 0 0.792157 0 0 0 0 0.576471 0 0 0 0 0.0823529 0 0 0 1 0"/>
<feBlend mode="normal" in2="shape" result="effect1_innerShadow_353_701"/>
</filter>
<linearGradient id="paint0_linear_353_701" x1="3" y1="40.9972" x2="79" y2="40.9972" gradientUnits="userSpaceOnUse">
<stop offset="0.03" stop-color="#FADFB4"/>
<stop offset="0.59" stop-color="#DDC07F"/>
</linearGradient>
<linearGradient id="paint1_linear_353_701" x1="3" y1="40.9972" x2="79" y2="40.9972" gradientUnits="userSpaceOnUse">
<stop offset="0.03" stop-color="#FADFB4"/>
<stop offset="0.59" stop-color="#DDC07F"/>
</linearGradient>
<linearGradient id="paint2_linear_353_701" x1="20.0615" y1="61.9946" x2="62.0672" y2="20.0591" gradientUnits="userSpaceOnUse">
<stop offset="0.11" stop-color="#A1000D"/>
<stop offset="0.43" stop-color="#89000A"/>
<stop offset="0.75" stop-color="#780009"/>
<stop offset="1" stop-color="#730009"/>
</linearGradient>
</defs>
</svg>
