<svg width="32" height="32" viewBox="0 0 32 32" fill="none" xmlns="http://www.w3.org/2000/svg">
<path fill-rule="evenodd" clip-rule="evenodd" d="M26.2401 12.4175C25.693 11.9045 24.806 11.9045 24.259 12.4175L16.8444 19.3704L9.42974 12.4175C8.88267 11.9045 7.9957 11.9045 7.44863 12.4175C6.90155 12.9305 6.90155 13.7622 7.44863 14.2752L15.8538 22.157C16.4009 22.67 17.2878 22.67 17.8349 22.157L26.2401 14.2752C26.7872 13.7622 26.7872 12.9305 26.2401 12.4175Z" fill="url(#paint0_linear_372_3117)"/>
<path fill-rule="evenodd" clip-rule="evenodd" d="M21.7867 11.2129C21.4789 10.9051 20.9799 10.9051 20.6721 11.2129L16.5003 15.3846L12.3286 11.2129C12.0208 10.9051 11.5217 10.9051 11.2139 11.2129C10.9061 11.5207 10.9061 12.0198 11.2139 12.3276L15.943 17.0566C16.2508 17.3644 16.7499 17.3644 17.0577 17.0566L21.7867 12.3276C22.0945 12.0198 22.0945 11.5207 21.7867 11.2129Z" fill="url(#paint1_linear_372_3117)"/>
<defs>
<linearGradient id="paint0_linear_372_3117" x1="16.8451" y1="22.5417" x2="16.8451" y2="12.0327" gradientUnits="userSpaceOnUse">
<stop offset="0.03" stop-color="#FADFB4"/>
<stop offset="0.59" stop-color="#C0983D"/>
<stop offset="0.74" stop-color="#C79E3F"/>
<stop offset="0.97" stop-color="#DAAF47"/>
<stop offset="1" stop-color="#DEB249"/>
</linearGradient>
<linearGradient id="paint1_linear_372_3117" x1="16.5007" y1="17.2875" x2="16.5007" y2="10.9821" gradientUnits="userSpaceOnUse">
<stop offset="0.03" stop-color="#FADFB4"/>
<stop offset="0.59" stop-color="#C0983D"/>
<stop offset="0.74" stop-color="#C79E3F"/>
<stop offset="0.97" stop-color="#DAAF47"/>
<stop offset="1" stop-color="#DEB249"/>
</linearGradient>
</defs>
</svg>
