<svg width="125" height="56" viewBox="0 0 125 56" fill="none" xmlns="http://www.w3.org/2000/svg">
<path d="M102.958 48.2637L53.9725 48.2737L53.9124 48.2236C52.8498 47.3264 52.1932 45.6022 52.1932 43.7225C52.1932 42.5196 52.4638 41.3517 52.9601 40.4344L53.0553 40.254H68.5835C69.997 40.254 71.1949 38.5598 71.1949 36.5549C71.1949 34.55 69.997 32.8608 68.5835 32.8608H49.7271L49.6419 32.7405C48.9602 31.7731 48.5743 30.3948 48.5743 28.9662C48.5743 27.5327 48.9652 26.1543 49.6469 25.1869L49.7321 25.0616H76.7686C77.5505 25.0566 78.2823 24.6055 78.8337 23.7835C79.35 23.0166 79.6307 22.0192 79.6307 20.9866C79.6307 19.9541 79.345 18.9566 78.8337 18.1897C78.2823 17.3677 77.5505 16.9166 76.7686 16.9166H72.7638L63.7516 16.8865C62.5386 16.0795 61.7567 14.23 61.7517 12.1749C61.7517 10.4156 62.3231 8.79664 63.2754 7.84931L63.4208 7.77913H121.403C122.887 7.77412 124.14 5.99474 124.14 3.88957C124.14 1.77938 122.887 0 121.403 0L31.9835 0.015037C31.2366 0.015037 30.5349 0.446097 30.0086 1.23303C29.5174 1.96483 29.2467 2.91216 29.2467 3.89959C29.2467 4.88702 29.5174 5.82934 30.0086 6.56615C30.5349 7.35309 31.2366 7.78415 31.9835 7.78415H40.2037L40.2738 7.84931C41.2262 8.79664 41.7976 10.4106 41.7976 12.1699C41.7976 14.22 41.0157 16.0745 39.8027 16.8815L39.6974 16.9166H15.7987C14.2498 16.9216 12.9366 18.7862 12.9366 20.9916C12.9366 23.1971 14.2498 25.0616 15.7987 25.0616H28.6904L28.7756 25.1819C29.4573 26.1493 29.8482 27.5277 29.8482 28.9612C29.8482 30.3948 29.4573 31.7731 28.7806 32.7405L28.6954 32.8658H2.74655C2.02979 32.8658 1.36315 33.2819 0.861916 34.0337C0.395767 34.7304 0.140137 35.6326 0.140137 36.5649C0.140137 38.5699 1.33809 40.259 2.75156 40.259H30.9459L31.0261 40.3593C31.798 41.3367 32.2441 42.7852 32.2441 44.334C32.2441 45.7926 31.8431 47.1861 31.1414 48.1584L31.0562 48.2787H17.5881C16.9064 48.2787 16.2698 48.6747 15.7886 49.3865C15.3475 50.0481 15.1019 50.9002 15.1019 51.7874C15.1019 53.687 16.2397 55.296 17.5881 55.296L102.958 55.276C103.64 55.276 104.276 54.88 104.757 54.1682C105.199 53.5066 105.444 52.6545 105.444 51.7673C105.444 50.8801 105.199 50.028 104.757 49.3664C104.281 48.6547 103.64 48.2587 102.958 48.2587V48.2637Z" fill="white" fill-opacity="0.3"/>
</svg>
