<svg width="93" height="172" viewBox="0 0 93 172" fill="none" xmlns="http://www.w3.org/2000/svg">
<path d="M19.6026 167.119C17.1808 167.119 15.9077 165.778 15.3873 164.516C14.0683 161.308 14.6247 156.865 16.3724 157.445C17.8713 157.944 16.7749 161.06 12.972 161.308C11.0378 161.435 9.68609 159.688 9.47991 157.534C9.13954 153.958 10.5501 151.411 12.1047 152.335C13.2567 153.021 12.3338 155.886 8.29843 155.822C6.58677 155.797 4.60345 153.891 4.60345 150.587V21.4128C4.60345 18.1093 6.58677 16.2065 8.29843 16.1782C12.3338 16.1145 13.2567 18.9829 12.1047 19.6656C10.5501 20.5887 9.13954 18.0421 9.47991 14.4663C9.68609 12.3124 11.0345 10.5651 12.972 10.6925C16.7782 10.94 17.8713 14.0561 16.3724 14.5548C14.6215 15.1383 14.0651 10.6925 15.3873 7.48451C15.9077 6.2183 17.1808 4.88135 19.6026 4.88135H73.3974C75.8193 4.88135 77.0924 6.22184 77.6127 7.48451C78.9317 10.6925 78.3753 15.1348 76.6276 14.5548C75.1287 14.0561 76.2251 10.94 80.0281 10.6925C81.9623 10.5651 83.3139 12.3124 83.5201 14.4663C83.8605 18.0421 82.4499 20.5887 80.8953 19.6656C79.7433 18.9794 80.6662 16.1145 84.7016 16.1782C86.4133 16.203 88.3966 18.1093 88.3966 21.4128V150.587C88.3966 153.891 86.4133 155.794 84.7016 155.822C80.6662 155.886 79.7433 153.017 80.8953 152.335C82.4499 151.411 83.8605 153.958 83.5201 157.534C83.3139 159.688 81.9655 161.435 80.0281 161.308C76.2218 161.06 75.1287 157.944 76.6276 157.445C78.3786 156.862 78.935 161.308 77.6127 164.516C77.0924 165.782 75.8193 167.119 73.3974 167.119H19.6026Z" fill="url(#paint0_linear_174_4313)" stroke="black" stroke-opacity="0.25" stroke-miterlimit="10"/>
<path d="M86.3076 12.3333C86.3076 9.21667 83.9711 6.66667 81.1153 6.66667C81.1153 3.55 78.7787 1 75.9229 1H17.0771C14.2213 1 11.8847 3.55 11.8847 6.66667C9.02894 6.66667 6.69237 9.21667 6.69237 12.3333C3.83657 12.3333 1.5 14.8833 1.5 18V154C1.5 157.117 3.83657 159.667 6.69237 159.667C6.69237 162.783 9.02894 165.333 11.8847 165.333C11.8847 168.45 14.2213 171 17.0771 171H75.9229C78.7787 171 81.1153 168.45 81.1153 165.333C83.9711 165.333 86.3076 162.783 86.3076 159.667C89.1634 159.667 91.5 157.117 91.5 154V18C91.5 14.8833 89.1634 12.3333 86.3076 12.3333Z" stroke="#860002" stroke-opacity="0.3" stroke-width="1.8" stroke-miterlimit="10"/>
<defs>
<linearGradient id="paint0_linear_174_4313" x1="46.5" y1="-1.28868" x2="46.5" y2="162.54" gradientUnits="userSpaceOnUse">
<stop offset="0.34" stop-color="#A80003"/>
<stop offset="1" stop-color="#860002"/>
</linearGradient>
</defs>
</svg>
