<svg width="165" height="30" viewBox="0 0 165 30" fill="none" xmlns="http://www.w3.org/2000/svg">
<g opacity="0.9" clip-path="url(#clip0_253_8122)">
<path d="M164.155 28.8451H19.8789C17.3448 28.8451 15.2725 26.8495 15.2725 24.4185V24.0266C15.2725 21.5884 17.3448 19.6001 19.8789 19.6001H35.9904" stroke="white" stroke-opacity="0.3" stroke-width="2.19027" stroke-linecap="round" stroke-linejoin="round"/>
<path d="M23.3985 28.8451C20.8643 28.8451 18.792 26.8495 18.792 24.4185V24.0266C18.792 21.5884 20.8643 19.6001 23.3985 19.6001" stroke="white" stroke-opacity="0.3" stroke-width="2.19027" stroke-linecap="round" stroke-linejoin="round"/>
<path d="M30.3589 10.3406C32.893 10.3406 34.9654 12.3362 34.9654 14.7671V15.159C34.9654 17.5972 32.893 19.5855 30.3589 19.5855" stroke="white" stroke-opacity="0.3" stroke-width="2.19027" stroke-linecap="round" stroke-linejoin="round"/>
<path d="M33.8389 10.3406C36.373 10.3406 38.4453 12.3362 38.4453 14.7671V15.159C38.4453 17.5972 36.373 19.5855 33.8389 19.5855" stroke="white" stroke-opacity="0.3" stroke-width="2.19027" stroke-linecap="round" stroke-linejoin="round"/>
<path d="M37.2856 10.3406C39.8197 10.3406 41.8921 12.3362 41.8921 14.7671V15.159C41.8921 17.5972 39.8197 19.5855 37.2856 19.5855H33.9067" stroke="white" stroke-opacity="0.3" stroke-width="2.19027" stroke-linecap="round" stroke-linejoin="round"/>
<path d="M26.8785 28.8451C24.3443 28.8451 22.272 26.8495 22.272 24.4185V24.0266C22.272 21.5884 24.3443 19.6001 26.8785 19.6001" stroke="white" stroke-opacity="0.3" stroke-width="2.19027" stroke-linecap="round" stroke-linejoin="round"/>
<path d="M8.93119 10.3407C6.39706 10.3407 4.32471 8.34508 4.32471 5.91411V5.52225C4.32471 3.08402 6.39706 1.0957 8.93119 1.0957" stroke="white" stroke-opacity="0.3" stroke-width="2.19027" stroke-linecap="round" stroke-linejoin="round"/>
<path d="M12.3721 10.3407C9.83798 10.3407 7.76562 8.34508 7.76562 5.91411V5.52225C7.76562 3.08402 9.83798 1.0957 12.3721 1.0957" stroke="white" stroke-opacity="0.3" stroke-width="2.19027" stroke-linecap="round" stroke-linejoin="round"/>
<path d="M15.8355 1.08838H5.45121C2.91708 1.08838 0.844727 3.08395 0.844727 5.51493V5.90679C0.844727 8.34502 2.91708 10.3333 5.45121 10.3333H37.4488" stroke="white" stroke-opacity="0.3" stroke-width="2.19027" stroke-linecap="round" stroke-linejoin="round"/>
</g>
<defs>
<clipPath id="clip0_253_8122">
<rect width="165" height="29.9336" fill="white"/>
</clipPath>
</defs>
</svg>
