<svg width="235" height="99" viewBox="0 0 235 99" fill="none" xmlns="http://www.w3.org/2000/svg">
<path d="M40.1435 85.5687L132.979 85.5864L133.093 85.4976C135.107 83.9069 136.351 80.8499 136.351 77.5175C136.351 75.3847 135.838 73.3141 134.898 71.6879L134.717 71.368H105.289C102.61 71.368 100.34 68.3643 100.34 64.8097C100.34 61.2551 102.61 58.2603 105.289 58.2603H141.025L141.186 58.047C142.478 56.3319 143.21 53.8881 143.21 51.3554C143.21 48.8139 142.469 46.3701 141.177 44.655L141.015 44.4328H89.7767C88.2948 44.4239 86.9079 43.6241 85.863 42.1667C84.8846 40.8071 84.3526 39.0387 84.3526 37.208C84.3526 35.3774 84.8941 33.609 85.863 32.2493C86.9079 30.7919 88.2948 29.9921 89.7767 29.9921H97.3665L114.446 29.9388C116.745 28.5081 118.227 25.2289 118.236 21.5855C118.236 18.4663 117.153 15.5959 115.348 13.9164L115.073 13.7919H5.18655C2.37479 13.7831 0 10.6283 0 6.89597C0 3.15473 2.37479 0 5.18655 0L174.652 0.0266597C176.067 0.0266597 177.397 0.790904 178.394 2.18609C179.325 3.48353 179.838 5.16309 179.838 6.91374C179.838 8.6644 179.325 10.3351 178.394 11.6414C177.397 13.0366 176.067 13.8008 174.652 13.8008H159.073L158.94 13.9164C157.135 15.5959 156.052 18.4574 156.052 21.5766C156.052 25.2112 157.534 28.4992 159.833 29.9299L160.033 29.9921H205.325C208.26 30.001 210.749 33.3068 210.749 37.2169C210.749 41.127 208.26 44.4328 205.325 44.4328H180.893L180.731 44.6461C179.439 46.3612 178.698 48.805 178.698 51.3465C178.698 53.8881 179.439 56.3319 180.722 58.047L180.883 58.2692H230.06C231.419 58.2692 232.682 59.0068 233.632 60.3397C234.516 61.575 235 63.1745 235 64.8274C235 68.3821 232.73 71.3768 230.051 71.3768H176.618L176.466 71.5546C175.003 73.2875 174.158 75.8557 174.158 78.6016C174.158 81.1876 174.918 83.6581 176.248 85.3821L176.409 85.5953H201.933C203.225 85.5953 204.432 86.2974 205.344 87.5593C206.18 88.7323 206.645 90.243 206.645 91.8159C206.645 95.1839 204.489 98.0365 201.933 98.0365L40.1435 98.001C38.8516 98.001 37.6452 97.2989 36.7333 96.037C35.8974 94.864 35.4319 93.3533 35.4319 91.7804C35.4319 90.2075 35.8974 88.6967 36.7333 87.5237C37.6357 86.2618 38.8516 85.5598 40.1435 85.5598V85.5687Z" fill="#C49E44" fill-opacity="0.3"/>
</svg>
