<svg width="150" height="56" viewBox="0 0 150 56" fill="none" xmlns="http://www.w3.org/2000/svg">
<g clip-path="url(#clip0_253_8089)">
<path d="M116.395 27.5C129.849 27.5 141.684 36.5921 148.447 50.2697C148.961 50.1447 149.48 50.0197 150 49.921C143.039 35.3552 130.579 25.625 116.395 25.6184C102.211 25.6184 89.75 35.3487 82.7961 49.9145C83.3158 50.0131 83.8355 50.1381 84.3487 50.2631C91.1053 36.5921 102.941 27.5 116.395 27.5Z" fill="white" fill-opacity="0.3"/>
<path d="M116.395 35.5066C126.98 35.5066 136.369 42.2303 142.158 52.5329C142.632 52.3026 143.112 52.0987 143.592 51.8947C137.559 40.8553 127.625 33.625 116.395 33.625C105.165 33.625 95.2304 40.8553 89.2041 51.8882C89.6844 52.0921 90.1647 52.3026 90.6383 52.5263C96.4278 42.2237 105.809 35.5 116.395 35.5V35.5066Z" fill="white" fill-opacity="0.3"/>
<path d="M116.395 41.625C107.744 41.625 100.033 46.9013 95.0726 55.0855C95.5068 55.3816 95.941 55.6842 96.3686 56C101.066 48.3947 108.296 43.5132 116.395 43.5132C124.494 43.5132 131.724 48.4013 136.421 56.0066C136.849 55.6908 137.283 55.3882 137.717 55.0921C132.757 46.9079 125.04 41.6316 116.395 41.6316V41.625Z" fill="white" fill-opacity="0.3"/>
<path d="M81.1322 6.03413C94.4431 4.07725 107.475 11.3512 116.156 23.8997C116.645 23.7013 117.141 23.5021 117.641 23.3288C108.635 9.92386 94.8919 2.10947 80.8586 4.17256C66.8252 6.23566 55.9124 17.6748 51.1511 33.0972C51.6796 33.1192 52.212 33.1673 52.7379 33.2163C57.4342 18.7079 67.8214 7.99101 81.1322 6.03413Z" fill="white" fill-opacity="0.3"/>
<path d="M82.5042 14.0899C92.9772 12.5502 103.243 17.8369 110.47 27.1879C110.905 26.8912 111.351 26.6195 111.796 26.3479C104.222 16.3033 93.3414 10.5949 82.2305 12.2283C71.1262 13.8608 62.3428 22.4601 57.9853 34.2522C58.4901 34.3841 58.9959 34.5225 59.4971 34.6749C63.7265 23.6398 72.0303 15.6231 82.5033 14.0834L82.5042 14.0899Z" fill="white" fill-opacity="0.3"/>
<path d="M83.1866 20.0088C74.6273 21.2672 67.7662 27.6089 64.0488 36.4275C64.5215 36.6573 64.9951 36.8935 65.4641 37.1438C69.0053 28.9362 75.4487 23.0549 83.4612 21.8769C91.4738 20.6989 99.3382 24.4835 105.092 31.3246C105.469 30.95 105.854 30.5874 106.241 30.2314C100.143 22.8557 91.7404 18.7579 83.1876 20.0153L83.1866 20.0088Z" fill="white" fill-opacity="0.3"/>
<path d="M148.436 5.34569C161.89 5.34569 173.725 14.4378 180.488 28.1154C181.002 27.9904 181.521 27.8654 182.041 27.7667C175.08 13.201 162.62 3.47069 148.436 3.46411C134.252 3.46411 121.791 13.1944 114.837 27.7602C115.357 27.8588 115.877 27.9838 116.39 28.1088C123.146 14.4378 134.982 5.34569 148.436 5.34569Z" fill="white" fill-opacity="0.3"/>
<path d="M148.435 13.3457C159.021 13.3457 168.409 20.0694 174.199 30.372C174.672 30.1417 175.153 29.9378 175.633 29.7338C169.6 18.6944 159.666 11.4641 148.435 11.4641C137.212 11.4641 127.271 18.6944 121.245 29.7273C121.725 29.9312 122.205 30.1417 122.679 30.3654C128.468 20.0628 137.85 13.3391 148.435 13.3391V13.3457Z" fill="white" fill-opacity="0.3"/>
<path d="M148.435 19.4639C139.784 19.4639 132.074 24.7402 127.113 32.9244C127.547 33.2204 127.982 33.5231 128.409 33.8389C133.106 26.2336 140.337 21.352 148.435 21.352C156.534 21.352 163.764 26.2402 168.462 33.8454C168.889 33.5297 169.324 33.227 169.758 32.931C164.797 24.7468 157.08 19.4704 148.435 19.4704V19.4639Z" fill="white" fill-opacity="0.3"/>
<path d="M61.3244 36.6538C74.7784 36.6538 86.6139 45.7459 93.3771 59.4235C93.8902 59.2985 94.41 59.1735 94.9297 59.0748C87.9692 44.5025 75.5086 34.7722 61.3244 34.7722C47.1402 34.7722 34.6797 44.5025 27.7257 59.0683C28.2455 59.167 28.7652 59.292 29.2784 59.417C36.035 45.7459 47.8705 36.6538 61.3244 36.6538Z" fill="white" fill-opacity="0.3"/>
<path d="M61.3246 44.6538C71.9101 44.6538 81.2983 51.3775 87.0878 61.6801C87.5614 61.4498 88.0417 61.2459 88.522 61.042C82.4891 50.0025 72.5549 42.7722 61.3246 42.7722C50.1009 42.7722 40.1601 50.0025 34.1338 61.0354C34.6141 61.2393 35.0943 61.4498 35.568 61.6735C41.3575 51.3709 50.7391 44.6472 61.3246 44.6472V44.6538Z" fill="white" fill-opacity="0.3"/>
<path d="M61.3246 50.7788C52.6733 50.7788 44.9628 56.0551 40.0022 64.2393C40.4365 64.5354 40.8707 64.838 41.2983 65.1538C45.9957 57.5485 53.2259 52.667 61.3246 52.667C69.4233 52.667 76.6536 57.5551 81.3509 65.1604C81.7786 64.8446 82.2128 64.542 82.647 64.2459C77.6864 56.0617 69.9693 50.7854 61.3246 50.7854V50.7788Z" fill="white" fill-opacity="0.3"/>
<g clip-path="url(#clip1_253_8089)">
<path d="M156.655 45.3679C168.682 45.3679 179.263 53.496 185.309 65.7235C185.768 65.6117 186.233 65.5 186.697 65.4118C180.475 52.3903 169.335 43.6917 156.655 43.6858C143.975 43.6858 132.835 52.3844 126.619 65.4059C127.083 65.4941 127.548 65.6059 128.007 65.7176C134.047 53.496 144.627 45.3679 156.655 45.3679Z" fill="white" fill-opacity="0.3"/>
<path d="M156.655 52.5197C166.118 52.5197 174.511 58.5305 179.687 67.7409C180.11 67.535 180.539 67.3527 180.969 67.1704C175.575 57.3013 166.695 50.8376 156.655 50.8376C146.621 50.8376 137.734 57.3013 132.347 67.1645C132.776 67.3468 133.206 67.535 133.629 67.735C138.805 58.5247 147.192 52.5139 156.655 52.5139V52.5197Z" fill="white" fill-opacity="0.3"/>
</g>
</g>
<defs>
<clipPath id="clip0_253_8089">
<rect width="149.5" height="56" fill="white" transform="matrix(-1 0 0 1 150 0)"/>
</clipPath>
<clipPath id="clip1_253_8089">
<rect width="133.649" height="50.0627" fill="white" transform="matrix(-1 0 0 1 260.268 20.7837)"/>
</clipPath>
</defs>
</svg>
