<svg width="165" height="30" viewBox="0 0 165 30" fill="none" xmlns="http://www.w3.org/2000/svg">
<g opacity="0.9" clip-path="url(#clip0_253_8049)">
<path d="M0.84459 28.8451H145.121C147.655 28.8451 149.728 26.8495 149.728 24.4185V24.0266C149.728 21.5884 147.655 19.6001 145.121 19.6001H129.01" stroke="white" stroke-opacity="0.3" stroke-width="2.19027" stroke-linecap="round" stroke-linejoin="round"/>
<path d="M141.602 28.8451C144.136 28.8451 146.208 26.8495 146.208 24.4185V24.0266C146.208 21.5884 144.136 19.6001 141.602 19.6001" stroke="white" stroke-opacity="0.3" stroke-width="2.19027" stroke-linecap="round" stroke-linejoin="round"/>
<path d="M134.641 10.3406C132.107 10.3406 130.035 12.3362 130.035 14.7671V15.159C130.035 17.5972 132.107 19.5855 134.641 19.5855" stroke="white" stroke-opacity="0.3" stroke-width="2.19027" stroke-linecap="round" stroke-linejoin="round"/>
<path d="M131.161 10.3406C128.627 10.3406 126.555 12.3362 126.555 14.7671V15.159C126.555 17.5972 128.627 19.5855 131.161 19.5855" stroke="white" stroke-opacity="0.3" stroke-width="2.19027" stroke-linecap="round" stroke-linejoin="round"/>
<path d="M127.714 10.3406C125.18 10.3406 123.108 12.3362 123.108 14.7671V15.159C123.108 17.5972 125.18 19.5855 127.714 19.5855H131.093" stroke="white" stroke-opacity="0.3" stroke-width="2.19027" stroke-linecap="round" stroke-linejoin="round"/>
<path d="M138.122 28.8451C140.656 28.8451 142.728 26.8495 142.728 24.4185V24.0266C142.728 21.5884 140.656 19.6001 138.122 19.6001" stroke="white" stroke-opacity="0.3" stroke-width="2.19027" stroke-linecap="round" stroke-linejoin="round"/>
<path d="M156.069 10.3407C158.603 10.3407 160.675 8.34508 160.675 5.91411V5.52225C160.675 3.08402 158.603 1.0957 156.069 1.0957" stroke="white" stroke-opacity="0.3" stroke-width="2.19027" stroke-linecap="round" stroke-linejoin="round"/>
<path d="M152.628 10.3407C155.162 10.3407 157.234 8.34508 157.234 5.91411V5.52225C157.234 3.08402 155.162 1.0957 152.628 1.0957" stroke="white" stroke-opacity="0.3" stroke-width="2.19027" stroke-linecap="round" stroke-linejoin="round"/>
<path d="M149.164 1.08838H159.549C162.083 1.08838 164.155 3.08395 164.155 5.51493V5.90679C164.155 8.34502 162.083 10.3333 159.549 10.3333H127.551" stroke="white" stroke-opacity="0.3" stroke-width="2.19027" stroke-linecap="round" stroke-linejoin="round"/>
</g>
<defs>
<clipPath id="clip0_253_8049">
<rect width="165" height="29.9336" fill="white" transform="matrix(-1 0 0 1 165 0)"/>
</clipPath>
</defs>
</svg>
