<svg width="165" height="62" viewBox="0 0 165 62" fill="none" xmlns="http://www.w3.org/2000/svg">
<g clip-path="url(#clip0_253_8059)">
<path d="M37.0894 30.3511C22.2406 30.3511 9.17796 40.3858 1.71361 55.4816C1.14725 55.3436 0.573623 55.2056 0 55.0967C7.68219 39.0208 21.4346 28.2817 37.0894 28.2744C52.7442 28.2744 66.4967 39.0135 74.1716 55.0895C73.598 55.1984 73.0243 55.3363 72.458 55.4743C65.0009 40.3858 51.9383 30.3511 37.0894 30.3511Z" fill="white" fill-opacity="0.3"/>
<path d="M37.0894 39.1877C25.4064 39.1877 15.0449 46.6085 8.65517 57.9793C8.13238 57.7252 7.60232 57.5001 7.07227 57.275C13.7306 45.091 24.6948 37.1111 37.0894 37.1111C49.484 37.1111 60.4482 45.091 67.0993 57.2677C66.5693 57.4928 66.0392 57.7252 65.5164 57.9721C59.1267 46.6013 48.7725 39.1805 37.0894 39.1805V39.1877Z" fill="white" fill-opacity="0.3"/>
<path d="M37.0892 45.9407C46.6375 45.9407 55.1474 51.764 60.6223 60.7968C60.143 61.1235 59.6638 61.4575 59.1918 61.8061C54.0074 53.4123 46.0276 48.0246 37.0892 48.0246C28.1509 48.0246 20.171 53.4195 14.9866 61.8133C14.5146 61.4648 14.0354 61.1308 13.5562 60.804C19.031 51.7713 27.5482 45.9479 37.0892 45.9479V45.9407Z" fill="white" fill-opacity="0.3"/>
<path d="M76.0082 6.65969C61.3172 4.49992 46.934 12.528 37.3533 26.3775C36.8131 26.1586 36.2656 25.9387 35.7139 25.7475C45.6537 10.9527 60.8219 2.32812 76.3102 4.60512C91.7986 6.88211 103.843 19.5073 109.098 36.5286C108.514 36.5529 107.927 36.606 107.346 36.6601C102.163 20.6475 90.6991 8.81946 76.0082 6.65969Z" fill="white" fill-opacity="0.3"/>
<path d="M74.494 15.5505C62.9353 13.8512 51.6046 19.686 43.6289 30.0064C43.1487 29.679 42.657 29.3792 42.1653 29.0794C50.525 17.9934 62.5333 11.6931 74.7961 13.4959C87.0517 15.2976 96.7458 24.7885 101.555 37.8031C100.998 37.9487 100.44 38.1015 99.8865 38.2697C95.2187 26.0905 86.0539 17.2426 74.4951 15.5433L74.494 15.5505Z" fill="white" fill-opacity="0.3"/>
<path d="M73.7408 22.0833C83.1875 23.4721 90.76 30.4713 94.8628 40.2043C94.3411 40.4579 93.8184 40.7186 93.3007 40.9948C89.3924 31.9362 82.281 25.4451 73.4377 24.145C64.5944 22.845 55.9147 27.0219 49.5645 34.5723C49.1483 34.1588 48.7227 33.7587 48.2961 33.3657C55.0265 25.2253 64.3002 20.7027 73.7397 22.0905L73.7408 22.0833Z" fill="white" fill-opacity="0.3"/>
<path d="M1.72614 5.8999C-13.1227 5.8999 -26.1853 15.9347 -33.6497 31.0304C-34.216 30.8924 -34.7897 30.7545 -35.3633 30.6455C-27.6811 14.5696 -13.9287 3.8305 1.72614 3.82324C17.381 3.82324 31.1334 14.5623 38.8083 30.6383C38.2347 30.7472 37.6611 30.8852 37.0947 31.0231C29.6376 15.9347 16.575 5.8999 1.72614 5.8999Z" fill="white" fill-opacity="0.3"/>
<path d="M1.72615 14.7292C-9.95688 14.7292 -20.3184 22.15 -26.7081 33.5208C-27.2309 33.2667 -27.761 33.0416 -28.291 32.8165C-21.6326 20.6325 -10.6685 12.6526 1.72615 12.6526C14.1135 12.6526 25.0849 20.6325 31.7361 32.8092C31.206 33.0343 30.6759 33.2667 30.1531 33.5136C23.7634 22.1428 13.4092 14.722 1.72615 14.722V14.7292Z" fill="white" fill-opacity="0.3"/>
<path d="M1.72641 21.4819C11.2747 21.4819 19.7846 27.3053 25.2595 36.338C24.7802 36.6648 24.301 36.9988 23.829 37.3473C18.6446 28.9536 10.6648 23.5659 1.72641 23.5659C-7.21194 23.5659 -15.1918 28.9608 -20.3762 37.3546C-20.8482 37.0061 -21.3274 36.672 -21.8066 36.3453C-16.3318 27.3126 -7.8146 21.4892 1.72641 21.4892V21.4819Z" fill="white" fill-opacity="0.3"/>
<path d="M97.8692 40.4539C83.0204 40.4539 69.9577 50.4886 62.4934 65.5843C61.927 65.4464 61.3534 65.3084 60.7798 65.1995C68.462 49.1163 82.2144 38.3772 97.8692 38.3772C113.524 38.3772 127.276 49.1163 134.951 65.1922C134.378 65.3012 133.804 65.4391 133.238 65.5771C125.781 50.4886 112.718 40.4539 97.8692 40.4539Z" fill="white" fill-opacity="0.3"/>
<path d="M97.8692 49.2832C86.1862 49.2832 75.8247 56.704 69.435 68.0748C68.9122 67.8207 68.3821 67.5956 67.8521 67.3705C74.5104 55.1864 85.4746 47.2065 97.8692 47.2065C110.257 47.2065 121.228 55.1864 127.879 67.3632C127.349 67.5883 126.819 67.8207 126.296 68.0675C119.906 56.6967 109.552 49.2759 97.8692 49.2759V49.2832Z" fill="white" fill-opacity="0.3"/>
<path d="M97.869 56.0432C107.417 56.0432 115.927 61.8666 121.402 70.8993C120.923 71.2261 120.444 71.5601 119.972 71.9086C114.787 63.5148 106.807 58.1271 97.869 58.1271C88.9306 58.1271 80.9508 63.5221 75.7664 71.9159C75.2944 71.5673 74.8152 71.2333 74.3359 70.9066C79.8108 61.8738 88.328 56.0505 97.869 56.0505V56.0432Z" fill="white" fill-opacity="0.3"/>
<g clip-path="url(#clip1_253_8059)">
<path d="M-7.34488 50.0716C-20.6194 50.0716 -32.2971 59.0424 -38.97 72.5376C-39.4763 72.4143 -39.9891 72.291 -40.502 72.1936C-33.6343 57.8221 -21.3399 48.2216 -7.34488 48.2151C6.65015 48.2151 18.9445 57.8156 25.8057 72.1871C25.2929 72.2845 24.7801 72.4078 24.2738 72.5311C17.6073 59.0424 5.92963 50.0716 -7.34488 50.0716Z" fill="white" fill-opacity="0.3"/>
<path d="M-7.34505 57.9649C-17.7894 57.9649 -27.0523 64.5989 -32.7646 74.7641C-33.232 74.5369 -33.7058 74.3357 -34.1797 74.1345C-28.2273 63.2422 -18.4255 56.1084 -7.34505 56.1084C3.72894 56.1084 13.5372 63.2422 19.4831 74.128C19.0092 74.3292 18.5354 74.5369 18.068 74.7576C12.3558 64.5924 3.0993 57.9584 -7.34505 57.9584V57.9649Z" fill="white" fill-opacity="0.3"/>
</g>
</g>
<defs>
<clipPath id="clip0_253_8059">
<rect width="165" height="61.806" fill="white"/>
</clipPath>
<clipPath id="clip1_253_8059">
<rect width="147.506" height="55.2531" fill="white" transform="translate(-121.701 22.9385)"/>
</clipPath>
</defs>
</svg>
