<svg width="81" height="36" viewBox="0 0 81 36" fill="none" xmlns="http://www.w3.org/2000/svg">
<g clip-path="url(#clip0_253_8119)">
<path d="M66.9386 31.4217L35.047 31.4282L35.0078 31.3956C34.316 30.8115 33.8885 29.6889 33.8885 28.4652C33.8885 27.682 34.0648 26.9217 34.3878 26.3245L34.4498 26.207H44.5593C45.4795 26.207 46.2595 25.1041 46.2595 23.7988C46.2595 22.4935 45.4795 21.3938 44.5593 21.3938H32.283L32.2275 21.3154C31.7837 20.6856 31.5325 19.7883 31.5325 18.8582C31.5325 17.9249 31.787 17.0276 32.2308 16.3978L32.2863 16.3162H49.8882C50.3972 16.3129 50.8737 16.0192 51.2326 15.484C51.5687 14.9848 51.7515 14.3354 51.7515 13.6632C51.7515 12.9909 51.5655 12.3416 51.2326 11.8423C50.8737 11.3071 50.3972 11.0134 49.8882 11.0134H47.2808L41.4136 10.9938C40.6239 10.4685 40.1148 9.26432 40.1115 7.9264C40.1115 6.781 40.4835 5.72698 41.1035 5.11022L41.1982 5.06454H78.9473C79.9132 5.06128 80.729 3.90283 80.729 2.53227C80.729 1.15845 79.9132 0 78.9473 0L20.7312 0.0097897C20.245 0.0097897 19.7881 0.290428 19.4455 0.802756C19.1257 1.27919 18.9494 1.89594 18.9494 2.5388C18.9494 3.18165 19.1257 3.79514 19.4455 4.27484C19.7881 4.78716 20.245 5.0678 20.7312 5.0678H26.0829L26.1286 5.11022C26.7486 5.72698 27.1206 6.77774 27.1206 7.92313C27.1206 9.2578 26.6115 10.4652 25.8218 10.9906L25.7533 11.0134H10.1942C9.18585 11.0167 8.33089 12.2306 8.33089 13.6664C8.33089 15.1022 9.18585 16.3162 10.1942 16.3162H18.5872L18.6427 16.3945C19.0865 17.0243 19.341 17.9217 19.341 18.855C19.341 19.7883 19.0865 20.6856 18.646 21.3154L18.5905 21.397H1.69672C1.23009 21.397 0.796074 21.6679 0.469749 22.1574C0.166275 22.611 -0.000152588 23.1983 -0.000152588 23.8053C-0.000152588 25.1106 0.779762 26.2103 1.7 26.2103H20.0557L20.1079 26.2756C20.6104 26.9119 20.9009 27.855 20.9009 28.8633C20.9009 29.8129 20.6398 30.7201 20.183 31.3532L20.1275 31.4315H11.3592C10.9154 31.4315 10.5009 31.6893 10.1877 32.1526C9.9005 32.5834 9.7406 33.1381 9.7406 33.7157C9.7406 34.9525 10.4814 36 11.3592 36L66.9386 35.9869C67.3824 35.9869 67.7968 35.7292 68.1101 35.2658C68.3972 34.835 68.5571 34.2803 68.5571 33.7027C68.5571 33.1251 68.3972 32.5703 68.1101 32.1396C67.8001 31.6762 67.3824 31.4184 66.9386 31.4184V31.4217Z" fill="white" fill-opacity="0.3"/>
</g>
<defs>
<clipPath id="clip0_253_8119">
<rect width="80.7292" height="36" fill="white" transform="matrix(-1 0 0 1 80.729 0)"/>
</clipPath>
</defs>
</svg>
