<svg width="220" height="99" viewBox="0 0 220 99" fill="none" xmlns="http://www.w3.org/2000/svg">
<g clip-path="url(#clip0_118_44966)">
<path d="M182.419 85.6292L95.5091 85.6469L95.4024 85.558C93.5171 83.9662 92.3522 80.9071 92.3522 77.5723C92.3522 75.438 92.8324 73.3659 93.7128 71.7385L93.8817 71.4184H121.432C123.94 71.4184 126.065 68.4126 126.065 64.8555C126.065 61.2984 123.94 58.3015 121.432 58.3015H87.9769L87.8257 58.088C86.6163 56.3717 85.9315 53.9262 85.9315 51.3917C85.9315 48.8484 86.6252 46.4028 87.8346 44.6865L87.9858 44.4642H135.954C137.341 44.4553 138.639 43.655 139.618 42.1965C140.534 40.8359 141.032 39.0662 141.032 37.2343C141.032 35.4024 140.525 33.6327 139.618 32.2721C138.639 30.8137 137.341 30.0133 135.954 30.0133H128.848L112.859 29.96C110.707 28.5282 109.32 25.2468 109.311 21.6007C109.311 18.4793 110.325 15.6069 112.014 13.9262L112.272 13.8017H215.145C217.777 13.7928 220 10.6358 220 6.90084C220 3.15696 217.777 0 215.145 0L56.4962 0.0266785C55.1712 0.0266785 53.9262 0.791463 52.9924 2.18764C52.1209 3.48599 51.6407 5.16674 51.6407 6.91863C51.6407 8.67052 52.1209 10.3424 52.9924 11.6496C53.9262 13.0458 55.1712 13.8106 56.4962 13.8106H71.0805L71.205 13.9262C72.8946 15.6069 73.9084 18.4704 73.9084 21.5918C73.9084 25.229 72.5211 28.5193 70.369 29.9511L70.1823 30.0133H27.7812C25.0334 30.0222 22.7034 33.3304 22.7034 37.2432C22.7034 41.1561 25.0334 44.4642 27.7812 44.4642H50.6536L50.8048 44.6776C52.0142 46.394 52.7079 48.8395 52.7079 51.3828C52.7079 53.9262 52.0142 56.3717 50.8137 58.088L50.6625 58.3104H4.62427C3.3526 58.3104 2.16986 59.0485 1.28056 60.3824C0.453537 61.6185 0 63.2192 0 64.8733C0 68.4304 2.1254 71.4273 4.63318 71.4273H54.6554L54.7977 71.6051C56.1672 73.3393 56.9586 75.9093 56.9586 78.6572C56.9586 81.245 56.2472 83.7172 55.0022 85.4424L54.851 85.6558H30.956C29.7466 85.6558 28.6172 86.3584 27.7634 87.6212C26.9809 88.795 26.5451 90.3068 26.5451 91.8808C26.5451 95.2512 28.5638 98.1058 30.956 98.1058L182.419 98.0702C183.628 98.0702 184.758 97.3677 185.611 96.1049C186.394 94.9311 186.83 93.4193 186.83 91.8453C186.83 90.2712 186.394 88.7594 185.611 87.5856C184.767 86.3228 183.628 85.6203 182.419 85.6203V85.6292Z" fill="#C49E44" fill-opacity="0.3"/>
</g>
<defs>
<clipPath id="clip0_118_44966">
<rect width="220" height="98.1058" fill="white" transform="matrix(-1 0 0 1 220 0)"/>
</clipPath>
</defs>
</svg>
