<svg width="165" height="31" viewBox="0 0 165 31" fill="none" xmlns="http://www.w3.org/2000/svg">
<g opacity="0.9" clip-path="url(#clip0_143_138)">
<path d="M164.155 29.0221H19.8788C17.3447 29.0221 15.2723 27.0265 15.2723 24.5955V24.2036C15.2723 21.7654 17.3447 19.7771 19.8788 19.7771H35.9903" stroke="#B99E58" stroke-width="2.19027" stroke-linecap="round" stroke-linejoin="round"/>
<path d="M23.3984 29.0221C20.8642 29.0221 18.7919 27.0265 18.7919 24.5955V24.2036C18.7919 21.7654 20.8642 19.7771 23.3984 19.7771" stroke="#B99E58" stroke-width="2.19027" stroke-linecap="round" stroke-linejoin="round"/>
<path d="M30.3589 10.5176C32.893 10.5176 34.9654 12.5132 34.9654 14.9441V15.336C34.9654 17.7742 32.893 19.7625 30.3589 19.7625" stroke="#B99E58" stroke-width="2.19027" stroke-linecap="round" stroke-linejoin="round"/>
<path d="M33.8391 10.5176C36.3732 10.5176 38.4456 12.5132 38.4456 14.9441V15.336C38.4456 17.7742 36.3732 19.7625 33.8391 19.7625" stroke="#B99E58" stroke-width="2.19027" stroke-linecap="round" stroke-linejoin="round"/>
<path d="M37.2856 10.5176C39.8197 10.5176 41.8921 12.5132 41.8921 14.9441V15.336C41.8921 17.7742 39.8197 19.7625 37.2856 19.7625H33.9067" stroke="#B99E58" stroke-width="2.19027" stroke-linecap="round" stroke-linejoin="round"/>
<path d="M26.8786 29.0221C24.3444 29.0221 22.2721 27.0265 22.2721 24.5955V24.2036C22.2721 21.7654 24.3444 19.7771 26.8786 19.7771" stroke="#B99E58" stroke-width="2.19027" stroke-linecap="round" stroke-linejoin="round"/>
<path d="M8.93144 10.5177C6.39731 10.5177 4.32495 8.52208 4.32495 6.09111V5.69925C4.32495 3.26102 6.39731 1.27271 8.93144 1.27271" stroke="#B99E58" stroke-width="2.19027" stroke-linecap="round" stroke-linejoin="round"/>
<path d="M12.3722 10.5177C9.8381 10.5177 7.76575 8.52208 7.76575 6.09111V5.69925C7.76575 3.26102 9.8381 1.27271 12.3722 1.27271" stroke="#B99E58" stroke-width="2.19027" stroke-linecap="round" stroke-linejoin="round"/>
<path d="M15.8355 1.26538H5.45121C2.91708 1.26538 0.844727 3.26096 0.844727 5.69193V6.08379C0.844727 8.52202 2.91708 10.5103 5.45121 10.5103H37.4488" stroke="#B99E58" stroke-width="2.19027" stroke-linecap="round" stroke-linejoin="round"/>
</g>
<defs>
<clipPath id="clip0_143_138">
<rect width="165" height="29.9336" fill="white" transform="translate(0 0.177002)"/>
</clipPath>
</defs>
</svg>
